<svg width="128" height="28" fill="none" xmlns="http://www.w3.org/2000/svg"><g clip-path="url(#clip0)"><path d="M127.439 0H80.531v16.728h46.908V0z" fill="#FC0"/><path d="M19.227 19.494v7.135h-4.87v-3.082H4.862v3.082L0 26.683v-7.135h1.843V15.01a7.647 7.647 0 01.957-3.96 6.4 6.4 0 012.73-2.536 9.03 9.03 0 014.052-.886 9.047 9.047 0 014.052.848 6.401 6.401 0 012.746 2.52 7.74 7.74 0 01.988 3.96v4.523l1.859.015zm-7.156 0v-4.97a2.742 2.742 0 00-.669-1.988 2.43 2.43 0 00-1.796-.662 2.391 2.391 0 00-1.79.678 2.705 2.705 0 00-.653 1.98v4.977l4.908-.015zm21.708-.886h-8.556c.17.443.489.816.903 1.055a3.135 3.135 0 001.555.362c.463.012.924-.059 1.361-.208.433-.17.836-.403 1.198-.693l2.668 2.65c-1.198 1.31-2.995 1.973-5.375 1.973a8.852 8.852 0 01-3.889-.77A6.206 6.206 0 0121 20.71a6.251 6.251 0 010-6.518 6.2 6.2 0 012.497-2.25 8.245 8.245 0 017-.085 5.777 5.777 0 012.457 2.157 6.181 6.181 0 01.926 3.406c-.039.077-.062.47-.101 1.187zm-7.98-3.614a1.961 1.961 0 00-.677 1.186h3.967a2.053 2.053 0 00-.684-1.194 2.184 2.184 0 00-2.606 0v.008zm20.65 3.206c.366.45.561 1.015.552 1.594a2.98 2.98 0 01-.894 2.18 5.67 5.67 0 01-2.427 1.364 11.993 11.993 0 01-3.399.47 17.127 17.127 0 01-5.771-.924l1.268-3.329a12.72 12.72 0 004.348.686c.44.016.878-.055 1.29-.208a.668.668 0 00.475-.624.557.557 0 00-.218-.501 1.325 1.325 0 00-.73-.146H38.11v-2.797h2.334c.284.02.569-.037.824-.162a.558.558 0 00.257-.516.567.567 0 00-.366-.532 3.138 3.138 0 00-1.237-.177 12.747 12.747 0 00-3.935.77l-1.144-3.19a15.25 15.25 0 015.445-1.11 10.085 10.085 0 014.55.887 2.87 2.87 0 011.296 1.04c.319.467.49 1.017.493 1.58a2.58 2.58 0 01-.475 1.494 3.451 3.451 0 01-1.275 1.118 3.526 3.526 0 011.57 1.032zm12.608-5.718c1.14.955 1.716 2.43 1.726 4.422v6.558H56.07v-1.596c-.583 1.226-1.742 1.834-3.484 1.842a5.55 5.55 0 01-2.49-.5 3.567 3.567 0 01-1.54-1.333 3.52 3.52 0 01-.551-1.95 3.058 3.058 0 01.323-1.554 3.091 3.091 0 011.06-1.19 7.61 7.61 0 014.232-.947h2.053c-.17-.955-.949-1.425-2.333-1.425a6.2 6.2 0 00-1.688.262 4.858 4.858 0 00-1.462.709l-1.633-3.321a9.017 9.017 0 012.559-1.017c.973-.25 1.973-.377 2.978-.378 2.168-.01 3.822.462 4.963 1.418zm-3.983 7.89c.302-.214.523-.52.63-.87v-.848h-1.26c-1.034 0-1.555.346-1.555 1.032a.886.886 0 00.327.701c.255.195.573.29.894.27.344.008.681-.091.965-.285zm21.366-9.154l-5.024 12.46a7.074 7.074 0 01-2.404 3.35 6.266 6.266 0 01-3.53.972 7.535 7.535 0 01-2.085-.262 4.584 4.584 0 01-1.657-.77l1.68-3.46c.263.196.554.352.863.462.3.116.62.176.942.177a1.57 1.57 0 001.26-.493l-5.22-12.328h5.227l2.56 6.534 2.574-6.542 4.814-.1zm12.336.509a5.65 5.65 0 012.17 2.219 6.77 6.77 0 01.777 3.344 6.728 6.728 0 01-.777 3.336 5.595 5.595 0 01-2.155 2.212 5.9 5.9 0 01-2.979.77 4.35 4.35 0 01-3.11-1.04v5.155l-5.08.015-.046-16.527h4.837v1.001a4.33 4.33 0 013.376-1.233 5.909 5.909 0 012.987.748zm-2.738 7.335c.4-.496.6-1.122.56-1.757a2.603 2.603 0 00-.568-1.78 1.819 1.819 0 00-1.439-.623 1.809 1.809 0 00-1.439.639 2.542 2.542 0 00-.56 1.772 2.504 2.504 0 00.568 1.757 1.951 1.951 0 001.439.627 1.967 1.967 0 001.439-.627v-.008zm20.766-7.928l-5.032 12.459a7.012 7.012 0 01-2.395 3.375 6.266 6.266 0 01-3.531.97 7.842 7.842 0 01-2.085-.292 4.592 4.592 0 01-1.657-.77l1.68-3.46c.265.195.555.353.864.47.298.111.614.171.933.177a1.568 1.568 0 001.26-.501L91.63 11.234h5.227l2.559 6.488 2.574-6.542 4.814-.046zm3.384 11.611a6.28 6.28 0 01-2.598-2.242 5.98 5.98 0 01-.941-3.275 5.891 5.891 0 01.925-3.274 6.26 6.26 0 012.583-2.25 8.42 8.42 0 013.749-.77 7.27 7.27 0 013.888.947 5.002 5.002 0 012.217 2.643l-3.935 1.934a2.318 2.318 0 00-.817-1.138 2.35 2.35 0 00-1.33-.465 1.988 1.988 0 00-1.493.632 2.455 2.455 0 00-.592 1.764 2.487 2.487 0 00.599 1.78 1.998 1.998 0 001.501.625c.481-.02.943-.186 1.324-.475.382-.29.664-.69.808-1.144l3.951 1.911a4.975 4.975 0 01-2.201 2.659 7.35 7.35 0 01-3.85.97 8.434 8.434 0 01-3.788-.832z" fill="#fff"/></g><defs><clipPath id="clip0"><path fill="#fff" d="M0 0h127.431v28H0z"/></clipPath></defs></svg>