<svg width="80" height="80" viewBox="0 0 80 80" fill="none" xmlns="http://www.w3.org/2000/svg">
<path d="M38.0159 28.8807C38.3283 28.9916 38.6719 28.9739 38.9713 28.8316C39.2706 28.6892 39.5012 28.4338 39.6122 28.1216L47.9837 4.53758L50.6645 3.38848L44.1167 29.864C44.0766 30.0236 44.0684 30.1895 44.0926 30.3523C44.1168 30.515 44.1728 30.6714 44.2576 30.8124C44.3424 30.9535 44.4541 31.0764 44.5865 31.1741C44.7189 31.2719 44.8693 31.3425 45.0291 31.382C45.1888 31.4215 45.3548 31.4291 45.5175 31.4043C45.6802 31.3795 45.8364 31.3228 45.9772 31.2376C46.1179 31.1523 46.2404 31.0401 46.3377 30.9073C46.4349 30.7746 46.505 30.624 46.5439 30.4641L53.6949 1.54929C53.7504 1.32362 53.7419 1.08694 53.6704 0.865813C53.5989 0.644688 53.4671 0.447863 53.2899 0.297417C53.1128 0.146972 52.8972 0.0488577 52.6673 0.0140818C52.4375 -0.0206942 52.2025 0.00924372 51.9887 0.100537C46.6555 2.52591 46.1286 2.28672 45.8102 3.18569L37.256 27.2848C37.1451 27.5971 37.1628 27.9408 37.3053 28.2401C37.4479 28.5394 37.7035 28.7698 38.0159 28.8807Z" fill="#BBBBBB"/>
<path d="M78.4478 26.4187L64.5383 29.8887C64.2179 29.9701 63.9428 30.1751 63.7733 30.4588C63.6037 30.7426 63.5534 31.0819 63.6334 31.4025C63.7135 31.7232 63.9173 31.9991 64.2003 32.17C64.4833 32.3408 64.8224 32.3926 65.1435 32.314L76.6188 29.4514L75.4698 32.1558L42.5094 43.956C35.4017 39.2882 35.7252 39.2291 35.0629 39.2238L28.4995 39.1693L27.8832 36.6769L37.9495 34.166C46.0981 36.9973 45.8015 37.1395 46.4516 36.9773L53.015 35.34C53.1749 35.3009 53.3256 35.2305 53.4583 35.1331C53.5909 35.0356 53.703 34.9128 53.7881 34.7719C53.8732 34.631 53.9297 34.4747 53.9542 34.3119C53.9787 34.1491 53.9708 33.9831 53.9309 33.8234C53.891 33.6637 53.82 33.5134 53.7219 33.3812C53.6238 33.249 53.5005 33.1375 53.3592 33.053C53.2179 32.9686 53.0612 32.9129 52.8983 32.8891C52.7354 32.8654 52.5693 32.874 52.4098 32.9146L46.2132 34.4604C38.0646 31.6293 38.3624 31.4868 37.7111 31.6491L27.2801 34.2509C27.1893 33.9419 26.9824 33.68 26.7028 33.52C26.4231 33.36 26.0925 33.3144 25.7799 33.3927L3.65368 38.9123C-0.508596 39.9506 -1.34011 45.5444 2.33288 47.7551C2.87562 48.0839 3.47829 48.3017 4.10589 48.3957C4.73348 48.4898 5.37352 48.4583 5.98884 48.303L28.109 42.785C28.3627 42.7216 28.5901 42.5802 28.7592 42.3808C28.9284 42.1814 29.0307 41.934 29.0518 41.6734L34.6682 41.7203L38.7451 44.4464V51.1719C38.4428 51.1359 38.1378 51.2116 37.8874 51.3847C37.637 51.5578 37.4585 51.8165 37.3856 52.112L31.9734 73.996C30.9481 78.1418 35.468 81.5108 39.1421 79.3C39.6874 78.9734 40.1625 78.5418 40.5396 78.0302C40.9168 77.5187 41.1886 76.9373 41.3392 76.3198L46.75 54.4425C46.8269 54.1307 46.7808 53.8011 46.621 53.5224C46.4613 53.2437 46.2002 53.0373 45.8922 52.946L47.9409 44.6668C77.9502 33.7653 77.1508 34.5927 77.5571 33.6367L79.9011 28.1201C79.9916 27.9062 80.0208 27.6713 79.9853 27.4418C79.9499 27.2122 79.8512 26.9971 79.7003 26.8205C79.5494 26.6439 79.3523 26.5127 79.1311 26.4418C78.9099 26.3708 78.6733 26.3628 78.4478 26.4187ZM3.62243 45.6138C3.35858 45.4557 3.12877 45.2467 2.94635 44.9991C2.76393 44.7515 2.63253 44.4701 2.55979 44.1713C2.41131 43.5702 2.50675 42.9349 2.82525 42.404C3.14375 41.8731 3.65944 41.4897 4.2597 41.3376L25.1703 36.1208L26.2933 40.6615C4.48598 45.8559 5.09513 46.5002 3.62243 45.6138ZM37.8523 77.1585C36.0945 78.2159 33.9006 76.6187 34.4006 74.5962L39.5124 53.9279L44.0238 55.0528C38.4795 76.4746 39.3268 76.2708 37.8523 77.1585ZM43.4676 52.3379L41.2455 51.7839V46.1181L41.6429 46.3837C42.552 46.9916 43.3695 46.13 45.1152 45.6781L43.4676 52.3379Z" fill="#BBBBBB"/>
<path d="M41.2454 39.9959C41.9359 39.9959 42.4956 39.4362 42.4956 38.7458C42.4956 38.0553 41.9359 37.4956 41.2454 37.4956C40.555 37.4956 39.9952 38.0553 39.9952 38.7458C39.9952 39.4362 40.555 39.9959 41.2454 39.9959Z" fill="#BBBBBB"/>
<path d="M58.7478 33.7466C59.4383 33.7466 59.998 33.1868 59.998 32.4964C59.998 31.8059 59.4383 31.2462 58.7478 31.2462C58.0574 31.2462 57.4977 31.8059 57.4977 32.4964C57.4977 33.1868 58.0574 33.7466 58.7478 33.7466Z" fill="#BBBBBB"/>
</svg>
