<svg width="80" height="70" viewBox="0 0 80 70" fill="none" xmlns="http://www.w3.org/2000/svg">
<path d="M67.5018 45.0001C65.0741 45.0028 62.6996 45.7116 60.6676 47.0401C58.6357 48.3686 57.034 50.2595 56.0579 52.4823L25.9577 42.7439L17.2113 20.2537L1.65672 15.0687C1.50056 15.0149 1.33529 14.9926 1.17046 15.0031C1.00563 15.0136 0.844515 15.0567 0.696426 15.1298C0.548336 15.2029 0.41621 15.3047 0.307685 15.4292C0.19916 15.5537 0.116387 15.6985 0.0641522 15.8552C0.0119173 16.0118 -0.00874417 16.1773 0.00336215 16.342C0.0154685 16.5068 0.0601024 16.6674 0.134684 16.8148C0.209266 16.9622 0.312316 17.0933 0.437878 17.2006C0.56344 17.3079 0.709023 17.3892 0.866213 17.4399L15.3072 22.2534L23.7894 44.0654L27.0405 67.9071C27.3144 70.1021 30.4696 70.6778 31.4585 68.6386L40.7071 50.1428L55.287 54.8598C53.5854 62.4795 59.5783 69.9965 67.5018 69.9965C70.8165 69.9965 73.9955 68.6797 76.3394 66.3359C78.6832 63.992 80 60.813 80 57.4983C80 54.1836 78.6832 51.0046 76.3394 48.6608C73.9955 46.3169 70.8165 45.0001 67.5018 45.0001ZM29.4491 67.0683L26.515 45.5515L38.3011 49.3645L29.4491 67.0683ZM67.5018 67.4968C66.0305 67.498 64.5772 67.1741 63.2455 66.5484C61.9139 65.9228 60.7369 65.0107 59.7986 63.8774C58.8604 62.7442 58.1839 61.4177 57.8177 59.9927C57.4515 58.5677 57.4045 57.0794 57.6801 55.6342L60.0826 56.4116C59.8073 58.2745 60.2421 60.1729 61.3006 61.7304C62.3591 63.288 63.9642 64.391 65.7976 64.8208C67.6311 65.2507 69.5591 64.976 71.1996 64.0512C72.8401 63.1264 74.0733 61.6191 74.6547 59.8279C75.2362 58.0368 75.1234 56.0925 74.3389 54.3805C73.5543 52.6686 72.1552 51.3138 70.4188 50.5849C68.6825 49.8559 66.7356 49.8059 64.9641 50.4447C63.1926 51.0836 61.7258 52.3647 60.8544 54.0341L58.4505 53.2564C59.2106 51.6346 60.3926 50.2468 61.8726 49.2381C63.3527 48.2294 65.0766 47.6368 66.8641 47.5224C68.6515 47.4079 70.4369 47.7758 72.0336 48.5875C73.6302 49.3992 74.9794 50.6249 75.9402 52.1365C76.901 53.6482 77.4381 55.3901 77.4953 57.1804C77.5524 58.9706 77.1276 60.7433 76.2652 62.3131C75.4028 63.8829 74.1344 65.1922 72.5928 66.1041C71.0512 67.016 69.2929 67.497 67.5018 67.4968ZM67.8865 56.3093L63.2837 54.8201C63.9363 53.7941 64.9406 53.0414 66.1085 52.703C67.2764 52.3645 68.5276 52.4636 69.6276 52.9816C70.7277 53.4996 71.601 54.4011 72.0841 55.5169C72.5671 56.6328 72.6265 57.8865 72.2513 59.0431C71.8761 60.1997 71.092 61.1797 70.046 61.7996C68.9999 62.4194 67.7637 62.6365 66.569 62.4101C65.3744 62.1838 64.3033 61.5295 63.5565 60.5699C62.8097 59.6104 62.4385 58.4114 62.5124 57.1977C62.8269 57.2724 67.1811 58.7481 67.5018 58.7481C67.7996 58.7482 68.0877 58.642 68.3141 58.4485C68.5406 58.2551 68.6905 57.9871 68.7369 57.6929C68.7832 57.3987 68.723 57.0976 68.5671 56.8439C68.4111 56.5902 68.1697 56.4005 67.8863 56.3089L67.8865 56.3093Z" fill="#BBBBBB"/>
<path d="M22.5084 27.5027H22.7126L27.6411 40.1773C27.7083 40.3502 27.8132 40.506 27.9481 40.6333C28.083 40.7606 28.2446 40.8563 28.4211 40.9134L53.369 48.9857C53.5894 49.0567 53.8251 49.0653 54.05 49.0104C54.2749 48.9555 54.4802 48.8393 54.6431 48.6748L75.5542 27.5027H76.2505C77.8236 27.5158 77.8711 24.9892 76.2505 25.0031H73.0865L63.833 13.8983C63.6201 13.6458 63.316 13.4878 62.987 13.4588C62.6581 13.4298 62.331 13.5322 62.0773 13.7436C61.8236 13.955 61.6638 14.2582 61.633 14.587C61.6021 14.9158 61.7027 15.2435 61.9126 15.4984L69.8327 25.0031H28.6748L42.6537 5.26893C43.2338 4.44738 43.9953 3.77036 44.879 3.29029C45.7628 2.81023 46.7451 2.53999 47.7501 2.50051C48.7551 2.46102 49.7556 2.65335 50.6743 3.0626C51.593 3.47186 52.4052 4.08705 53.048 4.86055L53.9182 5.90571C54.9255 7.13678 56.8774 5.5317 55.8398 4.30626L54.9691 3.26063C51.1333 -1.34198 44.0291 -0.997814 40.6145 3.8243L25.6115 25.0031H22.5084C22.1769 25.0031 21.859 25.1348 21.6246 25.3692C21.3902 25.6035 21.2585 25.9214 21.2585 26.2529C21.2585 26.5844 21.3902 26.9023 21.6246 27.1367C21.859 27.371 22.1769 27.5027 22.5084 27.5027ZM72.041 27.5027L69.5726 30.0024H61.2527C60.9213 30.0024 60.6034 30.134 60.369 30.3684C60.1346 30.6028 60.0029 30.9207 60.0029 31.2522C60.0029 31.5837 60.1346 31.9015 60.369 32.1359C60.6034 32.3703 60.9213 32.502 61.2527 32.502H67.1033L53.4057 46.3704L29.7556 38.7181L27.3384 32.502H56.2535C56.5849 32.502 56.9028 32.3703 57.1372 32.1359C57.3716 31.9015 57.5033 31.5837 57.5033 31.2522C57.5033 30.9207 57.3716 30.6028 57.1372 30.3684C56.9028 30.134 56.5849 30.0024 56.2535 30.0024H26.3672L25.3951 27.5027C26.1797 27.501 71.1864 27.501 72.041 27.5027Z" fill="#BBBBBB"/>
<path d="M58.7529 11.2551C59.4431 11.2551 60.0027 10.6956 60.0027 10.0053C60.0027 9.31506 59.4431 8.75549 58.7529 8.75549C58.0626 8.75549 57.5031 9.31506 57.5031 10.0053C57.5031 10.6956 58.0626 11.2551 58.7529 11.2551Z" fill="#BBBBBB"/>
</svg>
