<svg width="80" height="68" viewBox="0 0 80 68" fill="none" xmlns="http://www.w3.org/2000/svg">
<path d="M33.7446 49.5602H30.2243C29.5949 49.5602 29.0846 50.0705 29.0846 50.6999C29.0846 51.3292 29.5949 51.8395 30.2243 51.8395H33.7446C34.374 51.8395 34.8843 51.3292 34.8843 50.6999C34.8843 50.0705 34.374 49.5602 33.7446 49.5602Z" fill="#BBBBBB"/>
<path d="M79.0167 48.6037L78.6567 48.0062C77.3 45.7548 75.0433 44.1695 72.4653 43.6567L69.523 43.0715V28.158H77.1374C78.7052 28.158 79.9805 26.8825 79.9805 25.3149V3.11948C79.9805 1.55167 78.705 0.276367 77.1374 0.276367H54.942C53.3742 0.276367 52.0989 1.55183 52.0989 3.11948V11.539C52.0989 12.1684 52.609 12.6787 53.2385 12.6787C53.8681 12.6787 54.3782 12.1684 54.3782 11.539V3.11948C54.3782 2.80854 54.6312 2.55558 54.9421 2.55558H77.1377C77.4486 2.55558 77.7016 2.80854 77.7016 3.11948V25.315C77.7016 25.626 77.4486 25.8789 77.1377 25.8789H54.942C54.631 25.8789 54.3781 25.626 54.3781 25.315V18.948C54.3781 18.3186 53.8679 17.8083 53.2384 17.8083C52.6089 17.8083 52.0987 18.3186 52.0987 18.948V25.315C52.0987 26.8828 53.3742 28.1581 54.9418 28.1581H63.5763V41.8892L62.0638 41.5884C59.9763 41.1732 57.9412 39.9134 56.5918 39.0017L49.0537 33.9094C46.1858 31.972 42.8406 30.948 39.3797 30.948H25.5438C20.9399 30.948 16.6082 32.7375 13.3468 35.9867C11.2831 38.0428 8.68528 39.4451 5.8342 40.0423L4.19795 40.385C1.76546 40.8943 0 43.0681 0 45.5534V56.5908C0 57.9074 0.777341 59.1038 1.98062 59.6385L6.51997 61.656C6.7945 63.0914 7.48606 64.4622 8.59512 65.5713C10.069 67.0452 12.0051 67.7822 13.9414 67.7822C15.8776 67.7822 17.8135 67.0452 19.2876 65.5713C20.2355 64.6233 20.8768 63.4838 21.2151 62.2764H59.0643C59.4026 63.4838 60.044 64.6233 60.992 65.5713C62.4201 66.9992 64.3185 67.7858 66.3382 67.7858C68.3577 67.7858 70.2564 66.9994 71.6846 65.5713C72.6325 64.6233 73.2738 63.4838 73.6121 62.2764H75.7741C78.1042 62.2764 80 60.3807 80 58.0505V52.1393C79.9997 50.8934 79.6597 49.6709 79.0167 48.6037ZM65.8557 28.158H67.2438V42.6182L65.8557 42.3421V28.158ZM17.6757 63.9597C16.6782 64.9572 15.352 65.5066 13.9412 65.5066C12.5304 65.5066 11.2042 64.9572 10.2067 63.9597C8.60653 62.3596 8.25059 59.98 9.13715 58.0322C9.14434 58.0166 9.15121 58.0008 9.1584 57.9852C9.18543 57.9274 9.21403 57.8702 9.24325 57.8133C9.257 57.7865 9.27075 57.7597 9.28512 57.7332C9.31153 57.6838 9.33903 57.6347 9.36715 57.586C9.38653 57.5524 9.40637 57.5191 9.42653 57.486C9.45262 57.443 9.47902 57.4002 9.50653 57.3579C9.53137 57.3196 9.55699 57.2818 9.58293 57.2441C9.60856 57.2068 9.63402 57.1693 9.66059 57.1326C9.69106 57.0905 9.72277 57.0493 9.75465 57.008C9.77949 56.9758 9.80371 56.9433 9.82934 56.9116C9.86684 56.8652 9.90605 56.8199 9.94512 56.7746C9.96746 56.7488 9.98887 56.7224 10.0117 56.6969C10.0698 56.6324 10.1296 56.5691 10.1912 56.5071C10.1965 56.5018 10.2014 56.4961 10.2067 56.4908C10.2184 56.4791 10.2307 56.4682 10.2426 56.4566C10.2948 56.4054 10.3473 56.3547 10.4009 56.3061C10.4148 56.2935 10.4295 56.2818 10.4436 56.2693C10.497 56.2219 10.5507 56.1749 10.6057 56.1301C10.6109 56.1258 10.6164 56.1219 10.6215 56.1177C12.5532 54.5544 15.3393 54.5563 17.2687 56.124C17.2709 56.1258 17.2732 56.1274 17.2756 56.1293C17.3345 56.1772 17.3921 56.2276 17.4495 56.2785C17.4598 56.2876 17.4704 56.2962 17.4806 56.3054C17.5468 56.3652 17.6118 56.4269 17.6756 56.4907C17.7443 56.5594 17.8106 56.6302 17.8749 56.7019C17.9032 56.7335 17.9299 56.7658 17.9573 56.7979C17.9907 56.8369 18.0243 56.8761 18.0565 56.916C18.0926 56.9608 18.1274 57.0065 18.1618 57.0521C18.1812 57.0776 18.2004 57.1032 18.2191 57.129C18.2609 57.1865 18.3015 57.2446 18.3407 57.3035C18.3474 57.3135 18.354 57.3236 18.3606 57.3336C19.7012 59.3813 19.473 62.1622 17.6757 63.9597ZM70.0725 63.9597C69.0749 64.9572 67.7486 65.5066 66.3379 65.5066C64.9271 65.5066 63.601 64.9572 62.6035 63.9597C60.8059 62.1622 60.5777 59.3808 61.9185 57.3333C61.9249 57.3235 61.9313 57.3136 61.9379 57.304C61.9771 57.2449 62.0179 57.1866 62.0598 57.1288C62.0784 57.1032 62.0974 57.0779 62.1166 57.0527C62.1512 57.0068 62.1862 56.961 62.2226 56.9158C62.2546 56.8763 62.2877 56.8376 62.321 56.7988C62.3487 56.7665 62.3757 56.7336 62.4043 56.7019C62.4687 56.6302 62.5349 56.5596 62.6037 56.4908C63.6012 55.4933 64.9272 54.944 66.338 54.944C67.7488 54.944 69.075 55.4933 70.0725 56.4908C70.1413 56.5596 70.2075 56.6304 70.2719 56.7021C70.3004 56.7336 70.3271 56.7661 70.3546 56.7983C70.388 56.8372 70.4214 56.8763 70.4535 56.916C70.4897 56.961 70.5246 57.0066 70.5591 57.0524C70.5783 57.0779 70.5975 57.1033 70.6163 57.1291C70.658 57.1868 70.6988 57.2447 70.7378 57.3036C70.7446 57.3136 70.7511 57.3236 70.7577 57.3336C72.098 59.3811 71.8699 62.1624 70.0725 63.9597ZM77.7208 58.0505H77.7205C77.7205 59.124 76.8472 59.9972 75.7738 59.9972H73.8975C73.8528 58.3443 73.2694 56.7672 72.2194 55.4743C72.2124 55.4655 72.2057 55.4565 72.1985 55.4477C72.1335 55.3685 72.0661 55.2908 71.9977 55.2137C71.9802 55.194 71.9636 55.1736 71.946 55.154C71.8735 55.0741 71.7985 54.9958 71.7222 54.9187C71.7093 54.9055 71.6974 54.8918 71.6842 54.8788C70.7024 53.8971 69.4982 53.2185 68.1852 52.8904C67.5883 52.7412 66.9691 52.6644 66.3379 52.6644C65.833 52.6644 65.3357 52.7137 64.8513 52.8096C63.3983 53.0977 62.0627 53.8079 60.9916 54.8788C60.9788 54.8916 60.9671 54.9051 60.9544 54.918C60.8779 54.9957 60.8026 55.0741 60.7299 55.1543C60.7127 55.1732 60.6968 55.1929 60.6799 55.2119C60.6109 55.2897 60.5427 55.3682 60.4773 55.4482C60.4707 55.4562 60.4646 55.4644 60.458 55.4726C59.4073 56.7657 58.8232 58.3436 58.7784 59.9974H21.5007C21.4559 58.3416 20.8705 56.7618 19.8171 55.4676C19.8123 55.4615 19.8076 55.4554 19.8027 55.4493C19.734 55.3652 19.6626 55.2829 19.5899 55.2013C19.5765 55.1863 19.564 55.1708 19.5504 55.1558C19.4652 55.0619 19.3777 54.9694 19.2873 54.879C18.9188 54.5105 18.5213 54.188 18.1024 53.9116C16.8452 53.0826 15.3932 52.668 13.9412 52.668C12.0051 52.668 10.0689 53.4051 8.59497 54.879C8.51075 54.9632 8.42934 55.0496 8.34966 55.1371C8.32606 55.163 8.3034 55.1894 8.28012 55.2155C8.22387 55.2791 8.16856 55.3433 8.11466 55.4083C8.09075 55.4372 8.06684 55.4663 8.04341 55.4957C7.98763 55.5652 7.93325 55.6355 7.88013 55.7066C7.86356 55.7288 7.84653 55.7505 7.83044 55.7729C7.68763 55.9683 7.55513 56.1699 7.43263 56.3766C7.42919 56.3824 7.42591 56.3883 7.42247 56.3941C7.36263 56.4958 7.30528 56.599 7.25044 56.7032C7.24888 56.7061 7.24732 56.7093 7.2456 56.7122C6.84825 57.4683 6.58107 58.2861 6.45857 59.1344L2.90655 57.5557C2.52561 57.3863 2.27952 57.0076 2.27952 56.5908V45.5534C2.27952 44.1407 3.28311 42.9053 4.66576 42.6156L6.30201 42.2729C9.58637 41.585 12.5789 39.9695 14.956 37.6012C17.7873 34.7805 21.5476 33.227 25.5443 33.227H39.3802C42.3847 33.227 45.2886 34.1161 47.7783 35.7978L55.3163 40.8901C56.829 41.9121 59.1282 43.3281 61.6196 43.8237L72.0211 45.8921C73.9714 46.2801 75.6785 47.4793 76.7049 49.1824L77.0649 49.7799C77.4941 50.492 77.7208 51.3079 77.7208 52.1393V58.0505Z" fill="#BBBBBB"/>
<path d="M66.8702 6.77515H62.9654C62.3824 6.77515 62.0133 7.14436 62.0133 7.55233H62.0132V20.1803C62.0132 20.7048 62.6349 20.9768 63.276 20.9768C63.8977 20.9768 64.5388 20.7049 64.5388 20.1803V15.6731H66.7149C69.2792 15.6731 71.2803 14.449 71.2803 11.2629V11.1465C71.2803 7.9603 69.3375 6.77515 66.8702 6.77515ZM68.7546 11.4573C68.7546 12.9726 67.9775 13.6915 66.7147 13.6915H64.5388V8.98998H66.7147C67.9775 8.98998 68.7546 9.70889 68.7546 11.2242V11.4573Z" fill="#BBBBBB"/>
<path d="M56.0813 43.237C55.5882 42.9656 55.1017 42.6684 54.6354 42.3534L47.0972 37.2609C44.8093 35.7153 42.1406 34.8984 39.3797 34.8984H25.5436C21.871 34.8984 18.4154 36.3261 15.8132 38.9183C14.4757 40.2509 12.952 41.3656 11.2843 42.2315C10.2981 42.7437 9.68542 43.7517 9.68542 44.8621C9.68542 46.4975 11.0157 47.8278 12.651 47.8278H17.3682C17.9976 47.8278 18.5079 47.3175 18.5079 46.6881C18.5079 46.0587 17.9976 45.5484 17.3682 45.5484H12.651C12.2726 45.5484 11.9646 45.2404 11.9646 44.862C11.9646 44.6056 12.1064 44.3728 12.3346 44.2543C14.2082 43.2815 15.9199 42.0293 17.4218 40.5329C19.5937 38.3692 22.478 37.1776 25.5435 37.1776H28.6411V45.5484H24.8549C24.2255 45.5484 23.7152 46.0587 23.7152 46.6881C23.7152 47.3175 24.2255 47.8278 24.8549 47.8278H56.1045C57.0413 47.8278 57.8035 47.0656 57.8035 46.1287C57.8035 44.929 57.1435 43.8209 56.0813 43.237ZM30.9208 45.5486V37.1778H39.3798C41.6844 37.1778 43.9119 37.8597 45.8214 39.1497L53.3596 44.2421C53.8831 44.5957 54.4292 44.9295 54.9832 45.2342C55.1267 45.3131 55.2468 45.4215 55.3371 45.5486H30.9208Z" fill="#BBBBBB"/>
<path d="M16.3879 57.6224C15.7341 56.9688 14.8654 56.609 13.9412 56.609C13.017 56.609 12.1481 56.969 11.4946 57.6224C10.8412 58.2759 10.4812 59.1448 10.4812 60.069C10.4812 60.9932 10.8412 61.8621 11.4946 62.5155C12.1481 63.169 13.017 63.529 13.9413 63.529C14.8656 63.529 15.7345 63.1691 16.3879 62.5155C17.737 61.1665 17.737 58.9715 16.3879 57.6224ZM14.776 60.9038C14.5531 61.1268 14.2565 61.2496 13.9412 61.2496C13.6257 61.2496 13.3293 61.1268 13.1063 60.9037C12.8834 60.6807 12.7604 60.3843 12.7604 60.0688C12.7604 59.7534 12.8832 59.457 13.1063 59.234C13.3293 59.011 13.6257 58.8881 13.9412 58.8881C14.2565 58.8881 14.5531 59.0109 14.776 59.234C15.2363 59.6945 15.2363 60.4435 14.776 60.9038Z" fill="#BBBBBB"/>
<path d="M68.7846 57.7788C68.1312 57.1253 67.2623 56.7653 66.3379 56.7653C65.4137 56.7653 64.5449 57.1251 63.8912 57.7787C62.5423 59.1277 62.5423 61.3227 63.8912 62.6718C64.5448 63.3254 65.4137 63.6852 66.3379 63.6852C67.2623 63.6852 68.131 63.3254 68.7845 62.672C69.438 62.0185 69.7979 61.1496 69.7979 60.2254C69.7979 59.3012 69.438 58.4323 68.7846 57.7788ZM67.1727 61.0602C66.9498 61.2832 66.6534 61.406 66.3379 61.406C66.0226 61.406 65.726 61.2832 65.5031 61.0602C65.0428 60.5999 65.0428 59.8509 65.5031 59.3906C65.726 59.1676 66.0226 59.0446 66.3379 59.0446C66.6534 59.0446 66.9498 59.1674 67.1729 59.3906C67.3959 59.6135 67.5187 59.9099 67.5187 60.2254C67.5187 60.5406 67.396 60.8371 67.1727 61.0602Z" fill="#BBBBBB"/>
<path d="M33.7298 23.3436L36.6218 26.2356C36.7969 26.4097 37.0196 26.5282 37.2619 26.576C37.5041 26.6239 37.7551 26.599 37.9832 26.5045C38.2114 26.41 38.4065 26.2501 38.5439 26.045C38.6814 25.8398 38.7551 25.5986 38.7557 25.3517C38.7557 24.4621 38.134 24.372 35.5158 21.5939C38.7236 17.192 36.2829 11.6427 32.3854 7.74501C27.1736 2.53332 15.6947 1.64051 15.2086 1.60442C15.0296 1.59135 14.8499 1.617 14.6817 1.6796C14.5135 1.7422 14.3607 1.8403 14.2338 1.96722C14.1069 2.09413 14.0088 2.2469 13.9462 2.41511C13.8836 2.58333 13.8579 2.76306 13.871 2.94207C13.9065 3.42816 14.7994 14.9069 20.0116 20.119C25.3183 25.4265 30.4981 25.5946 33.7298 23.3436ZM16.5282 4.26222C19.7011 4.67253 27.0822 5.97736 30.6178 9.51297C34.2369 13.132 35.3834 17.1031 33.717 19.7953L23.3889 9.4672C23.2728 9.35112 23.135 9.25904 22.9834 9.19622C22.8317 9.1334 22.6692 9.10107 22.505 9.10107C22.3409 9.10107 22.1783 9.1334 22.0267 9.19622C21.875 9.25904 21.7372 9.35112 21.6211 9.4672C21.505 9.58327 21.413 9.72107 21.3501 9.87273C21.2873 10.0244 21.255 10.1869 21.255 10.3511C21.255 10.5153 21.2873 10.6778 21.3501 10.8295C21.413 10.9811 21.505 11.1189 21.6211 11.235L31.922 21.5359C29.2331 23.0789 25.3353 21.9084 21.7781 18.3511C18.2435 14.8161 16.9386 7.43486 16.5282 4.26222Z" fill="#BBBBBB"/>
<path d="M26.9724 26.7553C26.9724 23.2787 21.5737 29.7509 10.304 15.3871C11.1165 15.0046 12.2571 14.498 13.5853 13.993C13.74 13.9356 13.8818 13.8482 14.0026 13.7357C14.1233 13.6233 14.2206 13.488 14.2888 13.3377C14.3571 13.1875 14.3949 13.0252 14.4 12.8603C14.4052 12.6953 14.3777 12.531 14.3191 12.3768C14.2604 12.2225 14.1718 12.0814 14.0583 11.9616C13.9449 11.8417 13.8088 11.7456 13.658 11.6786C13.5072 11.6116 13.3446 11.5752 13.1796 11.5713C13.0147 11.5675 12.8506 11.5964 12.6968 11.6563C11.0254 12.2854 9.39268 13.0127 7.80715 13.8346C7.65161 13.9182 7.51555 14.0338 7.40792 14.1738C7.3003 14.3138 7.22356 14.475 7.18275 14.6468C7.14195 14.8186 7.13801 14.9971 7.1712 15.1705C7.20438 15.3439 7.27393 15.5084 7.37528 15.653C7.66325 16.0639 14.5131 25.7386 21.8118 27.4706C23.0817 27.7794 24.3796 27.9586 25.6857 28.0054C25.8529 28.0104 26.0194 27.9817 26.1753 27.921C26.3313 27.8604 26.4735 27.7691 26.5934 27.6525C26.7134 27.5359 26.8088 27.3964 26.8739 27.2423C26.939 27.0882 26.9725 26.9226 26.9724 26.7553Z" fill="#BBBBBB"/>
</svg>
