<svg width="80" height="80" viewBox="0 0 80 80" fill="none" xmlns="http://www.w3.org/2000/svg">
<path d="M79.3358 53.8001L67.8145 47.6045C67.6698 47.5246 67.5107 47.4743 67.3464 47.4563C67.1821 47.4383 67.0158 47.4531 66.8573 47.4998C66.6987 47.5465 66.551 47.6241 66.4227 47.7283C66.2943 47.8324 66.1879 47.961 66.1096 48.1066C66.0313 48.2521 65.9827 48.4117 65.9665 48.5762C65.9503 48.7407 65.9669 48.9067 66.0154 49.0648C66.0638 49.2228 66.1431 49.3696 66.2486 49.4968C66.3542 49.624 66.484 49.7289 66.6304 49.8056L76.2403 54.9734L39.9963 77.2734L3.75207 54.9734L8.80313 52.2567C8.949 52.1797 9.07819 52.0745 9.18324 51.9474C9.28829 51.8202 9.36713 51.6735 9.4152 51.5157C9.46328 51.358 9.47964 51.1922 9.46335 51.0281C9.44706 50.864 9.39844 50.7047 9.32029 50.5594C9.24213 50.4142 9.136 50.2858 9.008 50.1818C8.88 50.0777 8.73267 50.0001 8.5745 49.9532C8.41634 49.9064 8.25046 49.8913 8.08644 49.9089C7.92242 49.9264 7.76349 49.9763 7.61883 50.0556L0.656816 53.8001C0.463609 53.9043 0.301245 54.0576 0.186042 54.2444C0.0708381 54.4313 0.00685432 54.6451 0.00052071 54.8646C-0.0058129 55.084 0.0457268 55.3012 0.14996 55.4944C0.254193 55.6876 0.407447 55.8499 0.59432 55.9651C41.4523 81.0223 39.6269 80.4357 40.6519 79.8052C80.8319 54.7969 80.0331 56.244 79.9935 54.8642C79.9871 54.6447 79.9229 54.4308 79.8074 54.244C79.6919 54.0571 79.5292 53.904 79.3358 53.8001Z" fill="#BBBBBB"/>
<path d="M37.4637 36.8444L39.9963 35.482C49.3951 40.4747 49.022 40.4852 49.6147 40.4852C50.9115 40.4852 51.3459 38.7465 50.2084 38.1346L40.5888 32.9622C39.6068 32.4342 39.0264 33.3328 36.2799 34.6431C36.1353 34.7209 36.0075 34.8263 35.9037 34.9535C35.7999 35.0806 35.7222 35.2269 35.6749 35.3841C35.6277 35.5413 35.6119 35.7063 35.6284 35.8695C35.6449 36.0328 35.6935 36.1913 35.7712 36.3358C35.849 36.4803 35.9545 36.6081 36.0816 36.7119C36.2088 36.8157 36.3552 36.8934 36.5124 36.9407C36.8298 37.036 37.1722 37.0014 37.4642 36.8444H37.4637Z" fill="#BBBBBB"/>
<path d="M34.1945 42.2956C34.0374 42.5875 34.0028 42.9298 34.0982 43.2472C34.1936 43.5646 34.4112 43.8312 34.7032 43.9882L37.3577 45.4157L30.6688 49.0129C29.5282 49.6262 29.9669 51.3635 31.2625 51.3635C31.8453 51.3635 31.4968 51.3449 39.997 46.8346L56.2147 55.5564L49.5367 59.6649L42.1566 55.1241C41.8742 54.9504 41.5345 54.8959 41.212 54.9727C40.8895 55.0495 40.6107 55.2512 40.4369 55.5335C40.2632 55.8158 40.2087 56.1555 40.2855 56.478C40.3623 56.8004 40.564 57.0792 40.8464 57.2529L47.1517 61.1324L39.9963 65.5344L26.9161 57.4866C26.7762 57.3975 26.6201 57.3372 26.4567 57.309C26.2933 57.2809 26.1259 57.2856 25.9643 57.3227C25.8027 57.3599 25.6502 57.4288 25.5155 57.5255C25.3808 57.6222 25.2667 57.7447 25.1799 57.8859C25.093 58.0271 25.0351 58.1842 25.0096 58.348C24.984 58.5118 24.9913 58.6791 25.031 58.84C25.0707 59.001 25.1421 59.1524 25.2409 59.2855C25.3397 59.4186 25.464 59.5308 25.6066 59.6154L37.6119 67.0019L34.6408 68.8297C34.501 68.9157 34.3796 69.0284 34.2833 69.1613C34.1871 69.2943 34.118 69.4449 34.08 69.6045C34.0419 69.7642 34.0357 69.9298 34.0617 70.0918C34.0877 70.2539 34.1453 70.4092 34.2313 70.549C34.3174 70.6888 34.4301 70.8102 34.563 70.9065C34.696 71.0027 34.8466 71.0718 35.0063 71.1098C35.166 71.1478 35.3316 71.154 35.4937 71.1281C35.6557 71.1021 35.8111 71.0445 35.9509 70.9584L39.9963 68.4693C44.081 70.91 44.0741 71.1442 44.6961 71.1442C45.9507 71.1442 46.4242 69.4895 45.3523 68.8298L42.3812 67.0021L49.5361 62.5999L53.0324 64.751C53.3147 64.9247 53.6545 64.9792 53.977 64.9024C54.2995 64.8256 54.5783 64.6239 54.752 64.3416C54.9258 64.0593 54.9803 63.7196 54.9035 63.3971C54.8267 63.0747 54.6249 62.7959 54.3426 62.6222L51.9209 61.1324L58.759 56.925L62.8259 59.112C63.1178 59.2678 63.4595 59.3015 63.7761 59.2059C64.0928 59.1102 64.3587 58.8929 64.5154 58.6015C64.6721 58.3102 64.7069 57.9687 64.6122 57.6518C64.5174 57.3348 64.3009 57.0684 64.0101 56.9108L61.2203 55.4111L64.0727 53.6552C64.2142 53.57 64.3374 53.4576 64.4352 53.3246C64.533 53.1915 64.6034 53.0404 64.6425 52.8799C64.6815 52.7195 64.6883 52.5529 64.6626 52.3897C64.6369 52.2266 64.579 52.0702 64.4925 51.9296C64.4059 51.789 64.2923 51.6669 64.1583 51.5704C64.0243 51.4739 63.8725 51.4049 63.7116 51.3674C63.5508 51.33 63.3841 51.3247 63.2212 51.352C63.0583 51.3794 62.9025 51.4387 62.7626 51.5266L58.6747 54.0417L42.6348 45.4152L45.2893 43.9877C45.4344 43.9103 45.5628 43.8049 45.6671 43.6778C45.7714 43.5507 45.8496 43.4042 45.8972 43.2468C45.9447 43.0893 45.9608 42.9241 45.9444 42.7605C45.9279 42.5968 45.8794 42.4381 45.8015 42.2932C45.7236 42.1484 45.6178 42.0204 45.4903 41.9165C45.3629 41.8126 45.2161 41.7349 45.0585 41.6878C44.901 41.6407 44.7356 41.6252 44.572 41.6421C44.4084 41.6591 44.2498 41.7081 44.1052 41.7864L39.9963 43.9963L35.8872 41.7864C35.5952 41.6295 35.2528 41.595 34.9354 41.6905C34.6179 41.786 34.3514 42.0036 34.1945 42.2956Z" fill="#BBBBBB"/>
<path d="M62.2853 49.44C62.9062 48.5075 77.4937 26.4992 77.4937 17.3427C77.4937 3.59554 63.1961 -4.5604 52.5073 2.724C52.237 2.91214 52.0519 3.19935 51.9922 3.5232C51.9325 3.84706 52.0031 4.18138 52.1885 4.45351C52.374 4.72563 52.6594 4.91356 52.9827 4.97645C53.306 5.03934 53.6411 4.9721 53.9151 4.78935C62.9791 -1.38685 74.9939 5.63214 74.9939 17.3427C74.9939 24.4202 64.6128 41.197 61.2449 46.4526C57.877 41.1967 47.4958 24.4202 47.4958 17.3427C47.4939 15.8246 47.7092 14.3141 48.1353 12.857C48.1834 12.699 48.1997 12.5331 48.1833 12.3687C48.1668 12.2044 48.118 12.045 48.0395 11.8996C47.9611 11.7543 47.8546 11.6259 47.7263 11.522C47.5979 11.418 47.4502 11.3406 47.2917 11.294C47.1332 11.2475 46.9671 11.2328 46.8029 11.2509C46.6387 11.2689 46.4798 11.3193 46.3352 11.3992C46.1906 11.4791 46.0633 11.5868 45.9606 11.7161C45.8579 11.8455 45.7819 11.9939 45.7369 12.1528C45.2435 13.8385 44.994 15.5862 44.996 17.3427C44.996 26.4992 59.5836 48.508 60.2045 49.44C60.3186 49.6113 60.4733 49.7518 60.6548 49.849C60.8363 49.9462 61.039 49.9971 61.2449 49.9971C61.4508 49.9971 61.6535 49.9462 61.835 49.849C62.0165 49.7518 62.1711 49.6113 62.2853 49.44Z" fill="#BBBBBB"/>
<path d="M52.4954 17.7978C52.4954 20.0273 54.1265 28.7514 58.7449 28.7514C59.6639 28.7332 60.5478 28.3955 61.2448 27.7963C61.9417 28.3955 62.8256 28.7332 63.7446 28.7514C68.363 28.7514 69.9942 20.0273 69.9942 17.7978C69.9942 13.1916 65.7087 11.7766 62.7418 12.8145C61.9022 7.77382 56.2451 6.10714 56.2451 8.75565C56.2451 9.0871 56.3768 9.40497 56.6112 9.63934C56.8456 9.87372 57.1635 10.0054 57.495 10.0054C58.6717 10.0054 59.9192 11.6357 60.2364 13.0132C57.2652 11.635 52.4954 12.9195 52.4954 17.7978ZM60.2564 16.1368C60.3732 16.2875 60.5231 16.4096 60.6944 16.4935C60.8657 16.5775 61.054 16.6211 61.2448 16.621C62.4503 16.621 62.418 15.0037 64.5778 15.0037C65.9083 15.0043 67.4943 15.4886 67.4943 17.7978C67.4943 21.1721 64.7826 28.9703 62.2906 25.2898C62.1781 25.1159 62.0239 24.9728 61.8421 24.8735C61.6603 24.7742 61.4566 24.7218 61.2494 24.721C61.0422 24.7203 60.8382 24.7712 60.6556 24.8692C60.4731 24.9672 60.3179 25.1091 60.204 25.2822C57.6913 28.9945 54.9952 21.114 54.9952 17.7978C54.9952 15.4886 56.5812 15.0043 57.9117 15.0043C58.3633 15.0002 58.8098 15.1002 59.2164 15.2966C59.6231 15.493 59.9789 15.7805 60.2564 16.1368Z" fill="#BBBBBB"/>
<path d="M19.7882 59.4378C20.4091 58.5054 34.9967 36.497 34.9967 27.3405C34.9967 17.7819 27.7075 10.0054 18.7478 10.0054C16.3885 10.0021 14.0604 10.5453 11.9462 11.5924C11.6504 11.7397 11.425 11.9982 11.3193 12.3112C11.2135 12.6243 11.2361 12.9665 11.3821 13.263C11.528 13.5594 11.7855 13.7861 12.0981 13.8932C12.4107 14.0004 12.753 13.9794 13.0502 13.8349C14.8212 12.9575 16.7714 12.5022 18.7478 12.5049C26.329 12.5049 32.4968 19.1597 32.4968 27.3405C32.4968 34.4181 22.1157 51.1949 18.7478 56.4505C15.3799 51.1945 4.99875 34.4181 4.99875 27.3405C4.98863 24.9887 5.51001 22.665 6.52395 20.5429C6.66708 20.2439 6.68556 19.9003 6.57533 19.5877C6.4651 19.2751 6.23519 19.0191 5.93618 18.876C5.63717 18.7329 5.29355 18.7144 4.98092 18.8247C4.66828 18.9349 4.41223 19.1647 4.26911 19.4637C3.09328 21.9225 2.48816 24.6151 2.49892 27.3405C2.49892 36.497 17.0865 58.5058 17.7074 59.4378C17.8215 59.6092 17.9762 59.7497 18.1577 59.8469C18.3392 59.9441 18.5419 59.9949 18.7478 59.9949C18.9537 59.9949 19.1564 59.9441 19.3379 59.8469C19.5194 59.7497 19.6741 59.6092 19.7882 59.4378Z" fill="#BBBBBB"/>
<path d="M17.4978 32.9008V37.4997H16.2479C15.9164 37.4997 15.5985 37.6313 15.3641 37.8657C15.1297 38.1001 14.998 38.418 14.998 38.7494C14.998 39.0809 15.1297 39.3987 15.3641 39.6331C15.5985 39.8675 15.9164 39.9992 16.2479 39.9992H21.2476C21.5791 39.9992 21.897 39.8675 22.1314 39.6331C22.3658 39.3987 22.4975 39.0809 22.4975 38.7494C22.4975 38.418 22.3658 38.1001 22.1314 37.8657C21.897 37.6313 21.5791 37.4997 21.2476 37.4997H19.9976V32.8811C21.6952 32.5288 25.9007 31.4875 27.9043 29.4842C34.6887 22.7009 22.8535 14.8074 18.7002 28.1951C14.5377 14.7782 2.71758 22.7059 9.49602 29.4842C11.5381 31.5259 15.8678 32.5687 17.4978 32.9008ZM23.171 24.7514C23.7596 24.1629 24.7145 23.3912 25.6738 23.3912C26.947 23.3912 28.7673 25.0859 26.1366 27.7167C25.031 28.8221 22.6026 29.6529 20.752 30.1354C21.2346 28.285 22.0653 25.8568 23.171 24.7514ZM11.7265 23.3912C12.6858 23.3912 13.6407 24.1629 14.2294 24.7514C15.335 25.8568 16.1659 28.285 16.6483 30.1354C14.7977 29.6529 12.3693 28.8221 11.2637 27.7167C8.64592 25.0995 10.4524 23.3912 11.7265 23.3912Z" fill="#BBBBBB"/>
<path d="M8.74845 17.5042C9.43876 17.5042 9.99836 16.9446 9.99836 16.2543C9.99836 15.564 9.43876 15.0044 8.74845 15.0044C8.05814 15.0044 7.49854 15.564 7.49854 16.2543C7.49854 16.9446 8.05814 17.5042 8.74845 17.5042Z" fill="#BBBBBB"/>
<path d="M37.4965 54.9963C38.1868 54.9963 38.7464 54.4367 38.7464 53.7464C38.7464 53.0561 38.1868 52.4965 37.4965 52.4965C36.8062 52.4965 36.2466 53.0561 36.2466 53.7464C36.2466 54.4367 36.8062 54.9963 37.4965 54.9963Z" fill="#BBBBBB"/>
<path d="M48.7456 8.75691C49.4359 8.75691 49.9956 8.1973 49.9956 7.50699C49.9956 6.81669 49.4359 6.25708 48.7456 6.25708C48.0553 6.25708 47.4957 6.81669 47.4957 7.50699C47.4957 8.1973 48.0553 8.75691 48.7456 8.75691Z" fill="#BBBBBB"/>
</svg>
