<svg width="80" height="80" viewBox="0 0 80 80" fill="none" xmlns="http://www.w3.org/2000/svg">
<path d="M16.6032 32.3799C16.6027 32.0742 16.4901 31.7793 16.2868 31.551C16.0835 31.3226 15.8035 31.1767 15.4999 31.1409C10.3948 30.5357 6.88528 27.4365 4.78686 22.6526C7.65622 25.6493 11.6775 27.0315 12.5843 27.0315L12.5859 27.0315C14.0626 27.0315 14.311 24.897 12.8671 24.5628C6.5681 22.9545 2.49999 17.2412 2.49999 10.0003C2.49999 9.6688 2.36829 9.35085 2.13387 9.11644C1.89945 8.88202 1.58151 8.75032 1.24999 8.75032C0.918475 8.75032 0.600534 8.88202 0.366114 9.11644C0.131695 9.35085 -7.24945e-07 9.6688 -7.14916e-07 10.0003C-3.75588e-07 21.2167 4.06545 32.3024 15.2059 33.6229C15.3814 33.6437 15.5593 33.6271 15.7279 33.5741C15.8965 33.5211 16.052 33.433 16.184 33.3156C16.3161 33.1981 16.4217 33.054 16.494 32.8927C16.5662 32.7314 16.6035 32.5566 16.6032 32.3799Z" fill="#BBBBBB"/>
<path d="M11.4531 0.355629C10.1719 1.59251 9.15303 3.07473 8.45713 4.7139C7.76123 6.35307 7.40259 8.1156 7.40259 9.89637C7.40259 11.6771 7.76123 13.4397 8.45713 15.0788C9.15303 16.718 10.1719 18.2002 11.4531 19.4371L17.7515 25.583C18.0935 26.0232 19.0702 27.2532 19.596 27.4322C20.2899 28.2777 20.6676 29.3385 20.6643 30.4322C20.6643 33.6146 18.1377 33.8058 18.9813 35.3517L26.6249 49.3889C26.3853 49.5504 25.7718 49.6792 25.5582 50.3576C25.5088 50.5142 25.4909 50.679 25.5052 50.8425C25.5196 51.006 25.566 51.1652 25.6419 51.3107C27.358 54.3762 27.2725 54.9873 28.1075 55.2501L30.9842 56.1563L32.3311 58.7438C32.406 58.8909 32.5094 59.0217 32.6351 59.1286C32.7609 59.2356 32.9065 59.3165 33.0638 59.3668C33.221 59.4172 33.3866 59.4359 33.551 59.4218C33.7155 59.4078 33.8756 59.3614 34.022 59.2852C34.1684 59.2089 34.2983 59.1045 34.4041 58.9778C34.51 58.8511 34.5897 58.7048 34.6386 58.5471C34.6876 58.3895 34.7048 58.2237 34.6894 58.0594C34.6739 57.895 34.6261 57.7354 34.5486 57.5896C33.045 54.9151 33.0642 54.1906 32.2295 53.9278L29.3514 53.0215L28.4357 51.2643L36.1961 47.2225L48.8981 71.613C49.2035 72.2012 49.2631 72.8865 49.0639 73.5187C48.8648 74.1508 48.423 74.6781 47.8356 74.985C43.0212 77.4481 43.2029 77.5 42.7483 77.5C42.5526 77.5003 42.3606 77.4468 42.1932 77.3453C42.0259 77.2439 41.8897 77.0984 41.7995 76.9247C41.1162 75.6122 43.5393 74.8541 42.7773 73.3916L40.3211 68.6744C40.2469 68.5261 40.1439 68.3941 40.0182 68.286C39.8925 68.1779 39.7465 68.0959 39.5888 68.0447C39.431 67.9936 39.2647 67.9744 39.0995 67.9881C38.9342 68.0019 38.7734 68.0484 38.6263 68.1249C38.4792 68.2014 38.3488 68.3065 38.2427 68.4339C38.1366 68.5613 38.0569 68.7086 38.0082 68.8671C37.9596 69.0256 37.943 69.1922 37.9593 69.3572C37.9757 69.5222 38.0247 69.6823 38.1036 69.8282L40.2029 73.8613C38.025 76.1991 39.549 80 42.7483 80C44.1922 80 44.73 79.3036 48.9914 77.2031C50.1661 76.5893 51.0495 75.5347 51.4479 74.2705C51.8462 73.0063 51.727 71.6357 51.1163 70.4593L37.8367 44.9594C37.7609 44.8138 37.6571 44.6845 37.5314 44.579C37.4056 44.4735 37.2603 44.3939 37.1037 44.3445C36.9471 44.2952 36.7824 44.2772 36.6188 44.2915C36.4553 44.3059 36.2962 44.3523 36.1506 44.4281L34.5805 45.2459L30.8816 36.7691C36.5691 31.1993 36.438 31.3941 36.9433 30.7943L44.0548 33.7839L42.9572 37.2658C36.8411 34.73 37.1253 34.731 36.6769 34.731C35.3044 34.731 34.9392 36.6414 36.2208 37.1449L42.2026 39.6605L41.6748 41.3352C41.5752 41.6513 41.6052 41.9941 41.7583 42.2881C41.9115 42.5821 42.1751 42.8033 42.4912 42.903C46.2236 43.9778 46.5365 44.4244 47.2917 44.0712L50.2073 42.708L54.9827 44.1481C55.3001 44.2438 55.6426 44.2095 55.9347 44.0527C56.2268 43.896 56.4447 43.6296 56.5404 43.3122C56.6361 42.9948 56.6018 42.6523 56.445 42.3602C56.2882 42.0681 56.0219 41.8502 55.7045 41.7545C50.5196 40.2961 50.3363 39.8878 49.5813 40.2409L46.6739 41.6003L44.4348 40.8945L47.0646 32.5496L75.0778 41.3922C76.5037 41.8425 77.4997 43.0923 77.4997 44.4314C77.4997 46.3572 75.4973 47.7248 73.3358 47.072L67.6639 45.3611C67.5065 45.3128 67.3412 45.2961 67.1773 45.312C67.0134 45.3278 66.8543 45.3758 66.7091 45.4533C66.5638 45.5308 66.4353 45.6363 66.3309 45.7636C66.2265 45.8909 66.1483 46.0375 66.1008 46.1951C66.0532 46.3527 66.0373 46.5182 66.0539 46.682C66.0704 46.8458 66.1192 47.0047 66.1974 47.1496C66.2755 47.2945 66.3815 47.4225 66.5093 47.5263C66.6371 47.6301 66.7841 47.7077 66.9419 47.7545L72.6138 49.4653C75.6595 50.3853 78.7864 48.894 79.7325 46.07C80.7278 43.0959 78.8456 39.9606 75.8311 39.0075C45.287 29.5075 46.5437 29.4183 45.6717 29.8721C45.0014 30.221 45.0282 30.8636 44.81 31.3877L38.2856 28.6449C41.0254 22.4979 36.2819 15.6628 29.395 16.1579L13.1996 0.355629C12.9661 0.127624 12.6527 -3.31581e-07 12.3263 -3.10969e-07C12 -2.90357e-07 11.6866 0.127624 11.4531 0.355629ZM29.1121 18.7009C35.3894 17.8312 39.0683 25.2863 34.6066 29.6413L28.5175 35.5821C28.3359 35.7593 28.2125 35.9877 28.1638 36.2368C28.1151 36.4859 28.1434 36.7439 28.2449 36.9766L32.358 46.4026L28.8424 48.2339L21.5997 34.9322C22.6185 33.6541 23.1707 32.0667 23.165 30.4322C23.165 26.4463 20.218 24.6765 19.6338 23.9262C15.6059 18.6493 14.8548 10.6582 16.4307 7.00217C28.615 18.6445 28.0099 18.8538 29.1121 18.7009ZM14.5587 5.17499C12.4751 8.68779 13.0237 14.6646 14.2499 18.6721C13.8493 18.1324 9.90619 15.4363 9.90619 9.89559C9.90284 7.39297 10.7757 4.96816 12.3734 3.04187L14.5587 5.17499Z" fill="#BBBBBB"/>
<path d="M26.2499 25.0003C26.2499 25.7419 26.4698 26.467 26.8819 27.0836C27.2939 27.7003 27.8796 28.181 28.5648 28.4648C29.25 28.7486 30.004 28.8229 30.7314 28.6782C31.4589 28.5335 32.1271 28.1763 32.6515 27.6519C33.1759 27.1275 33.5331 26.4593 33.6778 25.7318C33.8225 25.0044 33.7482 24.2504 33.4644 23.5652C33.1806 22.88 32.6999 22.2943 32.0832 21.8823C31.4666 21.4702 30.7415 21.2503 29.9999 21.2503C29.0056 21.2514 28.0525 21.6468 27.3495 22.3499C26.6464 23.0529 26.251 24.006 26.2499 25.0003ZM31.2499 25.0003C31.2499 25.2475 31.1765 25.4892 31.0392 25.6947C30.9018 25.9003 30.7066 26.0605 30.4782 26.1551C30.2498 26.2497 29.9985 26.2745 29.756 26.2262C29.5135 26.178 29.2908 26.059 29.116 25.8841C28.9412 25.7093 28.8221 25.4866 28.7739 25.2441C28.7257 25.0016 28.7504 24.7503 28.845 24.5219C28.9396 24.2935 29.0998 24.0983 29.3054 23.9609C29.511 23.8236 29.7526 23.7503 29.9999 23.7503C30.3313 23.7506 30.649 23.8824 30.8833 24.1168C31.1177 24.3511 31.2495 24.6689 31.2499 25.0003Z" fill="#BBBBBB"/>
<path d="M37.4999 63.75C37.4999 63.0597 36.9402 62.5 36.2499 62.5C35.5595 62.5 34.9999 63.0597 34.9999 63.75C34.9999 64.4404 35.5595 65 36.2499 65C36.9402 65 37.4999 64.4404 37.4999 63.75Z" fill="#BBBBBB"/>
<path d="M62.4997 45.0001C62.4997 44.3098 61.9401 43.7501 61.2498 43.7501C60.5594 43.7501 59.9998 44.3098 59.9998 45.0001C59.9998 45.6905 60.5594 46.2501 61.2498 46.2501C61.9401 46.2501 62.4997 45.6905 62.4997 45.0001Z" fill="#BBBBBB"/>
</svg>
