<svg width="71" height="80" viewBox="0 0 71 80" fill="none" xmlns="http://www.w3.org/2000/svg">
<path d="M67.5975 68.5141C67.9487 66.8849 68.7523 61.7375 68.7523 48.7499C68.7523 46.5496 68.2367 42.2761 67.2203 36.0485C67.1939 35.8865 67.1357 35.7313 67.0493 35.5917C66.9629 35.4521 66.8498 35.331 66.7166 35.2351C66.5833 35.1393 66.4325 35.0706 66.2727 35.033C66.1129 34.9955 65.9472 34.9898 65.7852 35.0162C65.6232 35.0427 65.468 35.1008 65.3284 35.1872C65.1889 35.2736 65.0677 35.3867 64.9719 35.52C64.876 35.6532 64.8074 35.8041 64.7698 35.9639C64.7322 36.1236 64.7265 36.2893 64.753 36.4513C65.7339 42.4604 66.253 46.7132 66.253 48.7499C66.253 64.3663 65.075 68.328 65.0672 68.3546C65.007 68.5352 64.9888 68.7271 65.0141 68.9158C65.0393 69.1045 65.1074 69.2849 65.213 69.4433L67.4731 72.8339C67.26 73.9746 65.9351 74.4294 64.8398 73.8821C64.5827 73.7535 64.289 73.7175 64.0084 73.7802C63.8414 73.8172 47.217 77.4999 35.0023 77.4999C22.7876 77.4999 6.16327 73.8172 5.99686 73.7799C5.71626 73.7171 5.42261 73.7531 5.16546 73.8818C4.06717 74.4305 2.74452 73.9707 2.53218 72.8336C7.13968 65.3711 3.75233 75.5958 3.75233 48.7499C3.75233 46.7132 4.27077 42.4604 5.25233 36.4513C5.27878 36.2893 5.27306 36.1236 5.2355 35.9639C5.19794 35.8041 5.12927 35.6532 5.03341 35.52C4.93756 35.3867 4.81639 35.2736 4.67684 35.1872C4.53729 35.1008 4.38207 35.0427 4.22007 35.0162C4.05806 34.9898 3.89243 34.9955 3.73263 35.033C3.57283 35.0706 3.422 35.1393 3.28874 35.2351C3.15548 35.331 3.0424 35.4521 2.95597 35.5917C2.86954 35.7313 2.81144 35.8865 2.78499 36.0485C1.76796 42.2761 1.25233 46.5496 1.25233 48.7499C1.25233 61.7375 2.05592 66.8849 2.40717 68.5141L0.212331 71.8066C-0.314231 72.596 0.0970183 74.8513 1.91467 75.975C2.5003 76.3319 3.16086 76.5477 3.84421 76.6055C4.52755 76.6632 5.21496 76.5613 5.85218 76.3079C8.53639 76.8896 23.43 79.9999 35.0023 79.9999C46.5747 79.9999 61.4683 76.8896 64.152 76.3079C64.7893 76.5612 65.4767 76.6631 66.16 76.6053C66.8433 76.5476 67.5039 76.3318 68.0895 75.975C69.9073 74.8513 70.3183 72.596 69.7919 71.8066L67.5975 68.5141Z" fill="#BBBBBB"/>
<path d="M66.2524 20H3.75241C0.502407 20 -1.18509 23.8567 0.959595 26.25C-1.18384 28.642 0.50022 32.5 3.75241 32.5H66.2524C69.5024 32.5 71.1899 28.6433 69.0452 26.25C71.1887 23.858 69.5046 20 66.2524 20ZM23.7524 27.5H66.2524C66.5839 27.5 66.9019 27.6317 67.1363 27.8661C67.3707 28.1005 67.5024 28.4185 67.5024 28.75C67.5024 29.0815 67.3707 29.3995 67.1363 29.6339C66.9019 29.8683 66.5839 30 66.2524 30H3.75241C3.42089 30 3.10294 29.8683 2.86852 29.6339C2.6341 29.3995 2.50241 29.0815 2.50241 28.75C2.50241 28.4185 2.6341 28.1005 2.86852 27.8661C3.10294 27.6317 3.42089 27.5 3.75241 27.5H13.7524C14.0839 27.5 14.4019 27.3683 14.6363 27.1339C14.8707 26.8995 15.0024 26.5815 15.0024 26.25C15.0024 25.9185 14.8707 25.6005 14.6363 25.3661C14.4019 25.1317 14.0839 25 13.7524 25H3.75241C3.42089 25 3.10294 24.8683 2.86852 24.6339C2.6341 24.3995 2.50241 24.0815 2.50241 23.75C2.50241 23.4185 2.6341 23.1005 2.86852 22.8661C3.10294 22.6317 3.42089 22.5 3.75241 22.5H66.2524C66.5839 22.5 66.9019 22.6317 67.1363 22.8661C67.3707 23.1005 67.5024 23.4185 67.5024 23.75C67.5024 24.0815 67.3707 24.3995 67.1363 24.6339C66.9019 24.8683 66.5839 25 66.2524 25H23.7524C23.4209 25 23.1029 25.1317 22.8685 25.3661C22.6341 25.6005 22.5024 25.9185 22.5024 26.25C22.5024 26.5815 22.6341 26.8995 22.8685 27.1339C23.1029 27.3683 23.4209 27.5 23.7524 27.5Z" fill="#BBBBBB"/>
<path d="M45.0023 63.6965C45.3338 63.6965 45.6517 63.5648 45.8862 63.3303C46.1206 63.0959 46.2523 62.778 46.2523 62.4465C46.2523 62.1149 46.1206 61.797 45.8862 61.5626C45.6517 61.3281 45.3338 61.1965 45.0023 61.1965H42.2707C42.0003 59.6799 41.2705 58.2831 40.1801 57.195C39.0897 56.1069 37.6913 55.3801 36.1742 55.113V52.1204C38.0146 52.7286 39.882 52.636 41.5976 51.7163C45.082 49.8483 47.3073 44.7333 47.4004 44.5165C47.4745 44.3439 47.5087 44.1568 47.5005 43.9692C47.4924 43.7816 47.442 43.5983 47.3533 43.4328C47.2645 43.2673 47.1396 43.1239 46.9879 43.0133C46.8361 42.9027 46.6614 42.8277 46.4767 42.794C46.2446 42.7513 40.7523 41.7754 37.2687 43.643C36.3371 44.136 35.5392 44.848 34.9438 45.7177C34.3485 44.8479 33.5505 44.1359 32.6188 43.643C29.1356 41.7754 23.6432 42.7513 23.4109 42.794C23.2262 42.8278 23.0515 42.9028 22.8997 43.0134C22.748 43.124 22.6231 43.2673 22.5344 43.4328C22.4456 43.5983 22.3953 43.7817 22.3872 43.9693C22.379 44.1569 22.4132 44.3439 22.4873 44.5165C22.5803 44.7333 24.8063 49.8483 28.2899 51.7163C30.0115 52.6394 31.8681 52.7204 33.6742 52.1333V55.0993C32.1414 55.3532 30.725 56.0757 29.6198 57.1676C28.5146 58.2594 27.7748 59.6669 27.5023 61.1965H25.0023C24.6708 61.1965 24.3528 61.3281 24.1184 61.5626C23.884 61.797 23.7523 62.1149 23.7523 62.4465C23.7523 62.778 23.884 63.0959 24.1184 63.3303C24.3528 63.5648 24.6708 63.6965 25.0023 63.6965H45.0023ZM44.3304 45.0544C42.3556 48.57 39.8013 51.2068 36.227 49.453C36.2209 49.3793 36.2134 49.3018 36.2042 49.2186C36.8148 45.3585 40.4321 44.7627 44.3304 45.0544ZM33.6626 49.4532C30.0845 51.2071 27.5363 48.5743 25.5592 45.0543C29.4585 44.7629 33.0748 45.3586 33.6856 49.2191C33.6762 49.3018 33.6687 49.3796 33.6626 49.4532ZM30.0601 61.1965C31.3882 56.2865 38.3843 56.2821 39.7131 61.1965H30.0601Z" fill="#BBBBBB"/>
<path d="M40.6273 70C45.1028 70 49.3951 68.2221 52.5597 65.0574C55.7244 61.8927 57.5023 57.6005 57.5023 53.125C57.5023 48.6495 55.7244 44.3573 52.5597 41.1926C49.3951 38.0279 45.1028 36.25 40.6273 36.25H29.3773C24.9018 36.25 20.6096 38.0279 17.4449 41.1926C14.2802 44.3573 12.5023 48.6495 12.5023 53.125C12.5023 57.6005 14.2802 61.8927 17.4449 65.0574C20.6096 68.2221 24.9018 70 29.3773 70H40.6273ZM15.0023 53.125C15.0065 49.3138 16.5223 45.6598 19.2172 42.9649C21.9122 40.27 25.5661 38.7541 29.3773 38.75H40.6273C44.4398 38.75 48.0961 40.2645 50.792 42.9603C53.4878 45.6562 55.0023 49.3125 55.0023 53.125C55.0023 56.9375 53.4878 60.5938 50.792 63.2897C48.0961 65.9855 44.4398 67.5 40.6273 67.5H29.3773C25.5661 67.4959 21.9122 65.98 19.2172 63.2851C16.5223 60.5902 15.0065 56.9362 15.0023 53.125Z" fill="#BBBBBB"/>
<path d="M14.0224 17.098C22.7134 7.68437 30.1642 2.5 35.0024 2.5C39.8405 2.5 47.2913 7.68437 55.9824 17.098C56.2072 17.3416 56.5197 17.4858 56.851 17.499C57.1822 17.5123 57.5052 17.3933 57.7488 17.1684C57.9923 16.9435 58.1366 16.6311 58.1498 16.2998C58.163 15.9686 58.0441 15.6456 57.8192 15.402C51.3322 8.375 42.108 0 35.0024 0C27.8967 0 18.6725 8.375 12.1855 15.402C11.9606 15.6456 11.8417 15.9686 11.8549 16.2998C11.8681 16.6311 12.0124 16.9435 12.2559 17.1684C12.4995 17.3933 12.8225 17.5123 13.1537 17.499C13.485 17.4858 13.7975 17.3416 14.0224 17.098Z" fill="#BBBBBB"/>
<path d="M18.7522 27.5C19.4426 27.5 20.0022 26.9404 20.0022 26.25C20.0022 25.5596 19.4426 25 18.7522 25C18.0618 25 17.5022 25.5596 17.5022 26.25C17.5022 26.9404 18.0618 27.5 18.7522 27.5Z" fill="#BBBBBB"/>
<path d="M28.7523 12.5C29.4427 12.5 30.0023 11.9404 30.0023 11.25C30.0023 10.5596 29.4427 10 28.7523 10C28.062 10 27.5023 10.5596 27.5023 11.25C27.5023 11.9404 28.062 12.5 28.7523 12.5Z" fill="#BBBBBB"/>
<path d="M32.5023 7.5C33.1927 7.5 33.7523 6.94036 33.7523 6.25C33.7523 5.55964 33.1927 5 32.5023 5C31.812 5 31.2523 5.55964 31.2523 6.25C31.2523 6.94036 31.812 7.5 32.5023 7.5Z" fill="#BBBBBB"/>
<path d="M35.0024 11.25C35.6928 11.25 36.2524 10.6904 36.2524 10C36.2524 9.30964 35.6928 8.75 35.0024 8.75C34.3121 8.75 33.7524 9.30964 33.7524 10C33.7524 10.6904 34.3121 11.25 35.0024 11.25Z" fill="#BBBBBB"/>
<path d="M38.7522 8.75C39.4426 8.75 40.0022 8.19036 40.0022 7.5C40.0022 6.80964 39.4426 6.25 38.7522 6.25C38.0618 6.25 37.5022 6.80964 37.5022 7.5C37.5022 8.19036 38.0618 8.75 38.7522 8.75Z" fill="#BBBBBB"/>
<path d="M41.2523 13.75C41.9427 13.75 42.5023 13.1904 42.5023 12.5C42.5023 11.8096 41.9427 11.25 41.2523 11.25C40.562 11.25 40.0023 11.8096 40.0023 12.5C40.0023 13.1904 40.562 13.75 41.2523 13.75Z" fill="#BBBBBB"/>
<path d="M46.2523 17.5C46.9427 17.5 47.5023 16.9404 47.5023 16.25C47.5023 15.5596 46.9427 15 46.2523 15C45.562 15 45.0023 15.5596 45.0023 16.25C45.0023 16.9404 45.562 17.5 46.2523 17.5Z" fill="#BBBBBB"/>
<path d="M37.5022 17.5C38.1926 17.5 38.7522 16.9404 38.7522 16.25C38.7522 15.5596 38.1926 15 37.5022 15C36.8118 15 36.2522 15.5596 36.2522 16.25C36.2522 16.9404 36.8118 17.5 37.5022 17.5Z" fill="#BBBBBB"/>
<path d="M31.2522 17.5C31.9426 17.5 32.5022 16.9404 32.5022 16.25C32.5022 15.5596 31.9426 15 31.2522 15C30.5618 15 30.0022 15.5596 30.0022 16.25C30.0022 16.9404 30.5618 17.5 31.2522 17.5Z" fill="#BBBBBB"/>
<path d="M23.7523 17.5C24.4427 17.5 25.0023 16.9404 25.0023 16.25C25.0023 15.5596 24.4427 15 23.7523 15C23.062 15 22.5023 15.5596 22.5023 16.25C22.5023 16.9404 23.062 17.5 23.7523 17.5Z" fill="#BBBBBB"/>
</svg>
