<svg width="80" height="80" viewBox="0 0 80 80" fill="none" xmlns="http://www.w3.org/2000/svg">
<path d="M58.2104 44.7229L52.9078 39.4191C52.7918 39.3031 52.654 39.211 52.5024 39.1482C52.3507 39.0853 52.1882 39.053 52.0241 39.053C51.8599 39.053 51.6974 39.0853 51.5458 39.1482C51.3942 39.211 51.2564 39.3031 51.1403 39.4191C39.0456 51.5518 39.4652 51.0157 38.7304 51.9381C37.6926 53.2404 39.6721 54.7674 40.685 53.4962C41.2853 52.7427 40.9653 53.1599 52.0241 42.0707L56.4431 46.4906L53.8273 49.1066C53.6533 49.2818 53.5349 49.5044 53.4871 49.7467C53.4393 49.9889 53.4642 50.2399 53.5587 50.468C53.6532 50.6961 53.813 50.8911 54.018 51.0286C54.2231 51.1661 54.4642 51.2398 54.7111 51.2406C55.6448 51.2406 55.1788 51.0957 64.3967 42.071L67.9315 45.6065L52.9092 60.6328C52.4723 61.07 51.889 61.3299 51.2718 61.3624C50.6546 61.3949 50.0472 61.1977 49.5668 60.8088C49.0864 60.4199 48.7669 59.8668 48.6701 59.2563C48.5732 58.6458 48.7058 58.021 49.0423 57.5024C49.1327 57.3649 49.195 57.2109 49.2257 57.0492C49.2565 56.8874 49.2549 56.7213 49.2213 56.5602C49.1876 56.399 49.1225 56.2462 49.0296 56.1103C48.9367 55.9744 48.8179 55.8582 48.68 55.7684C48.5421 55.6786 48.3878 55.6169 48.226 55.5868C48.0642 55.5568 47.8981 55.559 47.7372 55.5934C47.5762 55.6277 47.4236 55.6935 47.2882 55.787C47.1527 55.8805 47.0371 55.9998 46.9479 56.1381C44.8145 59.4145 47.1353 63.8623 51.1405 63.8621C51.797 63.8633 52.4472 63.7348 53.054 63.4841C53.6607 63.2334 54.212 62.8653 54.6762 62.401L63.5128 53.5624L67.9315 57.9818L57.3267 68.5885C55.8011 70.1163 53.829 71.1187 51.6959 71.4506C51.3707 71.5073 51.0812 71.6902 50.8905 71.9596C50.6998 72.229 50.6234 72.5629 50.6779 72.8884C50.7323 73.214 50.9134 73.5047 51.1814 73.6973C51.4494 73.8898 51.7828 73.9685 52.1086 73.9162C54.7559 73.5015 57.2026 72.2547 59.0941 70.3564L70.5826 58.8657C70.6986 58.7496 70.7907 58.6118 70.8535 58.4602C70.9163 58.3085 70.9486 58.146 70.9486 57.9818C70.9486 57.8177 70.9163 57.6551 70.8535 57.5034C70.7907 57.3518 70.6986 57.214 70.5826 57.0979L65.2801 51.7946C76.3405 40.7321 70.6697 46.4031 78.5357 38.536C79.0015 38.0727 79.3707 37.5217 79.6221 36.9147C79.8734 36.3077 80.0019 35.6569 80 34.9999C80 30.5107 74.5765 28.3533 71.4661 31.4644C64.3925 38.5393 70.3403 32.5901 58.2104 44.7229ZM73.2335 33.2321C73.7022 32.7633 74.338 32.4999 75.0009 32.4999C75.6639 32.4999 76.2996 32.7633 76.7684 33.2321C77.2372 33.701 77.5005 34.3369 77.5005 34.9999C77.5005 35.663 77.2372 36.2989 76.7684 36.7677L69.6987 43.8388L66.1637 40.3032L73.2335 33.2321Z" fill="#BBBBBB"/>
<path d="M10.8636 56.8631C11.5287 56.6342 12.2369 56.4301 12.9682 56.2537C15.9652 56.3337 17.5118 58.8961 17.5118 60C17.5118 60.3315 17.6435 60.6495 17.8779 60.8839C18.1122 61.1183 18.4301 61.25 18.7616 61.25C21.4543 61.25 19.5831 55.0845 14.4699 53.9325C17.2931 46.6875 25.5333 47.5448 25.7051 47.5C25.2679 49.1315 25.0345 50.811 25.0104 52.5C25.0104 53.7059 26.3695 53.7981 26.2601 53.75C26.5914 53.75 26.909 53.6185 27.1434 53.3844C27.3777 53.1502 27.5095 52.8327 27.5099 52.5014C27.5099 52.4669 27.5283 49.0326 28.6172 46.8315C32.3256 40.1367 39.3437 38.7603 45.0942 40.9001C45.405 41.0157 45.7489 41.0031 46.0503 40.8651C46.3518 40.7271 46.5861 40.4749 46.7016 40.1641C46.8172 39.8533 46.8046 39.5093 46.6666 39.2078C46.5286 38.9063 46.2765 38.672 45.9658 38.5564C44.4526 37.9967 42.8669 37.657 41.2573 37.5476V26.8575L47.133 22.2398C50.5927 25.6003 55.0329 24.2468 58.8286 21.2634C64.1045 17.1165 66.5439 7.10712 66.6452 6.68337C66.689 6.50011 66.6908 6.30934 66.6504 6.12531C66.6101 5.94128 66.5287 5.76874 66.4123 5.62062C66.2959 5.47249 66.1475 5.35259 65.9782 5.26989C65.809 5.1872 65.6232 5.14384 65.4349 5.14305C65.0006 5.14118 54.6989 5.14555 49.4223 9.29259C45.7271 12.1971 43.3106 16.1153 45.6105 20.256L41.2573 23.6782C41.2756 20.7901 40.7327 17.9259 39.6587 15.2449C42.2235 12.4777 42.4353 8.58868 38.076 4.5154C33.9054 0.618205 25.0846 0.025704 24.7111 0.00242268C24.527 -0.00905413 24.3427 0.0203443 24.1714 0.0885097C24.0001 0.156675 23.8459 0.261918 23.72 0.396692C23.5942 0.531465 23.4997 0.692429 23.4433 0.868039C23.387 1.04365 23.3702 1.22956 23.3941 1.41242C23.4427 1.78336 24.6326 10.5452 28.8033 14.4424C31.3354 16.8085 34.4851 18.3454 37.5838 16.8215C39.3398 21.6634 38.5662 24.9903 38.7578 30.3959L35.1828 28.4485C35.7932 26.3704 35.589 22.9787 29.9668 19.9151C24.7847 17.0917 16.0815 18.176 15.7134 18.2235C15.5175 18.2488 15.3304 18.3201 15.1674 18.4316C15.0044 18.5431 14.8702 18.6917 14.7757 18.8651C14.6812 19.0385 14.6291 19.2319 14.6238 19.4294C14.6184 19.6268 14.6599 19.8227 14.7448 20.001C14.9043 20.336 18.7138 28.2376 23.8961 31.0609C27.4565 33.0006 31.4813 33.8059 34.021 30.6628L38.7578 33.2426V37.5468C33.6962 37.9136 29.4997 40.5203 26.7891 45C25.4983 45.1436 20.7482 44.2408 16.213 47.6611C14.1075 49.2348 12.5655 51.4455 11.8156 53.9651C11.2076 54.1258 10.6163 54.3045 10.0503 54.4992C9.89487 54.5525 9.75149 54.6358 9.62833 54.7445C9.50517 54.8533 9.40465 54.9852 9.33251 55.1328C9.26038 55.2804 9.21804 55.4408 9.20794 55.6048C9.19783 55.7688 9.22014 55.9332 9.2736 56.0885C9.32706 56.2439 9.41062 56.3872 9.51949 56.5102C9.62836 56.6332 9.76042 56.7336 9.90811 56.8055C10.0558 56.8775 10.2162 56.9196 10.3802 56.9295C10.5442 56.9393 10.7083 56.9168 10.8636 56.8631ZM50.9673 11.2582C54.4084 8.55353 60.7623 7.87212 63.767 7.70071C62.8922 10.5796 60.7317 16.5881 57.2839 19.2978C54.7291 21.3059 51.5975 22.789 49.1241 20.6751L58.2761 13.4829C58.4051 13.3815 58.513 13.2557 58.5934 13.1126C58.6738 12.9695 58.7253 12.812 58.7449 12.649C58.7644 12.486 58.7517 12.3208 58.7074 12.1627C58.6632 12.0046 58.5882 11.8568 58.4868 11.7277C58.3854 11.5987 58.2596 11.4908 58.1165 11.4104C57.9735 11.3299 57.816 11.2784 57.653 11.2589C57.4901 11.2393 57.3249 11.252 57.1668 11.2963C57.0088 11.3406 56.861 11.4156 56.732 11.517L47.6128 18.6834C46.3101 15.8281 48.5104 13.1893 50.9673 11.2582ZM38.4505 12.727C37.1295 10.3675 35.3869 8.27052 33.3091 6.54024C33.0545 6.32799 32.726 6.2256 32.3958 6.2556C32.0657 6.28561 31.761 6.44555 31.5488 6.70024C31.3366 6.95493 31.2342 7.28351 31.2642 7.61369C31.2942 7.94387 31.4542 8.24861 31.7088 8.46087C33.7226 10.1373 35.3795 12.201 36.5813 14.5296C34.488 15.6357 32.2384 14.2317 30.5097 12.6163C27.9442 10.2187 26.6587 5.22008 26.1475 2.66493C28.7312 3.00149 33.8042 3.94508 36.3696 6.34227C38.3119 8.15712 39.8318 10.4512 38.4505 12.727ZM32.9008 27.206L26.5454 23.7437C26.4013 23.6652 26.2431 23.6158 26.0799 23.5985C25.9167 23.5811 25.7516 23.5961 25.5942 23.6425C25.4368 23.689 25.2901 23.7659 25.1624 23.8691C25.0347 23.9722 24.9286 24.0995 24.8501 24.2437C24.7716 24.3879 24.7223 24.5461 24.7049 24.7093C24.6876 24.8726 24.7025 25.0376 24.749 25.1951C24.7954 25.3525 24.8723 25.4993 24.9755 25.627C25.0786 25.7547 25.2059 25.8608 25.35 25.9393L31.7671 29.4346C30.4025 30.7275 28.1646 30.5393 25.0922 28.8654C21.9219 27.1382 19.1948 22.894 17.8657 20.5485C20.5567 20.3935 25.6009 20.3834 28.7711 22.111C31.7294 23.7223 33.1112 25.4317 32.9008 27.206Z" fill="#BBBBBB"/>
<path d="M76.2991 58.4447C76.0637 58.2113 75.7452 58.081 75.4137 58.0825C75.0823 58.084 74.765 58.2172 74.5317 58.4526C74.2983 58.6881 74.1681 59.0067 74.1696 59.3382C74.1711 59.6697 74.3042 59.9871 74.5396 60.2205C80.9445 66.6055 76.3738 77.5 67.5024 77.5H12.5129C6.03817 77.5 1.00319 71.3694 2.91126 64.3791C2.99854 64.0592 2.9552 63.7177 2.79077 63.4298C2.62634 63.1419 2.35429 62.9311 2.03448 62.8438C1.71466 62.7565 1.37328 62.7999 1.08542 62.9643C0.797562 63.1288 0.586813 63.4009 0.499537 63.7208C-1.85564 72.3534 4.44519 80 12.5129 80H67.5024C70.8158 79.9962 73.9924 78.6781 76.3354 76.3347C78.6783 73.9913 79.9962 70.814 80 67.5C80 63.6042 78.5665 60.4987 76.2991 58.4447Z" fill="#BBBBBB"/>
<path d="M43.132 72.5C42.8006 72.5 42.4827 72.6317 42.2483 72.8661C42.014 73.1005 41.8823 73.4185 41.8823 73.75C41.8823 76.5075 48.756 74.6498 48.756 69.375C48.7572 68.21 48.3963 67.0735 47.7234 66.1227C47.0505 65.1719 46.0988 64.4537 45 64.0676C45.3377 56.1267 34.6241 53.2173 30.8964 60.2073C30.0609 59.9752 29.183 59.9393 28.3313 60.1024C27.4796 60.2655 26.6771 60.6232 25.9864 61.1477C25.2957 61.6721 24.7355 62.349 24.3494 63.1256C23.9633 63.9023 23.7619 64.7576 23.7607 65.625C23.7607 70.9326 30.6344 72.73 30.6344 70C30.6344 69.6685 30.5028 69.3505 30.2684 69.1161C30.034 68.8817 29.7161 68.75 29.3847 68.75C28.9058 68.7501 28.4333 68.6401 28.0036 68.4286C27.574 68.217 27.1987 67.9094 26.9068 67.5297C26.6149 67.15 26.4142 66.7082 26.3202 66.2386C26.2262 65.7689 26.2413 65.2839 26.3645 64.8211C26.4877 64.3582 26.7156 63.9298 27.0307 63.5691C27.3457 63.2084 27.7395 62.9249 28.1815 62.7406C28.6235 62.5563 29.102 62.4761 29.5799 62.5061C30.0579 62.5362 30.5225 62.6758 30.938 62.914C31.0994 63.0068 31.2795 63.0624 31.4652 63.0766C31.6508 63.0908 31.8373 63.0634 32.011 62.9963C32.1847 62.9292 32.3412 62.8242 32.469 62.6888C32.5969 62.5535 32.693 62.3913 32.7501 62.214C33.1409 60.9927 33.986 59.9683 35.1106 59.3524C36.2351 58.7366 37.5533 58.5765 38.7926 58.9052C40.0318 59.2339 41.0975 60.0262 41.7692 61.1185C42.441 62.2107 42.6674 63.5193 42.4019 64.7739C42.3665 64.9442 42.367 65.12 42.4034 65.2901C42.4398 65.4602 42.5113 65.6208 42.6133 65.7617C42.7154 65.9026 42.8457 66.0206 42.9959 66.1082C43.1462 66.1959 43.313 66.2512 43.4859 66.2706C44.2778 66.362 45.0048 66.7528 45.5181 67.3629C46.0314 67.9729 46.2921 68.7562 46.2469 69.5522C46.2017 70.3483 45.854 71.0969 45.2749 71.6449C44.6958 72.1929 43.9292 72.4988 43.132 72.5Z" fill="#BBBBBB"/>
<path d="M5.01429 59.9995C5.70451 59.9995 6.26405 59.44 6.26405 58.7498C6.26405 58.0595 5.70451 57.5 5.01429 57.5C4.32406 57.5 3.76453 58.0595 3.76453 58.7498C3.76453 59.44 4.32406 59.9995 5.01429 59.9995Z" fill="#BBBBBB"/>
<path d="M51.2555 54.9995C51.9457 54.9995 52.5053 54.44 52.5053 53.7498C52.5053 53.0595 51.9457 52.5 51.2555 52.5C50.5653 52.5 50.0057 53.0595 50.0057 53.7498C50.0057 54.44 50.5653 54.9995 51.2555 54.9995Z" fill="#BBBBBB"/>
</svg>
