<svg width="128" height="28" viewBox="0 0 128 28" fill="none" xmlns="http://www.w3.org/2000/svg">
<g clip-path="url(#clip0)">
<path d="M127.439 0H80.5311V16.7276H127.439V0Z" fill="#FFCC00"/>
<path d="M19.2267 19.4939V26.6288H14.3578V23.5468H4.86111V26.6288L0 26.6827V19.5479H1.84333V15.0096C1.79793 13.6284 2.12836 12.2605 2.8 11.0492C3.43595 9.95463 4.38626 9.07221 5.53 8.51428C6.79214 7.90886 8.1801 7.60536 9.58222 7.62821C10.9812 7.59392 12.3689 7.88417 13.6344 8.47576C14.7818 9.02707 15.7375 9.90414 16.38 10.9953C17.0582 12.2052 17.3991 13.5721 17.3678 14.9557V19.4785L19.2267 19.4939ZM12.0711 19.4939V14.5242C12.1208 13.8002 11.8805 13.086 11.4022 12.5363C11.1639 12.3108 10.8816 12.1357 10.5727 12.0218C10.2638 11.9078 9.93476 11.8575 9.60556 11.8737C9.27618 11.8573 8.94698 11.9091 8.63896 12.0259C8.33095 12.1426 8.05089 12.3217 7.81667 12.5517C7.58139 12.8228 7.40255 13.1373 7.29042 13.4772C7.1783 13.817 7.13511 14.1755 7.16333 14.5319V19.5093L12.0711 19.4939Z" fill="white"/>
<path d="M33.7789 18.6075H25.2233C25.3932 19.0513 25.7117 19.4239 26.1256 19.6631C26.6034 19.9159 27.1396 20.0407 27.6811 20.0252C28.1437 20.0366 28.6046 19.9662 29.0422 19.8172C29.4746 19.6474 29.8785 19.4136 30.24 19.1237L32.9078 21.7742C31.71 23.0841 29.9133 23.7467 27.5333 23.7467C26.1947 23.787 24.8645 23.5235 23.6445 22.9762C22.5626 22.487 21.6448 21.7009 21 20.711C20.3995 19.7279 20.082 18.6008 20.082 17.4517C20.082 16.3027 20.3995 15.1756 21 14.1925C21.6071 13.229 22.4711 12.4504 23.4967 11.9427C24.5845 11.4164 25.7766 11.1359 26.9871 11.1212C28.1975 11.1066 29.3962 11.3582 30.4967 11.8579C31.5088 12.3272 32.3623 13.0764 32.9544 14.0153C33.5879 15.0384 33.9093 16.2211 33.88 17.4209C33.8411 17.498 33.8178 17.8909 33.7789 18.6075ZM25.7989 14.9938C25.4377 15.2967 25.1977 15.7176 25.1222 16.1804H29.0889C29.0056 15.7164 28.764 15.2948 28.4045 14.9861C28.0287 14.7067 27.5715 14.5556 27.1017 14.5556C26.6318 14.5556 26.1747 14.7067 25.7989 14.9861V14.9938Z" fill="white"/>
<path d="M46.4489 18.1991C46.8147 18.6509 47.01 19.215 47.0011 19.7941C47.0078 20.1984 46.9321 20.6 46.7784 20.9747C46.6247 21.3494 46.3962 21.6895 46.1067 21.9746C45.4255 22.6228 44.5912 23.0917 43.68 23.3384C42.576 23.6571 41.4311 23.8154 40.2811 23.8084C38.3179 23.833 36.3653 23.5202 34.51 22.8838L35.7778 19.5552C37.1753 20.0343 38.6469 20.2664 40.1256 20.2409C40.5656 20.2567 41.0044 20.186 41.4167 20.0329C41.5523 19.9921 41.6714 19.9097 41.7566 19.7975C41.8419 19.6853 41.889 19.5492 41.8911 19.4088C41.9007 19.3139 41.8857 19.2181 41.8476 19.1305C41.8095 19.0429 41.7495 18.9663 41.6733 18.908C41.449 18.7903 41.1951 18.7394 40.9422 18.7616H38.1111V15.9647H40.4445C40.7289 15.9844 41.0135 15.9285 41.2689 15.8029C41.3552 15.7483 41.4248 15.6713 41.4701 15.5803C41.5153 15.4893 41.5345 15.3877 41.5256 15.2866C41.5257 15.1719 41.4909 15.0597 41.4257 14.9649C41.3605 14.87 41.2679 14.7969 41.16 14.755C40.7641 14.6137 40.3434 14.5534 39.9233 14.5778C38.5785 14.6255 37.2499 14.8856 35.9878 15.3483L34.8445 12.1584C36.5745 11.4586 38.4205 11.0824 40.2889 11.0489C41.8547 10.9871 43.4132 11.2906 44.8389 11.9349C45.3654 12.147 45.8165 12.5093 46.135 12.9756C46.4535 13.442 46.625 13.9916 46.6278 14.5547C46.6288 15.0894 46.4631 15.6115 46.1533 16.0494C45.8287 16.5212 45.3902 16.9053 44.8778 17.1667C45.4864 17.363 46.0296 17.72 46.4489 18.1991Z" fill="white"/>
<path d="M59.0567 12.4819C60.1974 13.4373 60.773 14.9115 60.7834 16.9045V23.4615H56.07V21.8665C55.4867 23.0916 54.3278 23.7003 52.5856 23.708C51.7279 23.7355 50.8756 23.564 50.0967 23.2072C49.4635 22.921 48.9282 22.4581 48.5566 21.875C48.185 21.292 47.9931 20.6143 48.0045 19.9249C47.9735 19.3877 48.085 18.8519 48.3278 18.3707C48.5707 17.8895 48.9365 17.4796 49.3889 17.1819C50.6754 16.4629 52.1464 16.1334 53.62 16.2342H55.6734C55.5022 15.2788 54.7245 14.8088 53.34 14.8088C52.7679 14.8178 52.1998 14.906 51.6522 15.0707C51.1279 15.2235 50.6335 15.4632 50.19 15.7796L48.5567 12.4587C49.3516 11.9911 50.2148 11.648 51.1156 11.4417C52.0885 11.1917 53.0894 11.0649 54.0945 11.0641C56.2619 11.0539 57.9159 11.5264 59.0567 12.4819ZM55.0745 20.3718C55.3756 20.1583 55.5971 19.8522 55.7045 19.5011V18.6536H54.4445C53.41 18.6536 52.8889 19.0003 52.8889 19.686C52.887 19.8197 52.9153 19.952 52.9719 20.0734C53.0284 20.1947 53.1117 20.3019 53.2156 20.3872C53.4706 20.582 53.7887 20.6779 54.11 20.6569C54.4538 20.6653 54.7915 20.5655 55.0745 20.3718Z" fill="white"/>
<path d="M76.44 11.2183L71.4156 23.6773C70.9671 25.0056 70.1307 26.1721 69.0122 27.0289C67.9603 27.6964 66.7298 28.0346 65.4811 27.9998C64.7773 28.0102 64.0756 27.922 63.3967 27.7378C62.7976 27.5944 62.2341 27.3323 61.74 26.9673L63.42 23.5078C63.6828 23.7037 63.9739 23.8596 64.2833 23.9701C64.5833 24.0861 64.9024 24.1461 65.2245 24.1473C65.4584 24.1645 65.6933 24.1291 65.9115 24.0437C66.1297 23.9583 66.3256 23.8251 66.4845 23.6541L61.2656 11.3261H66.4922L69.0511 17.86L71.6256 11.3184L76.44 11.2183Z" fill="white"/>
<path d="M88.7756 11.727C89.6938 12.2515 90.4455 13.0202 90.9456 13.946C91.4883 14.9768 91.7561 16.1279 91.7233 17.29C91.7565 18.4497 91.4887 19.5984 90.9456 20.6263C90.4509 21.5489 89.7044 22.3152 88.7911 22.8376C87.8853 23.353 86.8568 23.6191 85.8122 23.6081C84.6775 23.6801 83.5598 23.3064 82.7011 22.5679V27.7226L77.6222 27.738L77.5756 11.2108H82.4133V12.2124C82.8525 11.7773 83.3817 11.4417 83.9645 11.2289C84.5473 11.016 85.1697 10.931 85.7889 10.9796C86.8339 10.9606 87.865 11.2187 88.7756 11.727ZM86.0378 19.0622C86.4382 18.5658 86.6378 17.9396 86.5978 17.3054C86.6355 16.6632 86.4335 16.0297 86.03 15.5256C85.8524 15.3217 85.631 15.1598 85.382 15.0518C85.133 14.9438 84.8628 14.8924 84.5911 14.9015C84.318 14.8926 84.0464 14.9456 83.7971 15.0565C83.5477 15.1673 83.3272 15.333 83.1522 15.541C82.7481 16.0414 82.5482 16.6738 82.5922 17.3131C82.5505 17.9488 82.7534 18.5764 83.16 19.0699C83.3429 19.2675 83.5652 19.4252 83.8129 19.5331C84.0607 19.6411 84.3283 19.6968 84.5989 19.6968C84.8695 19.6968 85.1371 19.6411 85.3849 19.5331C85.6326 19.4252 85.8549 19.2675 86.0378 19.0699V19.0622Z" fill="white"/>
<path d="M106.804 11.1338L101.772 23.5928C101.333 24.9303 100.499 26.1061 99.3767 26.9676C98.3247 27.635 97.0943 27.9733 95.8456 27.9384C95.1406 27.9349 94.4393 27.8364 93.7611 27.6456C93.1621 27.502 92.5986 27.2399 92.1044 26.8751L93.7845 23.4156C94.0489 23.6111 94.3394 23.7693 94.6478 23.8856C94.9463 23.9972 95.2621 24.0571 95.5811 24.0628C95.8157 24.0791 96.0509 24.0425 96.2692 23.9557C96.4874 23.869 96.683 23.7344 96.8411 23.562L91.63 11.234H96.8567L99.4156 17.7216L101.99 11.18L106.804 11.1338Z" fill="white"/>
<path d="M110.188 22.7452C109.128 22.2515 108.229 21.475 107.59 20.503C106.965 19.524 106.638 18.387 106.649 17.2284C106.628 16.0707 106.95 14.9323 107.574 13.9538C108.207 12.9803 109.101 12.2011 110.157 11.7039C111.329 11.163 112.613 10.8993 113.906 10.9334C115.266 10.8796 116.614 11.2082 117.794 11.8811C118.826 12.4745 119.611 13.411 120.011 14.524L116.076 16.4579C115.928 16.0041 115.643 15.6065 115.259 15.3196C114.874 15.0327 114.41 14.8705 113.929 14.8553C113.649 14.8498 113.371 14.9032 113.114 15.0122C112.856 15.1211 112.625 15.283 112.436 15.4871C112.014 15.9763 111.802 16.6095 111.844 17.2515C111.803 17.8994 112.018 18.5378 112.443 19.0314C112.635 19.2339 112.868 19.3942 113.127 19.5017C113.385 19.6092 113.664 19.6616 113.944 19.6555C114.425 19.636 114.887 19.4702 115.268 19.1806C115.65 18.891 115.932 18.4917 116.076 18.0374L120.027 19.9483C119.636 21.0659 118.856 22.0086 117.826 22.6065C116.658 23.2767 115.325 23.6128 113.976 23.5773C112.665 23.5977 111.367 23.3127 110.188 22.7452Z" fill="white"/>
</g>
<defs>
<clipPath id="clip0">
<rect width="127.431" height="28" fill="white"/>
</clipPath>
</defs>
</svg>
