<svg xmlns="http://www.w3.org/2000/svg" width="512" height="512"><path d="M432 320a80.1 80.1 0 00-73.252 47.893l-192.669-62.335L110.094 161.6 10.53 128.411a8 8 0 10-5.06 15.178L97.906 174.4 152.2 314.017l20.81 152.609c1.753 14.05 21.949 17.735 28.279 4.682l59.2-118.39 93.325 30.193C342.922 431.884 381.282 480 432 480a80 80 0 000-160zM188.427 461.257l-18.781-137.728 75.442 24.407zM432 464a63.952 63.952 0 01-62.868-75.932l15.378 4.976a48.07 48.07 0 104.94-15.218l-15.387-4.978A63.993 63.993 0 11432 464zm2.462-71.611L405 382.857a31.979 31.979 0 11-4.937 15.219c2.013.478 29.884 9.924 31.937 9.924a8 8 0 002.461-15.613z"/><path d="M144 208h1.307l31.547 81.129a8 8 0 004.993 4.712l159.69 51.67a8.014 8.014 0 008.155-1.99L483.543 208H488c10.069.084 10.373-16.089 0-16h-20.253l-59.231-71.081a8 8 0 00-12.292 10.242L446.92 192H183.471l89.478-126.317a41.951 41.951 0 0166.533-2.614l5.57 6.69c6.448 7.88 18.942-2.394 12.3-10.238l-5.573-6.693c-24.553-29.461-70.026-27.258-91.883 3.608L163.863 192H144a8 8 0 000 16zm317.055 0l-15.8 16H392a8 8 0 000 16h37.449l-87.677 88.771-151.383-48.982L174.917 240H360a8 8 0 000-16H168.7l-6.222-16c5.022-.011 293.107-.011 298.577 0z"/><circle cx="376" cy="96" r="8"/></svg>