<svg xmlns="http://www.w3.org/2000/svg" width="512" height="512"><g data-name="Planting"><path d="M372.52 286.227l-33.943-33.944a8 8 0 00-11.314 0c-77.421 77.649-74.735 74.218-79.439 80.121-6.643 8.335 6.028 18.108 12.512 9.972 3.843-4.822 1.794-2.152 72.584-73.123l28.287 28.287-16.744 16.743a8.01 8.01 0 005.657 13.657c5.977 0 2.994-.927 62-58.685l22.627 22.627-96.161 96.168a16.01 16.01 0 01-24.753-20.034 8 8 0 10-13.407-8.732c-13.656 20.969 1.2 49.435 26.838 49.434a31.931 31.931 0 0022.633-9.351l56.565-56.567 28.285 28.284-67.884 67.883a65.081 65.081 0 01-36.044 18.317 8 8 0 002.642 15.78 80.776 80.776 0 0044.716-22.783l73.54-73.54a8 8 0 000-11.314l-33.942-33.941c70.8-70.8 34.5-34.506 84.852-84.855A31.789 31.789 0 00512 224c0-28.731-34.717-42.538-54.627-22.627-45.28 45.279-7.207 7.204-84.853 84.854zm96.166-73.541a16 16 0 0122.628 22.628l-45.255 45.255-22.628-22.628zM69.443 363.924c4.258-1.465 8.791-2.771 13.472-3.9C102.1 360.536 112 376.935 112 384a8 8 0 008 8c17.237 0 5.259-39.459-27.472-46.832C110.6 298.8 163.347 304.287 164.447 304A130.84 130.84 0 00160 336c0 7.718 8.7 8.308 8 8a8 8 0 008-7.991c0-.221.118-22.2 7.088-36.287 23.738-42.847 68.663-51.656 105.473-37.961a8 8 0 005.579-15 108.006 108.006 0 00-30.14-6.456v-68.417l37.612-29.553c22.146 21.507 50.569 12.845 74.866-6.249 33.772-26.54 49.387-90.6 50.036-93.312a8 8 0 00-7.748-9.858c-2.78-.012-68.723.016-102.5 26.557-23.654 18.589-39.122 43.665-24.4 70.166L264 151.541a142.681 142.681 0 00-10.233-53.973c16.418-17.71 17.774-42.6-10.131-68.669C216.939 3.957 160.475.165 158.084.016a8 8 0 00-8.43 9.024c.311 2.374 7.928 58.45 34.625 83.392 16.209 15.143 36.371 24.979 56.206 15.226 11.241 30.988 6.289 52.28 7.515 86.876l-22.884-12.463c3.907-13.3 2.6-35.007-33.389-54.614-33.172-18.07-88.883-11.13-91.239-10.826a8 8 0 00-6.2 11.376c1.021 2.144 25.406 52.714 58.579 70.783 22.791 12.414 48.555 17.568 64.812-2.548L248 212.753V240.3c-32.4 2.347-59.263 19.03-76.614 47.7-8.263.919-38.669-4.859-67.7 17.031a78.23 78.23 0 00-28.149 40.346 162.16 162.16 0 00-11.3 3.418 8 8 0 105.207 15.129zM326.156 72.053c22.027-17.31 62.7-21.671 81.934-22.768-5.6 18.425-19.43 56.879-41.5 74.221-16.354 12.852-36.4 22.344-52.233 8.815l58.584-46.03a8 8 0 00-9.884-12.582l-58.374 45.865c-8.339-18.274 5.746-35.162 21.473-47.521zm-80.123 9.4a141.448 141.448 0 00-32.911-39.595 8 8 0 00-10.244 12.292 125.329 125.329 0 0131.19 38.84c-13.4 7.079-27.8-1.907-38.866-12.245-16.422-15.345-24.651-47.336-27.923-63.689 16.539 2.154 49.012 8.193 65.434 23.535 12.433 11.615 22.162 26.293 13.32 40.858zm-35.525 92.666l-40.682-22.159a8 8 0 00-7.652 14.052l41.077 22.37c-8.735 8.274-23.06 7.07-42.727-3.643-20.294-11.054-37.751-38.217-46.259-53.228 17.226-.992 49.515-1.057 69.808 10 18.937 10.312 27.782 21.248 26.435 32.604z"/><path d="M488.31 374.046a8 8 0 00-11.263 11.365C518.046 426.275 488.788 496 432 496H80c-41.446 0-73.676-39.236-61.462-83.974A8 8 0 003.1 407.813C-11.976 463.062 28.357 512 80 512h352a80.091 80.091 0 0080-80c0-24.933-9.176-44.808-23.69-57.954z"/><path d="M276 464a8 8 0 00-8 8c0 17.648 44 5.759 44-28a35.963 35.963 0 00-24.043-33.967c2.162-50.822-66.418-69.442-90.28-24.706A36.034 36.034 0 00152 420c0 33.969 44 45.472 44 28a8 8 0 00-8-8 20 20 0 119.943-37.35 8 8 0 0011.6-4.48 32 32 0 0161.783 16.383 8 8 0 006.939 9.579A20 20 0 01276 464z"/><circle cx="32" cy="376" r="8"/><circle cx="328" cy="344" r="8"/></g></svg>