<svg width="26" height="26" fill="none" xmlns="http://www.w3.org/2000/svg"><path d="M18.825 0H7.175C3.219 0 0 3.219 0 7.175v11.65C0 22.78 3.219 26 7.175 26h11.65C22.78 26 26 22.781 26 18.825V7.175C26 3.22 22.781 0 18.825 0zm4.868 18.825a4.874 4.874 0 01-4.868 4.868H7.175a4.874 4.874 0 01-4.868-4.868V7.175a4.874 4.874 0 014.868-4.868h11.65a4.874 4.874 0 014.868 4.868v11.65z" fill="#fff"/><path d="M13 6.3A6.707 6.707 0 006.3 13c0 3.694 3.006 6.7 6.7 6.7 3.694 0 6.7-3.006 6.7-6.7 0-3.694-3.006-6.7-6.7-6.7zm0 11.093A4.398 4.398 0 018.607 13 4.398 4.398 0 0113 8.607 4.398 4.398 0 0117.393 13 4.398 4.398 0 0113 17.393zm6.98-13.048c-.444 0-.88.18-1.194.495a1.7 1.7 0 00-.497 1.196c0 .445.181.882.497 1.197a1.7 1.7 0 001.194.495c.447 0 .882-.181 1.197-.495.315-.315.495-.752.495-1.197a1.7 1.7 0 00-.495-1.196 1.699 1.699 0 00-1.197-.495z" fill="#fff"/></svg>