<svg width="26" height="26" fill="none" xmlns="http://www.w3.org/2000/svg"><path fill-rule="evenodd" clip-rule="evenodd" d="M22.212 3.778A12.893 12.893 0 0013.054 0C5.92 0 .111 5.78.11 12.883a12.814 12.814 0 001.728 6.44L0 26l6.863-1.792a12.983 12.983 0 006.186 1.569h.006c7.134 0 12.942-5.78 12.945-12.884a12.774 12.774 0 00-3.788-9.115zm-9.158 19.823h-.004a10.789 10.789 0 01-5.477-1.493l-.392-.232-4.073 1.063 1.087-3.951-.256-.406a10.644 10.644 0 01-1.645-5.699C2.297 6.98 7.124 2.176 13.06 2.176a10.71 10.71 0 017.607 3.14 10.62 10.62 0 013.148 7.576c-.002 5.905-4.829 10.709-10.76 10.709zm5.902-8.02c-.323-.162-1.913-.94-2.21-1.048-.296-.107-.512-.16-.727.162-.216.322-.836 1.047-1.025 1.262-.189.214-.377.241-.7.08-.324-.16-1.366-.501-2.602-1.598-.962-.853-1.61-1.908-1.8-2.23-.188-.322-.001-.48.143-.657.35-.432.7-.886.808-1.1.108-.216.054-.404-.027-.565-.08-.16-.728-1.745-.997-2.39-.263-.628-.53-.543-.728-.553a12.98 12.98 0 00-.62-.01c-.216 0-.566.08-.863.402-.296.322-1.132 1.101-1.132 2.685 0 1.585 1.16 3.116 1.321 3.33.162.215 2.281 3.467 5.526 4.861.772.332 1.374.53 1.844.679.775.245 1.48.21 2.037.127.622-.092 1.914-.779 2.184-1.53.27-.753.27-1.397.188-1.531-.08-.135-.296-.215-.62-.376z" fill="#fff"/></svg>