<svg width="23" height="26" fill="none" xmlns="http://www.w3.org/2000/svg"><path d="M15.766 17.178c2.767-4.34 2.42-3.8 2.499-3.913a8.316 8.316 0 001.54-4.835c0-4.622-3.751-8.43-8.38-8.43-4.612 0-8.378 3.8-8.378 8.43a8.36 8.36 0 001.584 4.897l2.454 3.852C4.461 17.582 0 18.784 0 21.429c0 .965.63 2.34 3.629 3.411 2.094.748 4.863 1.16 7.797 1.16 5.485 0 11.426-1.547 11.426-4.57 0-2.647-4.456-3.847-7.086-4.252zM5.903 12.49A6.835 6.835 0 014.57 8.43c0-3.809 3.068-6.906 6.856-6.906 3.78 0 6.855 3.099 6.855 6.907a6.801 6.801 0 01-1.251 3.944c-.074.097.31-.498-5.604 8.78L5.903 12.49zm5.523 11.988c-5.992 0-9.903-1.762-9.903-3.047 0-.864 2.01-2.285 6.462-2.839l2.798 4.39a.762.762 0 001.285 0l2.798-4.39c4.453.554 6.462 1.975 6.462 2.839 0 1.274-3.875 3.047-9.902 3.047z" fill="#fff"/><path d="M11.426 5.383A3.813 3.813 0 007.617 9.19c0 2.1 1.709 3.809 3.809 3.809s3.808-1.709 3.808-3.809-1.708-3.808-3.808-3.808zm0 6.094A2.288 2.288 0 019.14 9.19a2.288 2.288 0 012.285-2.285A2.288 2.288 0 0113.71 9.19a2.288 2.288 0 01-2.285 2.286z" fill="#fff"/></svg>