<svg width="26" height="26" fill="none" xmlns="http://www.w3.org/2000/svg"><path d="M22.105 15.802c-1.48 0-2.93-.231-4.306-.686-.67-.23-1.431-.053-1.873.397L13.2 17.57c-3.125-1.668-5.126-3.667-6.773-6.772l2.002-2.66A1.912 1.912 0 008.9 6.206a13.737 13.737 0 01-.688-4.311A1.9 1.9 0 006.316 0H1.895C.85 0 0 .85 0 1.895 0 14.083 9.917 24 22.105 24 23.15 24 24 23.15 24 22.105v-4.408c0-1.045-.85-1.895-1.895-1.895zm.632 6.303a.633.633 0 01-.632.632c-11.492 0-20.842-9.35-20.842-20.842 0-.349.284-.632.632-.632h4.42c.348 0 .632.283.632.632a15 15 0 00.748 4.699c.073.236.014.48-.217.72l-2.299 3.044a.631.631 0 00-.058.667c1.873 3.68 4.148 5.956 7.854 7.854a.629.629 0 00.668-.058l3.11-2.357a.634.634 0 01.643-.15c1.511.499 3.095.751 4.71.751.347 0 .631.283.631.632v4.408z" fill="#fff"/></svg>