<svg width="80" height="80" fill="none" xmlns="http://www.w3.org/2000/svg"><path d="M38.016 28.88a1.25 1.25 0 001.596-.758l8.372-23.584 2.68-1.15-6.547 26.476a1.25 1.25 0 102.427.6l7.15-28.915A1.25 1.25 0 0051.99.101c-5.333 2.425-5.86 2.186-6.179 3.085l-8.554 24.099a1.25 1.25 0 00.76 1.596z" fill="#BBB"/><path d="M78.448 26.419l-13.91 3.47a1.25 1.25 0 00.606 2.425l11.475-2.863-1.15 2.705-32.96 11.8c-7.107-4.668-6.784-4.727-7.446-4.732l-6.564-.055-.616-2.492 10.067-2.511c8.148 2.831 7.851 2.974 8.502 2.811l6.563-1.637a1.252 1.252 0 00.916-1.517 1.25 1.25 0 00-1.521-.908l-6.197 1.545c-8.148-2.83-7.85-2.973-8.502-2.81l-10.43 2.6a1.247 1.247 0 00-1.501-.857l-22.126 5.52c-4.164 1.037-4.994 6.63-1.321 8.841a4.792 4.792 0 003.656.548l22.12-5.518a1.25 1.25 0 00.943-1.112l5.616.047 4.077 2.726v6.726a1.249 1.249 0 00-1.36.94l-5.412 21.884c-1.025 4.146 3.495 7.515 7.17 5.304a4.8 4.8 0 002.196-2.98l5.411-21.877a1.249 1.249 0 00-.858-1.497l2.049-8.28c30.01-10.9 29.21-10.073 29.616-11.03l2.344-5.516a1.25 1.25 0 00-1.453-1.701zM3.622 45.614A2.323 2.323 0 012.56 44.17a2.343 2.343 0 011.7-2.833l20.91-5.217 1.123 4.54C4.486 45.855 5.095 46.5 3.623 45.613zm34.23 31.545c-1.758 1.057-3.951-.54-3.451-2.563l5.111-20.668 4.512 1.125c-5.544 21.422-4.697 21.218-6.172 22.106zm5.616-24.821l-2.223-.554v-5.666l.398.266c.909.608 1.727-.254 3.472-.706l-1.647 6.66z" fill="#BBB"/><path d="M41.245 39.996a1.25 1.25 0 100-2.5 1.25 1.25 0 000 2.5zm17.503-6.249a1.25 1.25 0 100-2.5 1.25 1.25 0 000 2.5z" fill="#BBB"/></svg>