<svg xmlns="http://www.w3.org/2000/svg" width="512" height="512"><circle cx="72" cy="320" r="8"/><circle cx="88" cy="288" r="8"/><circle cx="104" cy="336" r="8"/><circle cx="88" cy="256" r="8"/><circle cx="120" cy="256" r="8"/><circle cx="160" cy="232" r="8"/><circle cx="168" cy="264" r="8"/><circle cx="136" cy="288" r="8"/><circle cx="160" cy="320" r="8"/><circle cx="184" cy="344" r="8"/><circle cx="8" cy="504" r="8"/><circle cx="504" cy="504" r="8"/><path d="M469.453 280.271c46.583-70.367-57.19-144.7-110.19-79.33-52.239-9.04-93.647 43.364-74.794 91.68-28.76 35.333-5.081 91.373 43.4 91.379h32v29.394l-45.8-13.086a8 8 0 10-4.4 15.384l11.815 3.376-15.274 15.275a8 8 0 0011.314 11.314l21.561-21.56 20.782 5.938v22.188A49.6 49.6 0 01333.91 496H177.962A49.6 49.6 0 01152 452.223V384h31.873c53.03 0 76.423-75.855 29.58-103.729 46.505-70.247-57.058-144.867-110.191-79.33-52.233-9.036-93.649 43.361-74.793 91.68-27.037 33.218-7.818 85.285 35.911 90.894 3.954 39.638 34.59 54.924 39.62 60.33-.56 2.456 4.888 35.331-25.962 52.155H40a8 8 0 000 16h432a8 8 0 000-16h-38.165a49.6 49.6 0 01-25.962-43.777V384h32c53.042 0 76.406-75.862 29.58-103.729zM43.525 299.783a8 8 0 001.53-9.131c-18.678-38.567 15.953-84.135 59.549-73.077a8 8 0 008.5-3.138c40.607-57.485 130.211 6.406 82.009 63.661a8 8 0 003.3 12.637C240.017 306.428 223.27 368 183.873 368h-112c-36.742 0-52.405-44.045-28.348-68.217zM80.563 384H104v39.355A58.828 58.828 0 0180.563 384zm22.859 112A65.567 65.567 0 00120 452.223V384h16v68.223A65.567 65.567 0 00152.578 496zm305.029 0H359.3a65.567 65.567 0 0016.578-43.777V384h16v68.223A65.567 65.567 0 00408.451 496zm31.422-128h-112c-36.745 0-52.406-44.044-28.35-68.217a8 8 0 001.531-9.13c-18.679-38.57 15.955-84.136 59.549-73.078a8 8 0 008.5-3.138c28.17-39.877 79.362-21.444 92.792 12.606 6.625 16.8 2.794 34.927-10.784 51.055a8 8 0 003.3 12.637C495.968 306.409 479.305 368 439.873 368z"/><circle cx="327.873" cy="320" r="8"/><circle cx="343.873" cy="288" r="8"/><circle cx="359.873" cy="336" r="8"/><circle cx="343.873" cy="256" r="8"/><circle cx="375.873" cy="256" r="8"/><circle cx="415.873" cy="232" r="8"/><circle cx="423.873" cy="264" r="8"/><circle cx="391.873" cy="288" r="8"/><circle cx="415.873" cy="320" r="8"/><circle cx="439.873" cy="344" r="8"/><path d="M440 112a40 40 0 10-40-40 40.045 40.045 0 0040 40zm0-64a24 24 0 11-24 24 24.028 24.028 0 0124-24z"/><circle cx="440" cy="8" r="8"/><circle cx="504" cy="72" r="8"/><circle cx="376" cy="72" r="8"/><circle cx="88" cy="24" r="8"/><circle cx="440" cy="136" r="8"/><circle cx="394.745" cy="26.745" r="8"/><circle cx="485.255" cy="117.255" r="8"/><circle cx="485.255" cy="26.745" r="8"/><circle cx="394.745" cy="117.255" r="8"/><path d="M40 64h104.57A56.09 56.09 0 00200 112h104.165c39.765 0 42.348-64.387-.165-64h-96.8A40.071 40.071 0 00168 16h-48a8 8 0 000 16h48a24.028 24.028 0 0124 24 8 8 0 008 8h104.057c21.116-.164 19.027 32-.057 32H200a40.046 40.046 0 01-40-40 8 8 0 00-8-8H40.017c-10.11-.021-10.829-15.943-.017-16h16a8 8 0 000-16H39.958C7.91 16.166 8.852 63.933 40 64zm-16 80h48a24 24 0 000-48H24a24 24 0 000 48zm0-32h48a8 8 0 010 16H24a8 8 0 010-16z"/></svg>