<svg height="512" width="512" xmlns="http://www.w3.org/2000/svg"><path d="M472.273 236.043l-48.913 48.9-10.506-10.508 48.9-48.912c21.425-21.481-11.032-55.249-33.134-33.144L379.711 241.3 369.2 230.781l48.905-48.9c21.441-21.49-11.039-55.237-33.134-33.144l-49.861 49.86a8 8 0 1011.315 11.314l49.859-49.86a7.446 7.446 0 0112.687 5.258c0 5.782-1.819 3.839-56.741 59.818a8 8 0 000 11.313c3.715 3.715 22.809 24.174 27.479 24.174 5.945 0 2.952-.814 60.228-56.913a7.44 7.44 0 0112.684 5.258c0 5.78-1.791 3.811-56.739 59.829a8 8 0 000 11.313l21.82 21.82a8 8 0 0011.314 0l54.584-54.573a7.436 7.436 0 0112.679 5.262c0 5.829.669 1.311-100.393 103.474a68.864 68.864 0 01-70.571 16.807l38.34-38.341c29.221-29.928-15.37-72.35-44.053-44.053l-38.324 38.324a69.571 69.571 0 0110.028-62.7 8 8 0 00-12.864-9.514 85.665 85.665 0 00-9.56 84.613L254.2 355.894a7.987 7.987 0 00-11.1.19l-63.686 63.687c-35.964 7.277-49.983 52.221-23.619 78.585 26.11 26.11 71.224 12.757 78.586-23.619l63.685-63.686a7.993 7.993 0 00.191-11.1l14.688-14.688A84.8 84.8 0 00407.2 367.4l98.219-98.22c21.376-21.44-11.048-55.315-33.146-33.137zM219.008 469.748c-3.5 24.6-33.926 35.269-51.9 17.294-17.893-17.893-7.37-48.4 17.3-51.9 4.895-.695 2.757-1.272 64.353-62.085l32.339 32.339c-62.515 63.311-61.407 59.529-62.092 64.352zm67.942-81.124L265.524 367.2l65.388-65.387c13.353-13.353 35.935 6.916 21.425 21.426z"/><circle cx="188.732" cy="465.416" r="8"/><path d="M156.383 219.138l10.517-10.521c32.9 31.749 32.3 34.883 38.2 34.883 6.309 0 3.254-1.186 76.6-73.283 52.879-51.981 59.967-117.6 39.629-156.671-2.953-5.674-41.813-24.915-95.72-5.963-9.23 3.245-4.941 18.7 5.307 15.094 38.095-13.391 68.772-2.913 77.275.612 15.347 36.824 9.172 88.637-37.805 135.614L205.1 224.186 178.217 197.3l43.563-43.563c29.21-29.924-15.36-72.353-44.053-44.053l-43.562 43.563-26.881-26.877 61.283-61.283c6.954-6.966-3.722-19.066-11.314-11.314l-66.94 66.94a8 8 0 000 11.314l32.538 32.537-10.521 10.522a7.993 7.993 0 00-11.1.19l-63.689 63.685c-36.065 7.3-49.952 52.255-23.62 78.586 26.111 26.11 71.224 12.756 78.586-23.619l63.685-63.686a8 8 0 00.191-11.104zm-79.246 69.8c-3.513 24.722-34.04 35.156-51.9 17.3a30.566 30.566 0 010-43.252c10.022-10.023 17.674-6.76 21.827-10.913l59.821-59.822 32.339 32.339c-62.51 63.31-61.402 59.525-62.087 64.348zm46.516-102.549c22.108-22.106 14.757-14.7 16.273-16.273 49.163-47.216 48.888-53.507 59.719-53.507 13.227 0 20.322 16.318 10.821 25.819l-65.387 65.387z"/><circle cx="46.578" cy="284.324" r="8"/><circle cx="192" cy="32" r="8"/><circle cx="312" cy="232" r="8"/></svg>