<svg width="80" height="70" fill="none" xmlns="http://www.w3.org/2000/svg"><path d="M67.502 45a12.514 12.514 0 00-11.444 7.482l-30.1-9.738-8.747-22.49-15.554-5.185a1.249 1.249 0 10-.79 2.37l14.44 4.814 8.482 21.812 3.252 23.842c.273 2.195 3.429 2.77 4.418.732l9.248-18.496 14.58 4.717c-1.702 7.62 4.291 15.136 12.215 15.136a12.499 12.499 0 000-24.996zM29.449 67.068l-2.934-21.517 11.786 3.813-8.852 17.704zm38.053.429a9.99 9.99 0 01-9.822-11.863l2.403.778a7.51 7.51 0 10.771-2.378l-2.404-.778a9.997 9.997 0 119.052 14.24zm.385-11.188l-4.603-1.489a4.995 4.995 0 11-.772 2.378c.315.074 4.67 1.55 4.99 1.55a1.25 1.25 0 00.384-2.44v.001z" fill="#BBB"/><path d="M22.508 27.503h.205l4.928 12.674a1.25 1.25 0 00.78.736l24.948 8.073a1.252 1.252 0 001.274-.311l20.911-21.172h.697c1.573.013 1.62-2.514 0-2.5h-3.165l-9.253-11.105a1.25 1.25 0 00-1.92 1.6l7.92 9.505H28.675L42.654 5.27a6.554 6.554 0 0110.394-.408l.87 1.045c1.008 1.23 2.96-.374 1.922-1.6l-.87-1.045c-3.837-4.603-10.94-4.259-14.355.563L25.61 25.004h-3.103a1.25 1.25 0 000 2.499zm49.533 0l-2.468 2.5h-8.32a1.25 1.25 0 100 2.499h5.85L53.406 46.37l-23.65-7.652-2.418-6.216h28.916a1.25 1.25 0 000-2.5H26.367l-.972-2.5h46.646z" fill="#BBB"/><path d="M58.753 11.255a1.25 1.25 0 100-2.5 1.25 1.25 0 000 2.5z" fill="#BBB"/></svg>