<svg width="80" height="80" fill="none" xmlns="http://www.w3.org/2000/svg"><path d="M73.793 36.882l-7.643 7.64-1.642-1.642 7.641-7.642c3.348-3.357-1.724-8.633-5.177-5.179l-7.642 7.644-1.642-1.644 7.641-7.64c3.35-3.358-1.725-8.63-5.177-5.179l-7.791 7.79a1.25 1.25 0 101.768 1.768l7.79-7.79a1.164 1.164 0 011.983.822c0 .903-.284.6-8.866 9.346a1.25 1.25 0 000 1.768c.58.58 3.564 3.777 4.294 3.777.928 0 .46-.127 9.41-8.893a1.163 1.163 0 011.982.822c0 .903-.28.595-8.865 9.348a1.25 1.25 0 000 1.768l3.409 3.41a1.25 1.25 0 001.768 0l8.529-8.528a1.162 1.162 0 011.98.822c0 .911.105.205-15.686 16.168a10.76 10.76 0 01-11.026 2.626l5.99-5.99c4.566-4.677-2.401-11.305-6.883-6.884l-5.988 5.988a10.872 10.872 0 011.567-9.797 1.25 1.25 0 00-2.01-1.486 13.386 13.386 0 00-1.494 13.22l-2.294 2.293a1.248 1.248 0 00-1.735.03l-9.95 9.951c-5.62 1.137-7.81 8.16-3.691 12.28 4.08 4.079 11.129 1.992 12.28-3.691l9.95-9.951a1.25 1.25 0 00.03-1.735l2.295-2.295a13.25 13.25 0 0014.727-2.79l15.347-15.348c3.34-3.35-1.726-8.643-5.18-5.177zM34.22 73.398c-.547 3.844-5.3 5.51-8.11 2.702-2.795-2.795-1.15-7.562 2.704-8.11.765-.108.43-.198 10.055-9.7l5.053 5.053c-9.768 9.892-9.595 9.301-9.702 10.055zm10.616-12.675l-3.348-3.348 10.217-10.217c2.087-2.086 5.615 1.08 3.348 3.348L44.836 60.722z" fill="#BBB"/><path d="M29.49 73.971a1.25 1.25 0 100-2.5 1.25 1.25 0 000 2.5zM24.435 34.24l1.643-1.644c5.14 4.961 5.047 5.45 5.969 5.45.986 0 .508-.184 11.969-11.45 8.262-8.122 9.37-18.375 6.192-24.48-.462-.886-6.534-3.892-14.957-.931-1.442.507-.772 2.922.83 2.358 5.952-2.092 10.745-.455 12.074.096 2.398 5.754 1.433 13.85-5.907 21.19l-10.201 10.2-4.2-4.2 6.806-6.808c4.564-4.675-2.4-11.305-6.883-6.883l-6.807 6.807-4.2-4.2 9.576-9.575c1.086-1.089-.582-2.98-1.768-1.768l-10.46 10.46a1.251 1.251 0 000 1.767l5.084 5.084-1.643 1.644a1.249 1.249 0 00-1.735.03l-9.951 9.95c-5.635 1.141-7.805 8.165-3.69 12.28 4.079 4.08 11.128 1.993 12.278-3.69l9.951-9.952a1.25 1.25 0 00.03-1.735zM12.053 45.147c-.55 3.862-5.32 5.493-8.11 2.703a4.775 4.775 0 010-6.758c1.566-1.567 2.762-1.057 3.41-1.706l9.348-9.347 5.053 5.053c-9.767 9.892-9.594 9.3-9.701 10.055zm7.268-16.024c3.454-3.454 2.306-2.297 2.542-2.542 7.682-7.378 7.64-8.36 9.332-8.36 2.066 0 3.175 2.549 1.69 4.033L22.67 32.471l-3.348-3.348z" fill="#BBB"/><path d="M7.278 45.675a1.25 1.25 0 100-2.5 1.25 1.25 0 000 2.5zM30 6.25a1.25 1.25 0 100-2.5 1.25 1.25 0 000 2.5zM48.75 37.5a1.25 1.25 0 100-2.5 1.25 1.25 0 000 2.5z" fill="#BBB"/></svg>