<svg width="80" height="80" fill="none" xmlns="http://www.w3.org/2000/svg"><path d="M11.25 51.25a1.25 1.25 0 100-2.5 1.25 1.25 0 000 2.5zm2.5-5a1.25 1.25 0 100-2.5 1.25 1.25 0 000 2.5zm2.5 7.5a1.25 1.25 0 100-2.5 1.25 1.25 0 000 2.5zm-2.5-12.5a1.25 1.25 0 100-2.5 1.25 1.25 0 000 2.5zm5 0a1.25 1.25 0 100-2.5 1.25 1.25 0 000 2.5zM25 37.5a1.25 1.25 0 100-2.5 1.25 1.25 0 000 2.5zm1.25 5a1.25 1.25 0 100-2.5 1.25 1.25 0 000 2.5zm-5 3.75a1.25 1.25 0 100-2.5 1.25 1.25 0 000 2.5zm3.75 5a1.25 1.25 0 100-2.5 1.25 1.25 0 000 2.5zM28.75 55a1.25 1.25 0 100-2.5 1.25 1.25 0 000 2.5zM1.25 80a1.25 1.25 0 100-2.5 1.25 1.25 0 000 2.5zm77.5 0a1.25 1.25 0 100-2.5 1.25 1.25 0 000 2.5z" fill="#BBB"/><path d="M73.352 43.792c7.279-10.995-8.936-22.609-17.217-12.395-8.163-1.412-14.633 6.776-11.687 14.325-4.493 5.52-.794 14.277 6.782 14.278h5v4.593l-7.157-2.045a1.25 1.25 0 00-.687 2.404l1.846.527-2.387 2.387a1.252 1.252 0 00.406 2.039 1.25 1.25 0 001.362-.271l3.369-3.369 3.247.928v3.467a7.75 7.75 0 01-4.056 6.84H27.807a7.75 7.75 0 01-4.057-6.84V60h4.98c8.286 0 11.941-11.852 4.622-16.208 7.266-10.976-8.915-22.635-17.217-12.395-8.162-1.412-14.633 6.775-11.687 14.325-4.224 5.19-1.221 13.326 5.611 14.202.618 6.194 5.405 8.582 6.191 9.427-.087.383.764 5.52-4.057 8.149H6.25a1.25 1.25 0 000 2.5h67.5a1.25 1.25 0 000-2.5h-5.963a7.75 7.75 0 01-4.057-6.84V60h5c8.288 0 11.939-11.853 4.622-16.208zm-66.551 3.05a1.25 1.25 0 00.239-1.428c-2.919-6.026 2.493-13.146 9.304-11.418a1.25 1.25 0 001.328-.49c6.345-8.982 20.346 1 12.814 9.947a1.251 1.251 0 00.516 1.974c6.5 2.452 3.884 12.073-2.272 12.073h-17.5c-5.74 0-8.188-6.882-4.43-10.659zM12.588 60h3.662v6.15A9.192 9.192 0 0112.588 60zm3.572 17.5a10.245 10.245 0 002.59-6.84V60h2.5v10.66a10.245 10.245 0 002.59 6.84h-7.68zm47.66 0h-7.68a10.244 10.244 0 002.59-6.84V60h2.5v10.66a10.245 10.245 0 002.59 6.84zm4.91-20h-17.5c-5.741 0-8.188-6.882-4.43-10.659a1.25 1.25 0 00.24-1.427c-2.919-6.026 2.493-13.146 9.304-11.418a1.25 1.25 0 001.328-.49c4.402-6.231 12.4-3.35 14.5 1.97 1.034 2.624.436 5.457-1.686 7.977a1.25 1.25 0 00.516 1.974c6.493 2.45 3.89 12.073-2.272 12.073z" fill="#BBB"/><path d="M51.23 51.25a1.25 1.25 0 100-2.5 1.25 1.25 0 000 2.5zm2.5-5a1.25 1.25 0 100-2.5 1.25 1.25 0 000 2.5zm2.5 7.5a1.25 1.25 0 100-2.5 1.25 1.25 0 000 2.5zm-2.5-12.5a1.25 1.25 0 100-2.5 1.25 1.25 0 000 2.5zm5 0a1.25 1.25 0 100-2.5 1.25 1.25 0 000 2.5zm6.25-3.75a1.25 1.25 0 100-2.5 1.25 1.25 0 000 2.5zm1.25 5a1.25 1.25 0 100-2.5 1.25 1.25 0 000 2.5zm-5 3.75a1.25 1.25 0 100-2.5 1.25 1.25 0 000 2.5zm3.75 5a1.25 1.25 0 100-2.5 1.25 1.25 0 000 2.5zM68.73 55a1.25 1.25 0 100-2.5 1.25 1.25 0 000 2.5zm.02-37.5a6.25 6.25 0 10-6.25-6.25 6.257 6.257 0 006.25 6.25zm0-10a3.75 3.75 0 110 7.5 3.75 3.75 0 010-7.5zm0-5a1.25 1.25 0 100-2.5 1.25 1.25 0 000 2.5zm10 10a1.25 1.25 0 100-2.5 1.25 1.25 0 000 2.5zm-20 0a1.25 1.25 0 100-2.5 1.25 1.25 0 000 2.5zm-45-7.5a1.25 1.25 0 100-2.5 1.25 1.25 0 000 2.5zm55 17.5a1.25 1.25 0 100-2.5 1.25 1.25 0 000 2.5zM61.679 5.429a1.25 1.25 0 100-2.5 1.25 1.25 0 000 2.5zm14.142 14.142a1.25 1.25 0 100-2.5 1.25 1.25 0 000 2.5zm0-14.142a1.25 1.25 0 100-2.5 1.25 1.25 0 000 2.5zM61.679 19.571a1.25 1.25 0 100-2.5 1.25 1.25 0 000 2.5z" fill="#BBB"/><path d="M6.25 10h16.339a8.764 8.764 0 008.661 7.5h16.276c6.213 0 6.617-10.06-.026-10H32.375a6.261 6.261 0 00-6.125-5h-7.5a1.25 1.25 0 000 2.5h7.5A3.754 3.754 0 0130 8.75 1.25 1.25 0 0031.25 10h16.259c3.3-.026 2.973 5-.009 5H31.25A6.257 6.257 0 0125 8.75a1.25 1.25 0 00-1.25-1.25H6.253C4.673 7.497 4.56 5.009 6.25 5h2.5a1.25 1.25 0 000-2.5H6.243c-5.007.026-4.86 7.49.007 7.5zm-2.5 12.5h7.5a3.75 3.75 0 000-7.5h-7.5a3.75 3.75 0 000 7.5zm0-5h7.5a1.25 1.25 0 010 2.5h-7.5a1.25 1.25 0 010-2.5z" fill="#BBB"/></svg>