<svg width="80" height="68" fill="none" xmlns="http://www.w3.org/2000/svg"><path d="M33.745 49.56h-3.52a1.14 1.14 0 000 2.28h3.52a1.14 1.14 0 000-2.28z" fill="#BBB"/><path d="M79.017 48.604l-.36-.598a9.38 9.38 0 00-6.192-4.35l-2.942-.584V28.157h7.614a2.846 2.846 0 002.844-2.843V3.119A2.846 2.846 0 0077.137.276H54.942a2.846 2.846 0 00-2.843 2.843v8.42a1.14 1.14 0 102.28 0v-8.42c0-.31.252-.563.563-.563h22.196c.31 0 .564.253.564.563v22.196a.565.565 0 01-.564.564H54.942a.564.564 0 01-.564-.564v-6.367a1.14 1.14 0 10-2.28 0v6.367a2.846 2.846 0 002.844 2.843h8.634V41.89l-1.512-.3c-2.088-.416-4.123-1.676-5.472-2.587l-7.538-5.093a17.22 17.22 0 00-9.674-2.961H25.544c-4.604 0-8.936 1.79-12.197 5.039a14.966 14.966 0 01-7.513 4.055l-1.636.343A5.303 5.303 0 000 45.553v11.038c0 1.316.777 2.513 1.98 3.047l4.54 2.018a7.518 7.518 0 002.075 3.915 7.537 7.537 0 005.346 2.211 7.537 7.537 0 007.274-5.506h37.85a7.512 7.512 0 001.927 3.295 7.512 7.512 0 005.346 2.215c2.02 0 3.918-.787 5.347-2.215a7.512 7.512 0 001.927-3.295h2.162A4.23 4.23 0 0080 58.05v-5.91c0-1.247-.34-2.47-.983-3.536zM65.856 28.158h1.388v14.46l-1.388-.276V28.158zM17.676 63.96a5.247 5.247 0 01-3.735 1.547c-1.41 0-2.737-.55-3.734-1.547a5.29 5.29 0 01-1.07-5.928l.021-.047a5.186 5.186 0 01.425-.74c.026-.038.051-.076.078-.112.03-.043.062-.084.094-.125l.074-.096c.038-.047.077-.092.116-.137.022-.026.044-.053.067-.078a5.34 5.34 0 01.18-.19l.015-.016c.011-.012.024-.023.036-.034a3.7 3.7 0 01.158-.15c.014-.014.029-.025.043-.038.053-.047.107-.094.162-.139l.015-.012a5.291 5.291 0 016.648.006l.007.005c.058.048.116.099.174.15l.03.026a5.299 5.299 0 01.395.397l.082.096.1.118a5.382 5.382 0 01.284.388l.02.03a5.29 5.29 0 01-.685 6.626zm52.397 0a5.247 5.247 0 01-3.735 1.547c-1.41 0-2.737-.55-3.734-1.547a5.29 5.29 0 01-.685-6.627l.019-.029a5.133 5.133 0 01.383-.505l.083-.097a5.246 5.246 0 013.934-1.758 5.247 5.247 0 013.934 1.758l.083.096a5.218 5.218 0 01.204.254l.057.077c.042.058.083.116.122.175l.02.03a5.29 5.29 0 01-.685 6.626zm7.648-5.91a1.949 1.949 0 01-1.947 1.947h-1.877a7.466 7.466 0 00-1.678-4.523l-.02-.026a8.029 8.029 0 00-.201-.234l-.052-.06a7.507 7.507 0 00-.224-.235l-.038-.04a7.514 7.514 0 00-5.346-2.215 7.508 7.508 0 00-5.346 2.214l-.038.04a7.911 7.911 0 00-.224.236l-.05.058a7.755 7.755 0 00-.203.236l-.019.025a7.467 7.467 0 00-1.68 4.524H21.501a7.467 7.467 0 00-1.684-4.53l-.014-.018a7.634 7.634 0 00-.213-.248l-.04-.045a7.575 7.575 0 00-1.448-1.244 7.555 7.555 0 00-4.16-1.244 7.538 7.538 0 00-5.592 2.47 7.984 7.984 0 00-.47.57l-.05.065a7.522 7.522 0 00-.397.604l-.01.017a7.47 7.47 0 00-.173.31l-.004.008a7.513 7.513 0 00-.787 2.422l-3.552-1.578a1.057 1.057 0 01-.627-.965V45.553a3.015 3.015 0 012.386-2.937l1.636-.343a17.24 17.24 0 008.654-4.672 14.907 14.907 0 0110.588-4.374H39.38c3.005 0 5.909.89 8.398 2.57l7.538 5.093c1.513 1.022 3.812 2.438 6.304 2.934l10.401 2.068a7.097 7.097 0 014.684 3.29l.36.598a4.57 4.57 0 01.656 2.36v5.91z" fill="#BBB"/><path d="M66.87 6.775h-3.905c-.583 0-.952.37-.952.777V20.18c0 .525.622.797 1.263.797.622 0 1.263-.272 1.263-.797v-4.507h2.176c2.564 0 4.565-1.224 4.565-4.41v-.117c0-3.186-1.942-4.37-4.41-4.37zm1.885 4.682c0 1.516-.777 2.234-2.04 2.234h-2.176V8.99h2.176c1.263 0 2.04.719 2.04 2.234v.233zm-12.674 31.78c-.493-.271-.98-.569-1.446-.884l-7.538-5.092a13.737 13.737 0 00-7.717-2.363H25.544a13.7 13.7 0 00-9.73 4.02 18.469 18.469 0 01-4.53 3.313 2.955 2.955 0 00-1.599 2.631 2.969 2.969 0 002.966 2.966h4.717a1.14 1.14 0 000-2.28h-4.717a.687.687 0 01-.686-.686c0-.256.141-.49.37-.608a20.746 20.746 0 005.087-3.721 11.434 11.434 0 018.122-3.355h3.097v8.37h-3.786a1.14 1.14 0 000 2.28h31.25c.936 0 1.699-.762 1.699-1.7 0-1.199-.66-2.307-1.723-2.891zm-25.16 2.312v-8.371h8.459c2.304 0 4.532.682 6.441 1.972l7.539 5.092c.523.354 1.07.688 1.623.992.144.08.264.188.354.315H30.921zM16.388 57.622a3.438 3.438 0 00-2.447-1.013c-.924 0-1.793.36-2.446 1.013a3.438 3.438 0 00-1.014 2.447c0 .924.36 1.793 1.014 2.447a3.438 3.438 0 002.446 1.013c.925 0 1.793-.36 2.447-1.014a3.464 3.464 0 000-4.893zm-1.612 3.282c-.223.223-.52.346-.835.346-.315 0-.612-.123-.835-.346a1.173 1.173 0 01-.346-.835c0-.316.123-.612.346-.835.223-.223.52-.346.835-.346a1.182 1.182 0 01.835 2.016zm54.009-3.125a3.437 3.437 0 00-2.447-1.014c-.924 0-1.793.36-2.447 1.014a3.464 3.464 0 000 4.893 3.437 3.437 0 002.447 1.013c.924 0 1.793-.36 2.447-1.013a3.437 3.437 0 001.013-2.447c0-.924-.36-1.793-1.013-2.446zm-1.612 3.281c-.223.223-.52.346-.835.346a1.182 1.182 0 010-2.361c.315 0 .612.122.835.346.223.223.346.519.346.834 0 .316-.123.612-.346.835zM33.73 23.344l2.892 2.892a1.251 1.251 0 002.134-.884c0-.89-.622-.98-3.24-3.758 3.208-4.402.767-9.951-3.13-13.849-5.212-5.212-16.691-6.104-17.177-6.14a1.25 1.25 0 00-1.338 1.337c.035.486.928 11.965 6.14 17.177 5.307 5.308 10.487 5.476 13.719 3.225zM16.528 4.262c3.173.41 10.554 1.715 14.09 5.251 3.619 3.619 4.765 7.59 3.099 10.282L23.389 9.467a1.25 1.25 0 00-1.768 1.768l10.301 10.3c-2.689 1.544-6.587.373-10.144-3.184-3.534-3.535-4.84-10.916-5.25-14.089z" fill="#BBB"/><path d="M26.972 26.755c0-3.476-5.398 2.996-16.668-11.368a47.476 47.476 0 013.281-1.394 1.25 1.25 0 10-.888-2.337 45.294 45.294 0 00-4.89 2.179 1.25 1.25 0 00-.432 1.818c.288.41 7.138 10.086 14.437 11.818 1.27.308 2.568.488 3.874.534a1.247 1.247 0 001.188-.763 1.25 1.25 0 00.098-.487z" fill="#BBB"/></svg>