<svg width="80" height="80" fill="none" xmlns="http://www.w3.org/2000/svg"><path d="M79.336 53.8l-11.522-6.195a1.25 1.25 0 10-1.184 2.2l9.61 5.168-36.244 22.3-36.244-22.3 5.051-2.716a1.25 1.25 0 10-1.184-2.201L.657 53.8a1.25 1.25 0 00-.063 2.165c40.858 25.057 39.033 24.47 40.058 23.84 40.18-25.008 39.381-23.561 39.341-24.94a1.248 1.248 0 00-.657-1.065zM37.464 36.844l2.532-1.362c9.4 4.993 9.026 5.003 9.619 5.003 1.296 0 1.73-1.739.593-2.35l-9.62-5.173c-.981-.528-1.562.37-4.308 1.681a1.25 1.25 0 101.184 2.201z" fill="#BBB"/><path d="M34.194 42.296a1.25 1.25 0 00.51 1.692l2.654 1.428-6.69 3.597c-1.14.613-.701 2.35.595 2.35.582 0 .234-.018 8.734-4.528l16.218 8.721-6.678 4.109-7.38-4.54a1.25 1.25 0 00-1.31 2.128l6.305 3.88-7.156 4.401-13.08-8.047a1.251 1.251 0 10-1.31 2.128l12.006 7.387-2.971 1.828a1.251 1.251 0 101.31 2.128l4.045-2.489c4.085 2.441 4.078 2.675 4.7 2.675 1.255 0 1.728-1.654.656-2.314l-2.97-1.828 7.154-4.402 3.496 2.151a1.25 1.25 0 001.31-2.129l-2.421-1.49 6.838-4.207 4.067 2.187a1.25 1.25 0 001.184-2.201l-2.79-1.5 2.853-1.756a1.251 1.251 0 10-1.31-2.128l-4.088 2.515-16.04-8.627 2.654-1.427a1.25 1.25 0 10-1.184-2.202l-4.109 2.21-4.109-2.21a1.25 1.25 0 00-1.693.51z" fill="#BBB"/><path d="M62.285 49.44c.621-.932 15.209-22.94 15.209-32.097 0-13.747-14.298-21.903-24.987-14.619a1.25 1.25 0 001.408 2.065c9.064-6.176 21.079.843 21.079 12.554 0 7.077-10.381 23.854-13.75 29.11-3.367-5.256-13.748-22.033-13.748-29.11a15.91 15.91 0 01.64-4.486 1.25 1.25 0 10-2.4-.704 18.4 18.4 0 00-.74 5.19c0 9.156 14.588 31.165 15.209 32.097a1.25 1.25 0 002.08 0z" fill="#BBB"/><path d="M52.495 17.798c0 2.23 1.632 10.953 6.25 10.953a3.955 3.955 0 002.5-.955c.697.6 1.58.937 2.5.955 4.618 0 6.25-8.724 6.25-10.953 0-4.606-4.286-6.021-7.253-4.983-.84-5.041-6.497-6.708-6.497-4.06a1.25 1.25 0 001.25 1.25c1.177 0 2.424 1.63 2.741 3.008-2.97-1.378-7.74-.094-7.74 4.785zm7.761-1.661a1.25 1.25 0 00.989.484c1.205 0 1.173-1.617 3.333-1.617 1.33 0 2.916.485 2.916 2.794 0 3.374-2.711 11.172-5.203 7.492a1.245 1.245 0 00-2.087-.008c-2.513 3.712-5.209-4.168-5.209-7.484 0-2.31 1.586-2.794 2.917-2.794a2.938 2.938 0 012.344 1.133zM19.788 59.438c.621-.933 15.209-22.941 15.209-32.098 0-9.558-7.29-17.335-16.25-17.335a15.276 15.276 0 00-6.8 1.587 1.25 1.25 0 001.103 2.243 12.795 12.795 0 015.698-1.33c7.581 0 13.749 6.655 13.749 14.835 0 7.078-10.381 23.855-13.75 29.11C15.38 51.194 5 34.418 5 27.34a15.612 15.612 0 011.525-6.797 1.25 1.25 0 10-2.255-1.08A18.092 18.092 0 002.5 27.34c0 9.157 14.588 31.166 15.208 32.098a1.25 1.25 0 002.081 0z" fill="#BBB"/><path d="M17.498 32.9v4.6h-1.25a1.25 1.25 0 100 2.5h5a1.25 1.25 0 000-2.5h-1.25v-4.62c1.697-.352 5.903-1.393 7.906-3.397 6.785-6.783-5.05-14.677-9.204-1.289-4.162-13.417-15.982-5.49-9.204 1.29 2.042 2.04 6.372 3.084 8.002 3.416zm5.673-8.149c.589-.588 1.544-1.36 2.503-1.36 1.273 0 3.093 1.695.463 4.326-1.106 1.105-3.534 1.936-5.385 2.418.483-1.85 1.313-4.278 2.419-5.384zm-11.444-1.36c.959 0 1.914.772 2.502 1.36 1.106 1.106 1.937 3.534 2.42 5.384-1.851-.482-4.28-1.313-5.385-2.418-2.618-2.617-.812-4.326.463-4.326zm-2.979-5.887a1.25 1.25 0 100-2.5 1.25 1.25 0 000 2.5zm28.748 37.492a1.25 1.25 0 100-2.5 1.25 1.25 0 000 2.5zm11.25-46.239a1.25 1.25 0 100-2.5 1.25 1.25 0 000 2.5z" fill="#BBB"/></svg>