<svg xmlns="http://www.w3.org/2000/svg" width="512" height="512"><g data-name="Pruning Shears"><path d="M304.77 106.261a8 8 0 007.93-7.061c3.873-32.673 23.708-55.134 54.325-68.564C347.846 49 339 74.736 339 80.54v.01c0 9.451 13.661 11.041 15.8 1.8C365.093 42.036 401.658 16 448 16a8 8 0 000-16c-71.785 0-142.734 26.019-151.185 97.318a8 8 0 007.955 8.943z"/><path d="M509.726 73.3a84.875 84.875 0 00-122.122 0l-39.334 40.31c-2.817 2.189-10.689 8.44-11.835 11.805a30.119 30.119 0 01-19.2 6.837c-20.367 0-21.591-16.17-31.485-10.771L195.912 170.4c-1.034-1.533-1.858-5.46-6.2-6.827a8 8 0 00-6.1.536c-19.619 10.983-23.53 10.436-25.212 15.78l-5.8 18.411-16.56 8.62a8 8 0 107.387 14.192c17.117-9.623 21.754-9.5 23.436-14.842l5.8-18.42 11.246-5.861 25.868 49.667-156.1 81.293a16.02 16.02 0 01-21.581-6.8C16.332 275.337 16 276.5 16 273.59a6.83 6.83 0 013.682-6.072c8.4-4.373 13.252 11.135 22.612 6.258l30.19-15.72a8 8 0 10-7.384-14.192L39.288 257.3C24.326 243.361 0 253.115 0 273.59c0 9.241 4.457 12.683 17.9 39.956a32.042 32.042 0 0043.161 13.6l163.2-84.99a8 8 0 003.4-10.791l-5.234-10.049 54.252-23.673c35.647 36.4 34.4 35.561 38.239 38.795l-19.134 45.514-22.284-7.025c16.229-39.143 16.223-37.324 16.223-40.194 0-8.784-12.227-11.121-15.449-2.919l-16.1 38.284-10.718-3.378a8 8 0 00-10.034 5.225c-6.879 23.887-9.737 25.89-7.477 30.723l8.725 18.66-9.217 30.563a8 8 0 0015.319 4.619c9.334-33.183 11.947-34.356 9.687-39.188l-8.7-18.608 4.517-14.33 53.408 16.831L247.091 480.5c-2.882 9.126-10.881 15.5-19.451 15.5-12.325 0-21.078-12.815-16.9-26.649l10.95-36.3a8 8 0 10-15.318-4.621l-10.949 36.3c-5.888 19.493 3.656 39.505 21.73 45.56 19.034 6.37 39.1-5.676 45.2-24.969 60.8-195.483 61.371-187.44 58.467-193.021-2.233-4.29-6.346-4.118-9.7-5.515l17.554-41.756c39.341 17.535 83.086-12.824 79.917-56.9L509.726 84.478a8 8 0 000-11.178zm-117.41 113.018c5.566 40.175-42.147 63.72-70.019 35.165l-38.021-38.97a8 8 0 00-8.925-1.745l-60.327 26.324-11.72-22.5 85.131-46.353a45.948 45.948 0 0028.8 10.018c25.51 0 36.837-18.861 41.639-22.6 33.772-25.779 84.915-30.586 108.314-20.5-74.511 77.98-75.851 74.107-74.872 81.161zm86.566-93.142C456.4 79.841 418.148 83.352 392.5 91.2c3.454-2.564 20.709-27.8 56.17-27.8a68.566 68.566 0 0143.864 15.79z"/><path d="M352 168a24 24 0 1024 24 24.027 24.027 0 00-24-24zm0 32a8 8 0 118-8 8.009 8.009 0 01-8 8z"/><circle cx="104" cy="232" r="8"/><circle cx="224" cy="392" r="8"/></g></svg>