<svg width="80" height="80" fill="none" xmlns="http://www.w3.org/2000/svg"><path d="M16.603 32.38a1.25 1.25 0 00-1.103-1.24c-5.105-.604-8.615-3.704-10.713-8.487 2.87 2.996 6.89 4.379 7.797 4.379h.002c1.477 0 1.725-2.135.281-2.47C6.568 22.955 2.5 17.243 2.5 10A1.25 1.25 0 000 10c0 11.217 4.065 22.302 15.206 23.623a1.25 1.25 0 001.397-1.243z" fill="#BBB"/><path d="M11.453.356a13.26 13.26 0 000 19.081l6.299 6.146c.341.44 1.318 1.67 1.844 1.85a4.707 4.707 0 011.068 3c0 3.182-2.526 3.373-1.683 4.919l7.644 14.037c-.24.161-.853.29-1.067.969a1.25 1.25 0 00.084.953c1.716 3.065 1.63 3.676 2.466 3.94l2.876.905 1.347 2.588a1.25 1.25 0 102.218-1.154c-1.504-2.675-1.485-3.4-2.32-3.662l-2.878-.906-.915-1.758 7.76-4.042 12.702 24.391a2.503 2.503 0 01-1.062 3.372c-4.815 2.463-4.633 2.515-5.088 2.515a1.067 1.067 0 01-.948-.575c-.684-1.313 1.74-2.07.977-3.533l-2.456-4.718a1.25 1.25 0 10-2.217 1.154l2.099 4.033C38.025 76.2 39.549 80 42.748 80c1.444 0 1.982-.696 6.243-2.797a5.007 5.007 0 002.125-6.744l-13.28-25.5a1.25 1.25 0 00-1.685-.53l-1.57.817-3.7-8.477c5.688-5.57 5.557-5.375 6.062-5.975l7.112 2.99-1.098 3.482c-6.116-2.536-5.832-2.535-6.28-2.535-1.373 0-1.738 1.91-.456 2.414l5.982 2.515-.528 1.675a1.25 1.25 0 00.816 1.568c3.733 1.075 4.045 1.521 4.8 1.168l2.916-1.363 4.776 1.44a1.25 1.25 0 00.722-2.394c-5.185-1.458-5.369-1.866-6.124-1.513l-2.907 1.36-2.24-.706 2.63-8.345 28.014 8.842c1.426.45 2.422 1.7 2.422 3.04 0 1.925-2.003 3.293-4.164 2.64l-5.672-1.71a1.248 1.248 0 00-1.563.833 1.249 1.249 0 00.84 1.56l5.673 1.71c3.045.92 6.172-.571 7.118-3.395.996-2.974-.886-6.11-3.9-7.063-30.545-9.5-29.288-9.589-30.16-9.135-.67.349-.644.992-.862 1.516l-6.524-2.743c2.74-6.147-2.004-12.982-8.891-12.487L13.2.356a1.25 1.25 0 00-1.747 0zM29.113 18.7c6.276-.87 9.955 6.585 5.494 10.94l-6.09 5.941a1.25 1.25 0 00-.272 1.395l4.113 9.426-3.516 1.83-7.242-13.3a7.18 7.18 0 001.565-4.5c0-3.987-2.947-5.756-3.531-6.507-4.028-5.277-4.78-13.268-3.203-16.924 12.184 11.644 11.579 11.853 12.681 11.7zM14.558 5.175c-2.084 3.513-1.535 9.49-.31 13.497-.4-.54-4.343-3.236-4.343-8.776a10.713 10.713 0 012.467-6.854l2.186 2.133z" fill="#BBB"/><path d="M26.25 25a3.75 3.75 0 107.499 0 3.75 3.75 0 00-7.5 0zm5 0a1.25 1.25 0 11-2.5 0 1.25 1.25 0 012.5 0zm6.25 38.75a1.25 1.25 0 10-2.5 0 1.25 1.25 0 002.5 0zM62.5 45a1.25 1.25 0 10-2.5 0 1.25 1.25 0 002.5 0z" fill="#BBB"/></svg>