<svg width="71" height="80" fill="none" xmlns="http://www.w3.org/2000/svg"><path d="M67.597 68.514c.352-1.63 1.155-6.776 1.155-19.764 0-2.2-.515-6.474-1.532-12.702a1.25 1.25 0 00-2.467.403c.98 6.01 1.5 10.262 1.5 12.299 0 15.616-1.178 19.578-1.186 19.605a1.25 1.25 0 00.146 1.088l2.26 3.39c-.213 1.142-1.538 1.596-2.633 1.05a1.25 1.25 0 00-.832-.103c-.167.037-16.791 3.72-29.006 3.72-12.214 0-28.839-3.683-29.005-3.72a1.248 1.248 0 00-.832.102c-1.098.548-2.42.089-2.633-1.048 4.608-7.463 1.22 2.762 1.22-24.084 0-2.037.519-6.29 1.5-12.299a1.25 1.25 0 10-2.467-.403C1.768 42.276 1.252 46.55 1.252 48.75c0 12.987.804 18.135 1.155 19.764L.212 71.807c-.526.789-.115 3.044 1.703 4.168a4.424 4.424 0 003.937.333C8.536 76.89 23.43 80 35.002 80c11.573 0 26.466-3.11 29.15-3.692a4.426 4.426 0 003.938-.333c1.817-1.124 2.228-3.379 1.702-4.168l-2.195-3.293zM66.252 20h-62.5C.502 20-1.185 23.857.96 26.25-1.184 28.642.5 32.5 3.752 32.5h62.5c3.25 0 4.938-3.857 2.793-6.25 2.144-2.392.46-6.25-2.793-6.25zm-42.5 7.5h42.5a1.25 1.25 0 010 2.5h-62.5a1.25 1.25 0 010-2.5h10a1.25 1.25 0 000-2.5h-10a1.25 1.25 0 010-2.5h62.5a1.25 1.25 0 010 2.5h-42.5a1.25 1.25 0 000 2.5z" fill="#BBB"/><path d="M45.002 63.697a1.25 1.25 0 000-2.5h-2.731a7.517 7.517 0 00-6.097-6.084V52.12c1.84.609 3.708.516 5.424-.404 3.484-1.868 5.71-6.983 5.802-7.2a1.25 1.25 0 00-.923-1.722c-.232-.043-5.725-1.019-9.208.849a6.505 6.505 0 00-2.325 2.075 6.502 6.502 0 00-2.325-2.075c-3.483-1.868-8.976-.892-9.208-.849a1.25 1.25 0 00-.924 1.723c.093.216 2.32 5.331 5.803 7.2 1.722.922 3.578 1.003 5.384.416V55.1a7.516 7.516 0 00-6.172 6.098h-2.5a1.25 1.25 0 100 2.5h20zm-.672-18.643c-1.974 3.516-4.529 6.153-8.103 4.399a8.529 8.529 0 00-.023-.234c.61-3.86 4.228-4.456 8.126-4.165zm-10.667 4.4c-3.578 1.753-6.127-.88-8.104-4.4 3.9-.291 7.516.305 8.127 4.165a5.94 5.94 0 00-.023.234zM30.06 61.195c1.328-4.91 8.324-4.914 9.653 0H30.06z" fill="#BBB"/><path d="M40.627 70a16.875 16.875 0 100-33.75h-11.25a16.875 16.875 0 000 33.75h11.25zM15.002 53.125A14.391 14.391 0 0129.377 38.75h11.25a14.375 14.375 0 010 28.75h-11.25a14.39 14.39 0 01-14.375-14.375zm-.98-36.027C22.713 7.684 30.164 2.5 35.002 2.5c4.838 0 12.29 5.184 20.98 14.598a1.25 1.25 0 101.837-1.696C51.332 8.375 42.108 0 35.002 0c-7.105 0-16.33 8.375-22.817 15.402a1.25 1.25 0 001.837 1.696zm4.73 10.402a1.25 1.25 0 100-2.5 1.25 1.25 0 000 2.5z" fill="#BBB"/><path d="M28.752 12.5a1.25 1.25 0 100-2.5 1.25 1.25 0 000 2.5zm3.75-5a1.25 1.25 0 100-2.5 1.25 1.25 0 000 2.5zm2.5 3.75a1.25 1.25 0 100-2.5 1.25 1.25 0 000 2.5zm3.75-2.5a1.25 1.25 0 100-2.5 1.25 1.25 0 000 2.5zm2.5 5a1.25 1.25 0 100-2.5 1.25 1.25 0 000 2.5zm5 3.75a1.25 1.25 0 100-2.5 1.25 1.25 0 000 2.5zm-8.75 0a1.25 1.25 0 100-2.5 1.25 1.25 0 000 2.5zm-6.25 0a1.25 1.25 0 100-2.5 1.25 1.25 0 000 2.5zm-7.5 0a1.25 1.25 0 100-2.5 1.25 1.25 0 000 2.5z" fill="#BBB"/></svg>