<svg width="80" height="80" fill="none" xmlns="http://www.w3.org/2000/svg"><path d="M58.21 44.723l-5.302-5.304a1.25 1.25 0 00-1.768 0C39.046 51.552 39.465 51.016 38.73 51.94c-1.037 1.301.942 2.828 1.955 1.557.6-.753.28-.336 11.34-11.425l4.418 4.42-2.616 2.616a1.252 1.252 0 00.884 2.134c.934 0 .468-.145 9.686-9.17l3.534 3.535L52.91 60.633a2.5 2.5 0 01-3.867-3.13 1.249 1.249 0 10-2.094-1.365c-2.133 3.276.187 7.724 4.193 7.724a4.987 4.987 0 003.535-1.461l8.837-8.839 4.419 4.42-10.605 10.606a10.166 10.166 0 01-5.631 2.863 1.25 1.25 0 00.413 2.465 12.618 12.618 0 006.985-3.56l11.489-11.49a1.251 1.251 0 000-1.768l-5.303-5.303 13.256-13.259A4.967 4.967 0 0080 35c0-4.49-5.424-6.647-8.534-3.536L58.21 44.723zm15.024-11.49a2.5 2.5 0 113.534 3.535l-7.07 7.07-3.534-3.535 7.07-7.07zm-62.37 23.63a23.252 23.252 0 012.104-.61c2.997.08 4.544 2.643 4.544 3.747a1.25 1.25 0 001.25 1.25c2.692 0 .821-6.166-4.292-7.318 2.823-7.245 11.063-6.387 11.235-6.432a20.444 20.444 0 00-.695 5c0 1.206 1.36 1.298 1.25 1.25a1.25 1.25 0 001.25-1.249c0-.034.018-3.468 1.107-5.67 3.709-6.694 10.727-8.07 16.477-5.93a1.25 1.25 0 10.872-2.345 16.87 16.87 0 00-4.709-1.008v-10.69l5.876-4.618c3.46 3.36 7.9 2.007 11.696-.977 5.276-4.147 7.715-14.156 7.816-14.58a1.249 1.249 0 00-1.21-1.54c-.434-.002-10.736.003-16.013 4.15-3.695 2.904-6.111 6.822-3.811 10.963l-4.354 3.422a22.298 22.298 0 00-1.598-8.433c2.565-2.767 2.776-6.656-1.583-10.73C33.906.618 25.085.025 24.711.002a1.25 1.25 0 00-1.317 1.41c.049.371 1.239 9.133 5.41 13.03 2.531 2.366 5.681 3.903 8.78 2.38 1.756 4.841.982 8.168 1.174 13.574l-3.575-1.948c.61-2.078.406-5.47-5.216-8.533-5.182-2.823-13.886-1.739-14.254-1.691A1.25 1.25 0 0014.745 20c.16.335 3.969 8.237 9.151 11.06 3.56 1.94 7.585 2.745 10.125-.398l4.737 2.58v4.304C33.696 37.914 29.5 40.52 26.789 45c-1.29.144-6.04-.76-10.576 2.661a12.223 12.223 0 00-4.397 6.304c-.608.16-1.2.34-1.766.534a1.25 1.25 0 10.814 2.364zm40.103-45.605c3.441-2.704 9.795-3.386 12.8-3.557-.875 2.879-3.035 8.887-6.483 11.597-2.555 2.008-5.687 3.491-8.16 1.377l9.152-7.192a1.25 1.25 0 00-1.544-1.966l-9.12 7.166c-1.302-2.855.898-5.494 3.355-7.425zM38.45 12.727a22.1 22.1 0 00-5.14-6.187 1.25 1.25 0 10-1.601 1.92 19.581 19.581 0 014.872 6.07c-2.093 1.106-4.343-.298-6.071-1.914-2.566-2.397-3.851-7.396-4.363-9.951 2.584.336 7.657 1.28 10.223 3.677 1.942 1.815 3.462 4.11 2.08 6.385zM32.9 27.206l-6.355-3.462a1.248 1.248 0 00-1.796 1.451 1.249 1.249 0 00.601.744l6.417 3.496c-1.364 1.293-3.602 1.104-6.675-.57-3.17-1.727-5.897-5.971-7.226-8.316 2.69-.155 7.735-.166 10.905 1.562 2.958 1.611 4.34 3.32 4.13 5.095z" fill="#BBB"/><path d="M76.3 58.445a1.25 1.25 0 10-1.76 1.776c6.404 6.385 1.834 17.279-7.038 17.279h-54.99c-6.474 0-11.509-6.13-9.6-13.12A1.25 1.25 0 00.5 63.72C-1.856 72.354 4.445 80 12.513 80h54.99A12.51 12.51 0 0080 67.5c0-3.896-1.433-7.001-3.7-9.055z" fill="#BBB"/><path d="M43.132 72.5a1.25 1.25 0 00-1.25 1.25c0 2.757 6.874.9 6.874-4.375A5.62 5.62 0 0045 64.068c.338-7.941-10.376-10.85-14.104-3.86a5.628 5.628 0 00-7.135 5.417c0 5.308 6.873 7.105 6.873 4.375a1.25 1.25 0 00-1.25-1.25 3.126 3.126 0 111.554-5.836 1.249 1.249 0 001.812-.7 5 5 0 019.652 2.56 1.25 1.25 0 001.084 1.497 3.124 3.124 0 01-.354 6.229zM5.014 60a1.25 1.25 0 100-2.5 1.25 1.25 0 000 2.5zm46.241-5a1.25 1.25 0 100-2.5 1.25 1.25 0 000 2.5z" fill="#BBB"/></svg>