<svg height="512" width="512" xmlns="http://www.w3.org/2000/svg"><g data-name="Watering Can"><path d="M499.647 172.2l-32.21-26.914 20.775-37.394C511.131 66.661 481.176 16 434.23 16a61.961 61.961 0 00-54.143 31.815L370.8 64.533l-19.724-16.479a23.988 23.988 0 00-4.018-28.621L329.7 2.073a8 8 0 00-11.314 0l-53.021 53.02a8 8 0 1011.315 11.314l47.36-47.364 11.7 11.7a8.012 8.012 0 010 11.317l-41.7 41.71a8.009 8.009 0 005.66 13.66c5.925 0 5.019-2.874 40.728-37.422l133.066 111.184-18.882 18.881a8.01 8.01 0 005.658 13.657c5.732 0 6.222-3.95 25.551-22.237 1.462 1.657 9.736 5.8 10.164 16.654a18.835 18.835 0 01-5.56 14.208L350.189 352.59a18.816 18.816 0 01-14.208 5.56c-10.833-.426-15.011-8.715-16.654-10.163l90.061-90.06a8 8 0 10-11.315-11.314l-89.046 89.046-111.185-133.066 39.635-39.625a8 8 0 00-11.313-11.316l-44.621 44.611a8.01 8.01 0 01-11.315 0l-11.705-11.7 50.277-50.276a8 8 0 10-11.315-11.314L141.553 178.9a8 8 0 000 11.314l17.36 17.36a23.971 23.971 0 0026.465 5.052l36.537 43.727-60.594 8.11L128 253.359V248a8 8 0 00-16 0v88a8 8 0 0016 0v-3.523l33.333-11.111 129.373 17.319c14.726 14.791 21.871 35.48 46.013 35.48A35.147 35.147 0 00361.5 363.9l140.239-140.231a35.055 35.055 0 00-2.092-51.469zm-68.995-57.65l-21.423-17.9 13.212-24.984c6.763-12.782 25.839-7.494 25.839 6.429 0 5.821-3.345 8.992-17.628 36.45zm12.577 10.509C459.744 92.993 464.28 89.3 464.28 78.09c0-30.663-41.466-41.348-55.982-13.91l-11.622 21.976L383.3 74.978l10.774-19.391A45.953 45.953 0 01434.23 32c34.716 0 57 37.528 40 68.115l-19.29 34.721zM152.55 307.428L128 315.612v-45.388l24.55 8.184zm16-1.238v-26.55l65.494-8.765 41.473 49.634z"/><circle cx="310.392" cy="168" r="8"/><circle cx="72" cy="280" r="8"/><circle cx="40" cy="296" r="8"/><circle cx="24" cy="328" r="8"/><circle cx="80" cy="312" r="8"/><circle cx="56" cy="336" r="8"/><circle cx="56" cy="368" r="8"/><circle cx="24" cy="368" r="8"/><circle cx="56" cy="408" r="8"/><circle cx="24" cy="408" r="8"/><circle cx="40" cy="504" r="8"/><circle cx="72" cy="504" r="8"/><circle cx="8" cy="504" r="8"/><circle cx="40" cy="456" r="8"/><circle cx="72" cy="456" r="8"/><circle cx="8" cy="456" r="8"/><path d="M272.225 163.774c-3.948 37.838 41.8 58.769 68.059 32.51 27.1-27.1 3.812-74.572-35.325-67.658L183.48 7.147C168.244-8.089 142.51 3 142.51 24.118a23.841 23.841 0 007.029 16.97zm56.745-12.745a23.988 23.988 0 010 33.942C313.988 199.954 288 189.442 288 168c0-21.1 25.672-32.27 40.97-16.971zM166.51 16.118c6.288 0 .632-1.49 122.479 119.166A40.015 40.015 0 00278 146.921C157.021 24.751 158.51 30.4 158.51 24.118a8 8 0 018-8z"/><circle cx="432" cy="224" r="8"/></g></svg>