<?xml version="1.0"?>
<svg xmlns="http://www.w3.org/2000/svg" viewBox="0 0 512 512" width="512" height="512"><g id="Fertilizer"><g id="Outline"><path d="M464.609,438.491C466.857,428.064,472,395.121,472,312c0-14.082-3.3-41.432-9.805-81.289a8,8,0,1,0-15.791,2.578c6.278,38.458,9.6,65.676,9.6,78.711,0,99.945-7.539,125.3-7.589,125.47a8,8,0,0,0,.933,6.968l14.465,21.7c-1.364,7.3-9.843,10.211-16.853,6.708a8,8,0,0,0-5.321-.652C440.57,472.431,334.174,496,256,496S71.43,472.431,70.365,472.192a7.994,7.994,0,0,0-5.321.652c-7.029,3.512-15.494.569-16.853-6.708C77.679,418.376,56,483.814,56,312c0-13.035,3.318-40.253,9.6-78.711a8,8,0,1,0-15.791-2.578C43.3,270.568,40,297.918,40,312c0,83.121,5.143,116.064,7.391,126.491L33.344,459.563c-3.37,5.052-.738,19.486,10.895,26.678a28.316,28.316,0,0,0,25.2,2.13C86.618,492.094,181.937,512,256,512s169.382-19.906,186.558-23.629a28.323,28.323,0,0,0,25.2-2.13c11.634-7.192,14.264-21.626,10.895-26.678Z"/><path d="M456,128H56c-20.8,0-31.6,24.683-17.874,40C24.408,183.309,35.186,208,56,208H456c20.8,0,31.6-24.683,17.874-40C487.592,152.691,476.814,128,456,128ZM184,176H456a8,8,0,0,1,0,16H56a8,8,0,0,1,0-16h64a8,8,0,0,0,0-16H56a8,8,0,0,1,0-16H456a8,8,0,0,1,0,16H184a8,8,0,0,0,0,16Z"/><path d="M320,407.657a8,8,0,0,0,0-16H302.518A48.107,48.107,0,0,0,263.5,352.723V333.57c11.779,3.893,23.73,3.3,34.71-2.586,22.3-11.955,36.542-44.691,37.138-46.079a8,8,0,0,0-5.912-11.024c-1.485-.273-36.636-6.519-58.931,5.434a41.62,41.62,0,0,0-14.879,13.278,41.615,41.615,0,0,0-14.88-13.278c-22.293-11.953-57.444-5.707-58.931-5.434a8,8,0,0,0-5.911,11.024c.595,1.388,14.842,34.124,37.137,46.079,11.018,5.908,22.9,6.426,34.459,2.669v18.982A48.108,48.108,0,0,0,208,391.657H192a8,8,0,1,0,0,16ZM315.7,288.348c-12.639,22.5-28.986,39.375-51.862,28.151-.039-.472-.087-.968-.146-1.5C267.6,290.294,290.751,286.481,315.7,288.348ZM247.426,316.5c-22.9,11.225-39.208-5.625-51.862-28.153,24.956-1.865,48.1,1.948,52.009,26.655C247.513,315.531,247.465,316.029,247.426,316.5ZM224.37,391.657c8.5-31.424,53.275-31.452,61.779,0Z"/><path d="M292,448a108,108,0,0,0,0-216H220a108,108,0,0,0,0,216ZM128,340a92.1,92.1,0,0,1,92-92h72a92,92,0,0,1,0,184H220A92.1,92.1,0,0,1,128,340Z"/><path d="M121.728,109.427C177.351,49.18,225.036,16,256,16s78.649,33.18,134.272,93.427a8,8,0,0,0,11.756-10.854C360.511,53.6,301.476,0,256,0S151.489,53.6,109.972,98.573a8,8,0,0,0,11.756,10.854Z"/><circle cx="152" cy="168" r="8"/><circle cx="216" cy="72" r="8"/><circle cx="240" cy="40" r="8"/><circle cx="256" cy="64" r="8"/><circle cx="280" cy="48" r="8"/><circle cx="296" cy="80" r="8"/><circle cx="328" cy="104" r="8"/><circle cx="272" cy="104" r="8"/><circle cx="232" cy="104" r="8"/><circle cx="184" cy="104" r="8"/></g></g></svg>
