<?xml version="1.0"?>
<svg xmlns="http://www.w3.org/2000/svg" viewBox="0 0 512 512" width="512" height="512"><g id="Planting-3" data-name="Planting"><g id="Outline"><path d="M392,448H280a16.019,16.019,0,0,0-16,16v40a8,8,0,0,0,16,0V464H392v40a8,8,0,0,0,16,0V464A16.019,16.019,0,0,0,392,448Z"/><path d="M272,384.292V424a8,8,0,0,0,16,0V383.96c.166-1.47-5.561-38.235,21.836-65.633l80.2-80.19c7.671-7.671,20.208-8.158,27.982-1.1l.769.735a20.034,20.034,0,0,1-.05,28.227l-50.006,50a8.01,8.01,0,0,0,5.658,13.657c6.02,0,3.787-1.7,55.637-52.324L464,244.364V208a8,8,0,0,0-16,0v29.6l-8.014,7.778c-5.12-28.172-40.1-39.711-61.262-18.551l-80.2,80.19C278.938,326.6,269.526,354.033,272,384.292Z"/><path d="M512,90.621c-.157-9.752-11.428-15.741-19.439-15.741-25.695,0-44.435,20.231-44.56,48.14V144a8,8,0,0,0,16,0V123.056c.125-27.876,24.75-35.917,32-30.88V261.249L369.691,423.19a8.011,8.011,0,0,0,6.3,12.92c7.486,0,.426,2.478,136.006-169.359Z"/><path d="M320,480H304a8,8,0,0,0,0,16h16a8,8,0,0,0,0-16Z"/><path d="M232,448H120a16.019,16.019,0,0,0-16,16v40a8,8,0,0,0,16,0V464H232v40a8,8,0,0,0,16,0V464A16.019,16.019,0,0,0,232,448Z"/><path d="M143.267,327.317a8,8,0,0,0,0-11.314l-50-50a20.034,20.034,0,0,1-.054-28.228l.77-.735c7.774-7.058,20.312-6.573,27.983,1.1l80.2,80.19c16.27,16.27,24.035,39.339,21.865,64.958C223.989,439.493,224,419.59,224,424a8,8,0,0,0,16,0V384.292c2.474-30.26-6.938-57.694-26.523-77.279l-80.2-80.19c-21.17-21.171-56.147-9.6-61.263,18.552L64,237.6V122.984c-.126-27.874-18.866-48.1-44.56-48.1C11.428,74.88.157,80.869,0,90.622V266.751L40.122,318.19a8,8,0,1,0,12.616-9.84L16,261.249V92.176c7.223-5.022,31.874,2.918,32,30.844V244.364l34.021,33.021,49.933,49.932A8,8,0,0,0,143.267,327.317Z"/><path d="M136.005,436.11a8.01,8.01,0,0,0,6.3-12.921l-40.42-51.819a8,8,0,1,0-12.616,9.84l40.42,51.82A7.985,7.985,0,0,0,136.005,436.11Z"/><path d="M208,480H192a8,8,0,0,0,0,16h16a8,8,0,0,0,0-16Z"/><path d="M303.759,210.087a63.651,63.651,0,0,0-28.55,16.2,8,8,0,0,0,11.2,11.427,47.992,47.992,0,0,1,57.635-7.265c9.128,5.3,17.163-8.537,8.033-13.837a63.9,63.9,0,0,0-28.091-8.487A87.1,87.1,0,0,0,264,176.36v-30.7c12.948,7.3,29.759,5.18,43.736.3,26.835-9.372,49.8-44.822,50.762-46.327a8,8,0,0,0-4.152-11.888c-1.692-.577-41.73-14.024-68.566-4.653A72.577,72.577,0,0,0,264,94.76V79.143c16.382-7.048,26.411-39.119-2.061-76.03a8,8,0,0,0-12.746.1c-27.683,37.1-17.466,68.823-1.193,75.9V93.532A74.55,74.55,0,0,0,227.8,83.1c-26.834-9.371-66.875,4.075-68.566,4.653a8,8,0,0,0-4.152,11.888c.964,1.505,23.927,36.955,50.762,46.327,13.5,4.717,29.434,6.8,42.16.533V176.36a87.1,87.1,0,0,0-59.986,31.764A63.9,63.9,0,0,0,160.2,216.45c-7.357,3.887-4.584,15.08,3.738,15.08h2.154l1.863-1.082C199.6,212.08,240,234.892,240,272a8,8,0,0,0,16,0,64.112,64.112,0,0,0-47.765-61.908A72.053,72.053,0,0,1,303.759,210.087ZM291.056,98.2c13.695-4.783,33.508-1.751,47.59,1.717-8.549,11.014-22.609,26.2-36.185,30.939C261.585,145.134,250.247,112.452,291.056,98.2Zm-79.941,32.656c-14.351-5.011-28.327-20.809-36.155-30.946,12.438-3.06,33.212-6.721,47.561-1.71C263.637,112.56,251.709,145.038,211.115,130.857Zm36.714-84.52c-.058-7.314,3.923-16.467,7.895-23.621,4.087,7.09,8.215,16.178,8.274,23.491C264.2,70.822,248.029,71.047,247.829,46.337Z"/><circle cx="72" cy="344" r="8"/><circle cx="456" cy="176" r="8"/><circle cx="248" cy="304" r="8"/></g></g></svg>
