<svg width="26" height="26" viewBox="0 0 26 26" fill="none" xmlns="http://www.w3.org/2000/svg">
<path d="M18.8248 0H7.17491C3.21867 0 0 3.21882 0 7.17506V18.8249C0 22.7813 3.21867 26 7.17491 26H18.8248C22.7813 26 26 22.7812 26 18.8249V7.17506C26.0002 3.21882 22.7813 0 18.8248 0ZM23.6933 18.8249C23.6933 21.5093 21.5093 23.6932 18.8249 23.6932H7.17491C4.49066 23.6933 2.30685 21.5093 2.30685 18.8249V7.17506C2.30685 4.49081 4.49066 2.30685 7.17491 2.30685H18.8248C21.5092 2.30685 23.6932 4.49081 23.6932 7.17506V18.8249H23.6933Z" fill="white"/>
<path d="M13 6.30078C9.30579 6.30078 6.30043 9.30614 6.30043 13.0003C6.30043 16.6944 9.30579 19.6996 13 19.6996C16.6942 19.6996 19.6995 16.6944 19.6995 13.0003C19.6995 9.30614 16.6942 6.30078 13 6.30078ZM13 17.3926C10.5779 17.3926 8.60728 15.4222 8.60728 13.0002C8.60728 10.578 10.5778 8.60747 13 8.60747C15.4222 8.60747 17.3927 10.578 17.3927 13.0002C17.3927 15.4222 15.422 17.3926 13 17.3926Z" fill="white"/>
<path d="M19.9805 4.34473C19.5361 4.34473 19.0994 4.52466 18.7856 4.83993C18.4701 5.15366 18.2888 5.59042 18.2888 6.03641C18.2888 6.48102 18.4703 6.91763 18.7856 7.2329C19.0993 7.54663 19.5361 7.7281 19.9805 7.7281C20.4265 7.7281 20.8617 7.54663 21.177 7.2329C21.4923 6.91763 21.6722 6.48087 21.6722 6.03641C21.6722 5.59042 21.4923 5.15366 21.177 4.83993C20.8633 4.52466 20.4265 4.34473 19.9805 4.34473Z" fill="white"/>
</svg>
