<svg width="23" height="26" viewBox="0 0 23 26" fill="none" xmlns="http://www.w3.org/2000/svg">
<path d="M15.7664 17.1785C18.5331 12.8371 18.1853 13.3787 18.265 13.2655C19.2723 11.8448 19.8047 10.1726 19.8047 8.42969C19.8047 3.80758 16.0539 0 11.4258 0C6.81271 0 3.04688 3.80006 3.04688 8.42969C3.04688 10.1715 3.59044 11.8874 4.63074 13.3273L7.0851 17.1786C4.46098 17.5818 0 18.7836 0 21.4297C0 22.3943 0.629586 23.7689 3.62893 24.8401C5.72325 25.5881 8.4922 26 11.4258 26C16.9114 26 22.8516 24.4526 22.8516 21.4297C22.8516 18.7831 18.3958 17.5827 15.7664 17.1785ZM5.90327 12.4894C5.89489 12.4763 5.88616 12.4635 5.87702 12.4509C5.01135 11.26 4.57031 9.84857 4.57031 8.42969C4.57031 4.62018 7.6378 1.52344 11.4258 1.52344C15.2059 1.52344 18.2812 4.62155 18.2812 8.42969C18.2812 9.85085 17.8485 11.2144 17.0297 12.3739C16.9563 12.4707 17.3392 11.876 11.4258 21.1549L5.90327 12.4894ZM11.4258 24.4766C5.4339 24.4766 1.52344 22.7153 1.52344 21.4297C1.52344 20.5656 3.53275 19.1448 7.98525 18.591L10.7834 22.9817C10.9233 23.2011 11.1655 23.334 11.4257 23.334C11.686 23.334 11.9283 23.2011 12.0681 22.9817L14.8662 18.591C19.3188 19.1448 21.3281 20.5656 21.3281 21.4297C21.3281 22.7044 17.4529 24.4766 11.4258 24.4766Z" fill="white"/>
<path d="M11.4258 5.38281C9.32572 5.38281 7.61719 7.09135 7.61719 9.19141C7.61719 11.2915 9.32572 13 11.4258 13C13.5258 13 15.2344 11.2915 15.2344 9.19141C15.2344 7.09135 13.5258 5.38281 11.4258 5.38281ZM11.4258 11.4766C10.1657 11.4766 9.14062 10.4514 9.14062 9.19141C9.14062 7.93137 10.1657 6.90625 11.4258 6.90625C12.6858 6.90625 13.7109 7.93137 13.7109 9.19141C13.7109 10.4514 12.6858 11.4766 11.4258 11.4766Z" fill="white"/>
</svg>
