<svg width="26" height="26" viewBox="0 0 26 26" fill="none" xmlns="http://www.w3.org/2000/svg">
<path d="M22.1053 15.8021C20.6248 15.8021 19.1748 15.571 17.7992 15.1162C17.1284 14.8851 16.368 15.0632 15.9259 15.5129L13.2013 17.5706C10.0762 15.9032 8.07537 13.9036 6.42826 10.7988L8.43034 8.13855C8.93434 7.63331 9.11499 6.89685 8.89899 6.20592C8.44295 4.824 8.21055 3.37263 8.21055 1.89474C8.21055 0.850086 7.36047 0 6.31581 0H1.89474C0.850086 0 0 0.850086 0 1.89474C0 14.0829 9.91706 24 22.1053 24C23.1499 24 24 23.1499 24 22.1053V17.6969C24 16.6522 23.1499 15.8021 22.1053 15.8021ZM22.7369 22.1053C22.7369 22.4539 22.4527 22.7369 22.1053 22.7369C10.613 22.7369 1.26314 13.387 1.26314 1.89474C1.26314 1.54611 1.54735 1.26314 1.89474 1.26314H6.31581C6.6632 1.26314 6.94741 1.54611 6.94741 1.89474C6.94741 3.50781 7.20006 5.09181 7.69518 6.59369C7.76843 6.82988 7.7091 7.07371 7.47794 7.31369L5.17897 10.3579C5.03373 10.5511 5.01099 10.8101 5.12089 11.0248C6.99413 14.7044 9.26912 16.9806 12.9752 18.8792C13.1887 18.9903 13.4502 18.9676 13.6434 18.8211L16.7533 16.464C16.9226 16.2973 17.1714 16.2392 17.3963 16.3137C18.9071 16.8127 20.4911 17.0653 22.1054 17.0653C22.4528 17.0653 22.737 17.3482 22.737 17.6969V22.1053H22.7369Z" fill="white"/>
</svg>
