<svg width="26" height="20" viewBox="0 0 26 20" fill="none" xmlns="http://www.w3.org/2000/svg">
<path d="M23.7148 0H2.28516C1.0267 0 0 1.02558 0 2.28516V17.5195C0 18.7748 1.02213 19.8047 2.28516 19.8047H23.7148C24.9702 19.8047 26 18.7826 26 17.5195V2.28516C26 1.02984 24.9779 0 23.7148 0ZM23.3993 1.52344L13.0484 11.8743L2.60807 1.52344H23.3993ZM1.52344 17.2041V2.59335L8.86026 9.86725L1.52344 17.2041ZM2.60066 18.2812L9.94211 10.9398L12.5145 13.4901C12.8123 13.7854 13.2929 13.7844 13.5894 13.4878L16.0977 10.9796L23.3993 18.2812H2.60066ZM24.4766 17.204L17.1749 9.90234L24.4766 2.60061V17.204Z" fill="#E5E5E5"/>
</svg>
