<svg width="80" height="80" viewBox="0 0 80 80" fill="none" xmlns="http://www.w3.org/2000/svg">
<path d="M73.7927 36.8817L66.1501 44.5223L64.5085 42.8804L72.1491 35.2379C75.4968 31.8815 70.4254 26.6053 66.9719 30.0592L59.3299 37.7031L57.6876 36.0595L65.329 28.4189C68.6791 25.061 63.6041 19.7881 60.1518 23.2401L52.361 31.0307C52.2449 31.1468 52.1528 31.2846 52.09 31.4363C52.0272 31.588 51.9949 31.7505 51.9949 31.9147C51.9949 32.0789 52.0272 32.2414 52.0901 32.3931C52.1529 32.5447 52.245 32.6825 52.3611 32.7986C52.4772 32.9147 52.615 33.0068 52.7666 33.0696C52.9183 33.1324 53.0809 33.1647 53.245 33.1647C53.4092 33.1647 53.5717 33.1324 53.7234 33.0695C53.8751 33.0067 54.0129 32.9146 54.129 32.7985L61.9194 25.0079C62.0823 24.8466 62.2891 24.7369 62.5141 24.6927C62.739 24.6485 62.972 24.6718 63.1838 24.7595C63.3956 24.8473 63.5767 24.9957 63.7044 25.186C63.8322 25.3764 63.9008 25.6002 63.9018 25.8295C63.9018 26.7329 63.6176 26.4293 55.036 35.176C54.8016 35.4105 54.6699 35.7284 54.6699 36.0599C54.6699 36.3914 54.8016 36.7093 55.036 36.9437C55.6165 37.5242 58.5999 40.7209 59.3296 40.7209C60.2585 40.7209 59.7908 40.5937 68.7402 31.8282C68.9029 31.6666 69.1098 31.5567 69.3348 31.5123C69.5598 31.468 69.7929 31.4912 70.0048 31.579C70.2166 31.6668 70.3978 31.8153 70.5254 32.0059C70.6531 32.1964 70.7215 32.4205 70.7221 32.6498C70.7221 33.5529 70.4422 33.2453 61.8566 41.9981C61.6222 42.2325 61.4906 42.5504 61.4906 42.8819C61.4906 43.2134 61.6222 43.5313 61.8566 43.7657L65.266 47.1751C65.3821 47.2912 65.5199 47.3833 65.6715 47.4461C65.8232 47.5089 65.9857 47.5413 66.1499 47.5413C66.3141 47.5413 66.4766 47.5089 66.6283 47.4461C66.7799 47.3833 66.9177 47.2912 67.0338 47.1751L75.5626 38.6481C75.7252 38.4864 75.9321 38.3764 76.1571 38.332C76.3822 38.2877 76.6153 38.3109 76.8271 38.3989C77.039 38.4868 77.2201 38.6354 77.3476 38.8261C77.4751 39.0168 77.5433 39.2409 77.5437 39.4703C77.5437 40.381 77.6482 39.6751 61.8572 55.6381C60.4457 57.0585 58.6658 58.0569 56.7177 58.5208C54.7697 58.9848 52.7308 58.8959 50.8305 58.2642L56.8211 52.2734C61.3869 47.5971 54.4196 40.9687 49.9379 45.3901L43.9497 51.3782C43.4148 49.7381 43.2779 47.9942 43.5503 46.2906C43.8228 44.5871 44.4968 42.9728 45.5166 41.5814C45.7129 41.3148 45.7953 40.9812 45.7459 40.6539C45.6966 40.3266 45.5194 40.0322 45.2532 39.8353C44.9871 39.6385 44.6537 39.5553 44.3263 39.6039C43.9988 39.6526 43.7041 39.8291 43.5066 40.0948C42.1266 41.977 41.2628 44.1873 41.0007 46.5065C40.7387 48.8256 41.0876 51.1729 42.0129 53.3156L39.7188 55.6084C39.4823 55.3875 39.1692 55.2671 38.8456 55.2726C38.522 55.2782 38.2132 55.4092 37.9844 55.6381L28.0335 65.5892C22.4141 66.7262 20.2236 73.7487 24.343 77.8681C28.4227 81.9478 35.4718 79.8614 36.6221 74.1776L46.5729 64.2267C46.8015 63.9978 46.9324 63.689 46.938 63.3655C46.9436 63.042 46.8234 62.7289 46.6027 62.4923L48.8977 60.1973C51.3473 61.2734 54.0653 61.5827 56.694 61.0845C59.3227 60.5863 61.7391 59.304 63.6251 57.4062L78.9718 42.0593C82.3118 38.7093 77.2455 33.4164 73.7927 36.8817ZM34.22 73.3981C33.6732 77.2418 28.9191 78.9089 26.1107 76.1003C23.3149 73.3045 24.9591 68.5378 28.8138 67.9909C29.5786 67.8823 29.2446 67.7921 38.869 58.2901L43.9219 63.3431C34.154 73.2354 34.3271 72.6445 34.22 73.3981ZM44.836 60.7225L41.4882 57.375L51.705 47.1582C53.7915 45.0718 57.3199 48.2389 55.0527 50.5061L44.836 60.7225Z" fill="#BBBBBB"/>
<path d="M29.4894 73.9712C30.1798 73.9712 30.7394 73.4115 30.7394 72.7212C30.7394 72.0308 30.1798 71.4712 29.4894 71.4712C28.7991 71.4712 28.2394 72.0308 28.2394 72.7212C28.2394 73.4115 28.7991 73.9712 29.4894 73.9712Z" fill="#BBBBBB"/>
<path d="M24.4349 34.2402L26.0781 32.5963C31.2188 37.5571 31.125 38.0468 32.0469 38.0468C33.0327 38.0468 32.5553 37.8615 44.0156 26.5963C52.278 18.4743 53.3855 8.22134 50.2077 2.1165C49.7463 1.22994 43.6744 -1.77647 35.2514 1.18478C33.8092 1.69181 34.4794 4.10665 36.0806 3.54322C42.033 1.45087 46.8263 3.08806 48.1549 3.63884C50.5528 9.39259 49.588 17.4884 42.2478 24.8285L32.0469 35.029L27.8464 30.8281L34.6531 24.0213C39.2172 19.3457 32.2531 12.7162 27.7699 17.1381L20.9633 23.9448L16.7631 19.7452L26.3386 10.1698C27.4252 9.08134 25.7571 7.19072 24.5708 8.40197L14.1114 18.8613C13.9953 18.9774 13.9033 19.1152 13.8404 19.2669C13.7776 19.4185 13.7453 19.5811 13.7453 19.7452C13.7453 19.9094 13.7776 20.072 13.8404 20.2236C13.9033 20.3753 13.9953 20.5131 14.1114 20.6292L19.1955 25.7131L17.5516 27.3571C17.315 27.1364 17.0019 27.0162 16.6784 27.0217C16.3549 27.0273 16.0461 27.1582 15.8172 27.3868L5.8658 37.3376C0.230648 38.4782 -1.9392 45.5024 2.17518 49.6167C6.25502 53.6963 13.3039 51.6098 14.4542 45.9262L24.405 35.9753C24.6336 35.7462 24.7645 35.4374 24.77 35.1138C24.7756 34.7902 24.6555 34.4771 24.4349 34.2402ZM12.0527 45.1465C11.5038 49.0093 6.73393 50.6396 3.9433 47.8496C3.49923 47.4061 3.14694 46.8793 2.90658 46.2995C2.66622 45.7197 2.5425 45.0982 2.5425 44.4706C2.5425 43.8429 2.66622 43.2214 2.90658 42.6416C3.14694 42.0618 3.49923 41.5351 3.9433 41.0915C5.50924 39.5254 6.70487 40.0353 7.35377 39.3863L16.7008 30.0392L21.7538 35.0921C11.9866 44.9843 12.1597 44.3929 12.0527 45.1465ZM19.3208 29.1232C22.7752 25.6692 21.6266 26.8263 21.8635 26.5806C29.5452 19.2031 29.5022 18.2201 31.1946 18.2201C33.2613 18.2201 34.3699 20.7698 32.8853 22.2543L22.6686 32.471L19.3208 29.1232Z" fill="#BBBBBB"/>
<path d="M7.27783 45.6755C7.96819 45.6755 8.52783 45.1159 8.52783 44.4255C8.52783 43.7352 7.96819 43.1755 7.27783 43.1755C6.58748 43.1755 6.02783 43.7352 6.02783 44.4255C6.02783 45.1159 6.58748 45.6755 7.27783 45.6755Z" fill="#BBBBBB"/>
<path d="M30 6.25C30.6904 6.25 31.25 5.69036 31.25 5C31.25 4.30964 30.6904 3.75 30 3.75C29.3096 3.75 28.75 4.30964 28.75 5C28.75 5.69036 29.3096 6.25 30 6.25Z" fill="#BBBBBB"/>
<path d="M48.75 37.5C49.4404 37.5 50 36.9404 50 36.25C50 35.5596 49.4404 35 48.75 35C48.0596 35 47.5 35.5596 47.5 36.25C47.5 36.9404 48.0596 37.5 48.75 37.5Z" fill="#BBBBBB"/>
</svg>
