<?xml version="1.0"?>
<svg xmlns="http://www.w3.org/2000/svg" viewBox="0 0 512 512" width="512" height="512"><g id="Fruits_Vegetables_Tracking_Monitor" data-name="Fruits Vegetables Tracking Monitor"><g id="Outline"><path d="M507.79,344.345l-73.741-39.66a8,8,0,1,0-7.579,14.09l61.508,33.081L256,494.606,24.021,351.856,56.35,334.465a8,8,0,1,0-7.58-14.09L4.21,344.345a8.005,8.005,0,0,0-.4,13.859c261.509,160.4,249.826,156.645,256.386,152.609C517.366,350.726,512.253,359.989,512,351.157A8,8,0,0,0,507.79,344.345Z"/><path d="M239.79,235.805,256,227.084c60.156,31.96,57.768,32.027,61.562,32.027,8.3,0,11.08-11.13,3.8-15.047l-61.57-33.11c-6.285-3.38-10,2.372-27.579,10.76a8,8,0,0,0,7.58,14.091Z"/><path d="M218.866,270.7a8,8,0,0,0,3.256,10.835l16.99,9.138L196.3,313.7c-7.3,3.926-4.492,15.047,3.8,15.047,3.73,0,1.5-.119,55.905-28.991l103.8,55.831-42.742,26.3-47.236-29.067a8,8,0,1,0-8.386,13.627l40.357,24.834L256,419.46l-83.719-51.517A8,8,0,1,0,163.9,381.57l76.839,47.284-19.016,11.7a8,8,0,1,0,8.385,13.627L256,438.247c26.144,15.624,26.1,17.123,30.081,17.123,8.03,0,11.061-10.592,4.2-14.815l-19.016-11.7,45.794-28.18,22.378,13.77a8,8,0,0,0,8.386-13.627l-15.5-9.537,43.767-26.933,26.03,14a8,8,0,0,0,7.579-14.091l-17.856-9.6L410.1,343.417a8,8,0,1,0-8.385-13.626l-26.165,16.1L272.888,290.67l16.99-9.138a8,8,0,1,0-7.579-14.091L256,281.587l-26.3-14.146A8,8,0,0,0,218.866,270.7Z"/><path d="M398.659,316.434C402.633,310.465,496,169.582,496,110.968c0-88-91.511-140.209-159.924-93.579a8,8,0,0,0,9.01,13.221C403.1-8.926,480,36.005,480,110.968c0,45.306-66.444,152.7-88,186.343-21.556-33.645-88-141.037-88-186.343a101.865,101.865,0,0,1,4.093-28.714,8,8,0,1,0-15.351-4.508A117.82,117.82,0,0,0,288,110.968c0,58.614,93.367,199.5,97.341,205.466A8,8,0,0,0,398.659,316.434Z"/><path d="M336,113.882C336,128.154,346.44,184,376,184a25.313,25.313,0,0,0,16-6.114A25.313,25.313,0,0,0,408,184c29.56,0,40-55.846,40-70.118,0-29.486-27.429-38.544-46.418-31.9C396.208,49.715,360,39.046,360,56a8,8,0,0,0,8,8c7.531,0,15.516,10.436,17.546,19.254C366.529,74.432,336,82.654,336,113.882Zm49.674-10.633a8,8,0,0,0,6.326,3.1c7.716,0,7.509-10.353,21.333-10.353C421.849,96,432,99.1,432,113.882c0,21.6-17.356,71.519-33.306,47.959a7.973,7.973,0,0,0-13.355-.049C369.256,185.556,352,135.11,352,113.882,352,99.1,362.151,96,370.667,96A18.8,18.8,0,0,1,385.674,103.249Z"/><path d="M126.659,380.434C130.633,374.465,224,233.582,224,174.968,224,113.78,177.346,64,120,64A97.761,97.761,0,0,0,76.467,74.159a8,8,0,0,0,7.066,14.355A81.889,81.889,0,0,1,120,80c48.523,0,88,42.6,88,94.968,0,45.306-66.444,152.7-88,186.343C98.444,327.666,32,220.274,32,174.968a99.948,99.948,0,0,1,9.762-43.514,8,8,0,0,0-14.432-6.908A115.828,115.828,0,0,0,16,174.968c0,58.614,93.367,199.5,97.341,205.466A8,8,0,0,0,126.659,380.434Z"/><path d="M112,210.561V240h-8a8,8,0,0,0,0,16h32a8,8,0,0,0,0-16h-8V210.435c10.865-2.255,37.782-8.921,50.606-21.745,43.423-43.422-32.327-93.951-58.91-8.252C93.054,94.552,17.4,145.3,60.785,188.69,73.855,201.76,101.567,208.435,112,210.561Zm36.311-52.167c3.767-3.767,9.879-8.707,16.019-8.707,8.149,0,19.8,10.848,2.962,27.689-7.076,7.076-22.619,12.394-34.464,15.483C135.917,181.014,141.234,165.47,148.311,158.394Zm-73.25-8.707c6.14,0,12.252,4.94,16.02,8.707,7.076,7.076,12.394,22.62,15.482,34.465-11.845-3.089-27.388-8.407-34.464-15.483C55.344,160.622,66.906,149.687,75.061,149.687Z"/><circle cx="56" cy="104" r="8"/><circle cx="240" cy="344" r="8"/><circle cx="312" cy="48" r="8"/></g></g></svg>
