<svg width="80" height="80" viewBox="0 0 80 80" fill="none" xmlns="http://www.w3.org/2000/svg">
<path d="M11.25 51.25C11.9404 51.25 12.5 50.6904 12.5 50C12.5 49.3096 11.9404 48.75 11.25 48.75C10.5596 48.75 10 49.3096 10 50C10 50.6904 10.5596 51.25 11.25 51.25Z" fill="#BBBBBB"/>
<path d="M13.75 46.25C14.4404 46.25 15 45.6904 15 45C15 44.3096 14.4404 43.75 13.75 43.75C13.0596 43.75 12.5 44.3096 12.5 45C12.5 45.6904 13.0596 46.25 13.75 46.25Z" fill="#BBBBBB"/>
<path d="M16.25 53.75C16.9404 53.75 17.5 53.1904 17.5 52.5C17.5 51.8096 16.9404 51.25 16.25 51.25C15.5596 51.25 15 51.8096 15 52.5C15 53.1904 15.5596 53.75 16.25 53.75Z" fill="#BBBBBB"/>
<path d="M13.75 41.25C14.4404 41.25 15 40.6904 15 40C15 39.3096 14.4404 38.75 13.75 38.75C13.0596 38.75 12.5 39.3096 12.5 40C12.5 40.6904 13.0596 41.25 13.75 41.25Z" fill="#BBBBBB"/>
<path d="M18.75 41.25C19.4404 41.25 20 40.6904 20 40C20 39.3096 19.4404 38.75 18.75 38.75C18.0596 38.75 17.5 39.3096 17.5 40C17.5 40.6904 18.0596 41.25 18.75 41.25Z" fill="#BBBBBB"/>
<path d="M25 37.5C25.6904 37.5 26.25 36.9404 26.25 36.25C26.25 35.5596 25.6904 35 25 35C24.3096 35 23.75 35.5596 23.75 36.25C23.75 36.9404 24.3096 37.5 25 37.5Z" fill="#BBBBBB"/>
<path d="M26.25 42.5C26.9404 42.5 27.5 41.9404 27.5 41.25C27.5 40.5596 26.9404 40 26.25 40C25.5596 40 25 40.5596 25 41.25C25 41.9404 25.5596 42.5 26.25 42.5Z" fill="#BBBBBB"/>
<path d="M21.25 46.25C21.9404 46.25 22.5 45.6904 22.5 45C22.5 44.3096 21.9404 43.75 21.25 43.75C20.5596 43.75 20 44.3096 20 45C20 45.6904 20.5596 46.25 21.25 46.25Z" fill="#BBBBBB"/>
<path d="M25 51.25C25.6904 51.25 26.25 50.6904 26.25 50C26.25 49.3096 25.6904 48.75 25 48.75C24.3096 48.75 23.75 49.3096 23.75 50C23.75 50.6904 24.3096 51.25 25 51.25Z" fill="#BBBBBB"/>
<path d="M28.75 55C29.4404 55 30 54.4404 30 53.75C30 53.0596 29.4404 52.5 28.75 52.5C28.0596 52.5 27.5 53.0596 27.5 53.75C27.5 54.4404 28.0596 55 28.75 55Z" fill="#BBBBBB"/>
<path d="M1.25 80C1.94036 80 2.5 79.4404 2.5 78.75C2.5 78.0596 1.94036 77.5 1.25 77.5C0.559644 77.5 0 78.0596 0 78.75C0 79.4404 0.559644 80 1.25 80Z" fill="#BBBBBB"/>
<path d="M78.75 80C79.4404 80 80 79.4404 80 78.75C80 78.0596 79.4404 77.5 78.75 77.5C78.0596 77.5 77.5 78.0596 77.5 78.75C77.5 79.4404 78.0596 80 78.75 80Z" fill="#BBBBBB"/>
<path d="M73.352 43.7924C80.6306 32.7975 64.4161 21.183 56.1348 31.397C47.9725 29.9845 41.5025 38.1727 44.4483 45.722C39.9545 51.2428 43.6544 59.9991 51.2295 60H56.2295V64.5928L49.0733 62.5481C48.9155 62.503 48.7503 62.4894 48.5872 62.5081C48.4241 62.5268 48.2663 62.5774 48.1228 62.6571C47.9792 62.7368 47.8528 62.8439 47.7507 62.9725C47.6486 63.101 47.5728 63.2484 47.5277 63.4063C47.4825 63.5641 47.4689 63.7293 47.4876 63.8924C47.5063 64.0555 47.5569 64.2133 47.6366 64.3568C47.7163 64.5003 47.8235 64.6267 47.952 64.7289C48.0806 64.831 48.228 64.9067 48.3858 64.9519L50.2319 65.4794L47.8453 67.8661C47.7292 67.9822 47.6372 68.12 47.5743 68.2716C47.5115 68.4233 47.4792 68.5859 47.4792 68.75C47.4792 68.9142 47.5115 69.0767 47.5743 69.2284C47.6372 69.38 47.7292 69.5178 47.8453 69.6339C47.9614 69.75 48.0992 69.8421 48.2509 69.9049C48.4025 69.9677 48.5651 70 48.7292 70C48.8934 70 49.0559 69.9677 49.2076 69.9049C49.3593 69.8421 49.4971 69.75 49.6131 69.6339L52.982 66.2652L56.2292 67.193V70.6599C56.2341 72.06 55.8597 73.4354 55.1455 74.6398C54.4314 75.8442 53.4043 76.8326 52.1734 77.5H27.8066C26.5755 76.8327 25.5483 75.8443 24.834 74.6399C24.1198 73.4355 23.7452 72.0601 23.75 70.6599V60H28.7302C37.0161 60 40.6713 48.1477 33.352 43.7924C40.6184 32.8163 24.4367 21.1569 16.1347 31.397C7.97329 29.9852 1.50204 38.1722 4.44829 45.722C0.223758 50.9124 3.22673 59.0478 10.0594 59.9242C10.6772 66.1177 15.4641 68.5061 16.25 69.3508C16.1625 69.7345 17.0138 74.8713 12.1934 77.5H6.25001C5.91849 77.5 5.60054 77.6317 5.36612 77.8661C5.1317 78.1005 5.00001 78.4185 5.00001 78.75C5.00001 79.0815 5.1317 79.3995 5.36612 79.6339C5.60054 79.8683 5.91849 80 6.25001 80H73.75C74.0815 80 74.3995 79.8683 74.6339 79.6339C74.8683 79.3995 75 79.0815 75 78.75C75 78.4185 74.8683 78.1005 74.6339 77.8661C74.3995 77.6317 74.0815 77.5 73.75 77.5H67.7867C66.5557 76.8327 65.5285 75.8443 64.8142 74.6399C64.0999 73.4355 63.7253 72.0601 63.7302 70.6599V60H68.7302C77.018 60 80.6686 48.1466 73.352 43.7924ZM6.80079 46.8411C6.98362 46.6574 7.10485 46.4214 7.14768 46.1658C7.1905 45.9102 7.15283 45.6476 7.03985 45.4144C4.12141 39.3883 9.53251 32.2683 16.3444 33.9961C16.5894 34.0582 16.8474 34.0446 17.0845 33.9571C17.3217 33.8696 17.5267 33.7122 17.6725 33.5058C24.0174 24.5238 38.018 34.5067 30.4864 43.4528C30.3577 43.6058 30.2676 43.7874 30.2235 43.9824C30.1795 44.1774 30.1829 44.3801 30.2334 44.5735C30.2839 44.7669 30.3801 44.9454 30.5138 45.094C30.6476 45.2425 30.815 45.3569 31.002 45.4274C37.5027 47.8794 34.8859 57.5 28.7302 57.5H11.2302C5.48923 57.5 3.04188 50.618 6.80079 46.8411ZM12.588 60H16.25V66.1492C15.2594 65.4212 14.4249 64.5019 13.7959 63.4457C13.1669 62.3895 12.7562 61.2178 12.588 60ZM16.1597 77.5C17.8354 75.6163 18.7576 73.181 18.75 70.6599V60H21.25V70.6599C21.2424 73.181 22.1647 75.6163 23.8403 77.5H16.1597ZM63.8205 77.5H56.1406C57.8163 75.6163 58.7386 73.181 58.7309 70.6599V60H61.2309V70.6599C61.2231 73.1809 62.1451 75.6162 63.8205 77.5ZM68.7302 57.5H51.2302C45.4888 57.5 43.0417 50.6181 46.8005 46.8411C46.9833 46.6574 47.1045 46.4215 47.1474 46.1659C47.1902 45.9104 47.1526 45.6478 47.0397 45.4145C44.1211 39.388 49.5327 32.2683 56.3442 33.9961C56.5892 34.0582 56.8473 34.0446 57.0844 33.9571C57.3215 33.8696 57.5265 33.7122 57.6724 33.5058C62.0739 27.275 70.0727 30.1552 72.1711 35.4755C73.2063 38.1005 72.6077 40.9328 70.4861 43.4528C70.3574 43.6058 70.2672 43.7874 70.2232 43.9824C70.1792 44.1774 70.1826 44.3801 70.2331 44.5735C70.2836 44.7669 70.3798 44.9454 70.5135 45.094C70.6472 45.2425 70.8147 45.3569 71.0017 45.4274C77.495 47.8764 74.8914 57.5 68.7302 57.5Z" fill="#BBBBBB"/>
<path d="M51.2301 51.25C51.9205 51.25 52.4801 50.6904 52.4801 50C52.4801 49.3096 51.9205 48.75 51.2301 48.75C50.5397 48.75 49.9801 49.3096 49.9801 50C49.9801 50.6904 50.5397 51.25 51.2301 51.25Z" fill="#BBBBBB"/>
<path d="M53.7301 46.25C54.4205 46.25 54.9801 45.6904 54.9801 45C54.9801 44.3096 54.4205 43.75 53.7301 43.75C53.0397 43.75 52.4801 44.3096 52.4801 45C52.4801 45.6904 53.0397 46.25 53.7301 46.25Z" fill="#BBBBBB"/>
<path d="M56.2301 53.75C56.9205 53.75 57.4801 53.1904 57.4801 52.5C57.4801 51.8096 56.9205 51.25 56.2301 51.25C55.5397 51.25 54.9801 51.8096 54.9801 52.5C54.9801 53.1904 55.5397 53.75 56.2301 53.75Z" fill="#BBBBBB"/>
<path d="M53.7301 41.25C54.4205 41.25 54.9801 40.6904 54.9801 40C54.9801 39.3096 54.4205 38.75 53.7301 38.75C53.0397 38.75 52.4801 39.3096 52.4801 40C52.4801 40.6904 53.0397 41.25 53.7301 41.25Z" fill="#BBBBBB"/>
<path d="M58.7301 41.25C59.4205 41.25 59.9801 40.6904 59.9801 40C59.9801 39.3096 59.4205 38.75 58.7301 38.75C58.0397 38.75 57.4801 39.3096 57.4801 40C57.4801 40.6904 58.0397 41.25 58.7301 41.25Z" fill="#BBBBBB"/>
<path d="M64.9801 37.5C65.6705 37.5 66.2301 36.9404 66.2301 36.25C66.2301 35.5596 65.6705 35 64.9801 35C64.2897 35 63.7301 35.5596 63.7301 36.25C63.7301 36.9404 64.2897 37.5 64.9801 37.5Z" fill="#BBBBBB"/>
<path d="M66.2302 42.5C66.9206 42.5 67.4802 41.9404 67.4802 41.25C67.4802 40.5596 66.9206 40 66.2302 40C65.5399 40 64.9802 40.5596 64.9802 41.25C64.9802 41.9404 65.5399 42.5 66.2302 42.5Z" fill="#BBBBBB"/>
<path d="M61.2301 46.25C61.9205 46.25 62.4801 45.6904 62.4801 45C62.4801 44.3096 61.9205 43.75 61.2301 43.75C60.5397 43.75 59.9801 44.3096 59.9801 45C59.9801 45.6904 60.5397 46.25 61.2301 46.25Z" fill="#BBBBBB"/>
<path d="M64.9801 51.25C65.6705 51.25 66.2301 50.6904 66.2301 50C66.2301 49.3096 65.6705 48.75 64.9801 48.75C64.2897 48.75 63.7301 49.3096 63.7301 50C63.7301 50.6904 64.2897 51.25 64.9801 51.25Z" fill="#BBBBBB"/>
<path d="M68.7302 55C69.4206 55 69.9802 54.4404 69.9802 53.75C69.9802 53.0596 69.4206 52.5 68.7302 52.5C68.0399 52.5 67.4802 53.0596 67.4802 53.75C67.4802 54.4404 68.0399 55 68.7302 55Z" fill="#BBBBBB"/>
<path d="M68.75 17.5C69.9861 17.5 71.1945 17.1334 72.2223 16.4467C73.2501 15.7599 74.0512 14.7838 74.5243 13.6418C74.9973 12.4997 75.1211 11.2431 74.8799 10.0307C74.6388 8.81831 74.0435 7.70466 73.1694 6.83059C72.2953 5.95651 71.1817 5.36125 69.9693 5.12009C68.7569 4.87894 67.5003 5.00271 66.3582 5.47576C65.2162 5.9488 64.2401 6.74988 63.5533 7.77769C62.8666 8.8055 62.5 10.0139 62.5 11.25C62.5019 12.907 63.1609 14.4957 64.3326 15.6674C65.5043 16.8391 67.093 17.4981 68.75 17.5ZM68.75 7.5C69.4917 7.5 70.2167 7.71994 70.8334 8.13199C71.4501 8.54405 71.9307 9.12972 72.2146 9.81494C72.4984 10.5002 72.5726 11.2542 72.4279 11.9816C72.2833 12.709 71.9261 13.3772 71.4017 13.9017C70.8772 14.4261 70.209 14.7833 69.4816 14.928C68.7542 15.0726 68.0002 14.9984 67.3149 14.7146C66.6297 14.4307 66.044 13.9501 65.632 13.3334C65.2199 12.7167 65 11.9917 65 11.25C65.0012 10.2558 65.3966 9.30264 66.0996 8.59963C66.8026 7.89662 67.7558 7.50116 68.75 7.5Z" fill="#BBBBBB"/>
<path d="M68.75 2.5C69.4404 2.5 70 1.94036 70 1.25C70 0.559644 69.4404 0 68.75 0C68.0596 0 67.5 0.559644 67.5 1.25C67.5 1.94036 68.0596 2.5 68.75 2.5Z" fill="#BBBBBB"/>
<path d="M78.75 12.5C79.4404 12.5 80 11.9404 80 11.25C80 10.5596 79.4404 10 78.75 10C78.0596 10 77.5 10.5596 77.5 11.25C77.5 11.9404 78.0596 12.5 78.75 12.5Z" fill="#BBBBBB"/>
<path d="M58.75 12.5C59.4404 12.5 60 11.9404 60 11.25C60 10.5596 59.4404 10 58.75 10C58.0596 10 57.5 10.5596 57.5 11.25C57.5 11.9404 58.0596 12.5 58.75 12.5Z" fill="#BBBBBB"/>
<path d="M13.75 5C14.4404 5 15 4.44036 15 3.75C15 3.05964 14.4404 2.5 13.75 2.5C13.0596 2.5 12.5 3.05964 12.5 3.75C12.5 4.44036 13.0596 5 13.75 5Z" fill="#BBBBBB"/>
<path d="M68.75 22.5C69.4404 22.5 70 21.9404 70 21.25C70 20.5596 69.4404 20 68.75 20C68.0596 20 67.5 20.5596 67.5 21.25C67.5 21.9404 68.0596 22.5 68.75 22.5Z" fill="#BBBBBB"/>
<path d="M61.679 5.42895C62.3693 5.42895 62.929 4.86931 62.929 4.17895C62.929 3.4886 62.3693 2.92896 61.679 2.92896C60.9886 2.92896 60.429 3.4886 60.429 4.17895C60.429 4.86931 60.9886 5.42895 61.679 5.42895Z" fill="#BBBBBB"/>
<path d="M75.821 19.571C76.5114 19.571 77.071 19.0114 77.071 18.321C77.071 17.6307 76.5114 17.071 75.821 17.071C75.1307 17.071 74.571 17.6307 74.571 18.321C74.571 19.0114 75.1307 19.571 75.821 19.571Z" fill="#BBBBBB"/>
<path d="M75.821 5.42895C76.5114 5.42895 77.071 4.86931 77.071 4.17895C77.071 3.4886 76.5114 2.92896 75.821 2.92896C75.1307 2.92896 74.571 3.4886 74.571 4.17895C74.571 4.86931 75.1307 5.42895 75.821 5.42895Z" fill="#BBBBBB"/>
<path d="M61.679 19.571C62.3693 19.571 62.929 19.0114 62.929 18.321C62.929 17.6307 62.3693 17.071 61.679 17.071C60.9886 17.071 60.429 17.6307 60.429 18.321C60.429 19.0114 60.9886 19.571 61.679 19.571Z" fill="#BBBBBB"/>
<path d="M6.24998 10H22.589C22.8924 12.0814 23.9342 13.9843 25.5243 15.3612C27.1144 16.7381 29.1466 17.4972 31.25 17.5H47.5258C53.739 17.5 54.1426 7.43953 47.5 7.5H32.375C32.0849 6.08925 31.3173 4.82165 30.2016 3.91086C29.0859 3.00007 27.6902 2.50179 26.25 2.5H18.75C18.4185 2.5 18.1005 2.6317 17.8661 2.86612C17.6317 3.10054 17.5 3.41848 17.5 3.75C17.5 4.08152 17.6317 4.39946 17.8661 4.63388C18.1005 4.8683 18.4185 5 18.75 5H26.25C27.2442 5.00116 28.1973 5.39662 28.9003 6.09963C29.6034 6.80264 29.9988 7.75579 30 8.75C30 9.08152 30.1317 9.39946 30.3661 9.63388C30.6005 9.8683 30.9185 10 31.25 10H47.5089C50.8083 9.97437 50.4819 15 47.5 15H31.25C29.593 14.9981 28.0044 14.339 26.8327 13.1673C25.661 11.9956 25.0019 10.407 25 8.75C25 8.41848 24.8683 8.10054 24.6339 7.86612C24.3994 7.6317 24.0815 7.5 23.75 7.5H6.25263C4.67294 7.49672 4.5606 5.00891 6.24998 5H8.74998C9.0815 5 9.39944 4.8683 9.63386 4.63388C9.86828 4.39946 9.99998 4.08152 9.99998 3.75C9.99998 3.41848 9.86828 3.10054 9.63386 2.86612C9.39944 2.6317 9.0815 2.5 8.74998 2.5H6.24341C1.23591 2.52594 1.3831 9.98953 6.24998 10Z" fill="#BBBBBB"/>
<path d="M3.75 22.5H11.25C12.2446 22.5 13.1984 22.1049 13.9017 21.4017C14.6049 20.6984 15 19.7446 15 18.75C15 17.7554 14.6049 16.8016 13.9017 16.0983C13.1984 15.3951 12.2446 15 11.25 15H3.75C2.75544 15 1.80161 15.3951 1.09835 16.0983C0.395088 16.8016 0 17.7554 0 18.75C0 19.7446 0.395088 20.6984 1.09835 21.4017C1.80161 22.1049 2.75544 22.5 3.75 22.5ZM3.75 17.5H11.25C11.5815 17.5 11.8995 17.6317 12.1339 17.8661C12.3683 18.1005 12.5 18.4185 12.5 18.75C12.5 19.0815 12.3683 19.3995 12.1339 19.6339C11.8995 19.8683 11.5815 20 11.25 20H3.75C3.41848 20 3.10054 19.8683 2.86612 19.6339C2.6317 19.3995 2.5 19.0815 2.5 18.75C2.5 18.4185 2.6317 18.1005 2.86612 17.8661C3.10054 17.6317 3.41848 17.5 3.75 17.5Z" fill="#BBBBBB"/>
</svg>
