<svg height="512" viewBox="0 0 512 512" width="512" xmlns="http://www.w3.org/2000/svg"><g id="Shears"><g id="Outline"><path d="m243.334 184.859a8 8 0 0 0 10.215-4.859l53.57-150.953 17.155-7.355-41.9 169.461a8 8 0 1 0 15.532 3.841l45.76-185.074a8.005 8.005 0 0 0 -10.918-9.273c-34.128 15.524-37.5 13.993-39.537 19.747l-54.74 154.25a8 8 0 0 0 4.863 10.215z"/><path d="m502.063 169.1-89.009 22.21a8 8 0 0 0 3.873 15.524l73.432-18.323-7.353 17.31-210.918 75.529c-45.483-29.877-43.413-30.255-47.651-30.289l-42-.349-3.944-15.953 64.416-16.071c52.144 18.122 50.246 19.032 54.406 17.994l42-10.48a8 8 0 1 0 -3.873-15.524l-39.653 9.894c-52.144-18.121-50.238-19.033-54.406-17.994l-66.749 16.653a7.984 7.984 0 0 0 -9.6-5.493l-141.589 35.329c-26.635 6.646-31.956 42.45-8.452 56.6a30.665 30.665 0 0 0 23.395 3.507l141.55-35.319a8 8 0 0 0 6.033-7.115l35.94.3 26.089 17.449v43.048a7.987 7.987 0 0 0 -8.7 6.017l-34.633 140.072c-6.561 26.536 22.362 48.1 45.873 33.949a30.718 30.718 0 0 0 14.06-19.075l34.624-140.029a7.993 7.993 0 0 0 -5.489-9.579l13.11-52.992c192.034-69.777 186.918-64.481 189.518-70.6l15-35.31a8.006 8.006 0 0 0 -9.3-10.89zm-478.818 122.861a14.862 14.862 0 0 1 -6.8-9.233 15 15 0 0 1 10.878-18.137l133.81-33.391 7.186 29.063c-139.548 33.248-135.65 37.372-145.074 31.698zm219.042 201.907c-11.249 6.768-25.288-3.455-22.088-16.4l32.711-132.291 28.869 7.2c-35.479 137.114-30.057 135.809-39.492 141.491zm35.933-158.868-14.22-3.546v-36.265l2.543 1.7c5.818 3.891 11.049-1.624 22.22-4.516z"/><circle cx="264" cy="248" r="8"/><circle cx="376" cy="208" r="8"/></g></g></svg>